SplineFontDB: 3.0
FontName: THSarabunNew-Bold
FullName: TH Sarabun New Bold
FamilyName: TH Sarabun New
Weight: Bold
Copyright: Copyright (c) 2010-2011 by Software Industry Promotion Agency (Public Organization) (SIPA). All rights reserved.\nCreated by : Suppakit CHALERMLARP.
Version: 1.3 2011
ItalicAngle: 0
UnderlinePosition: -42
UnderlineWidth: 25
Ascent: 500
Descent: 200
InvalidEm: 0
sfntRevision: 0x000100c5
LayerCount: 2
Layer: 0 1 "Back" 1
Layer: 1 1 "Fore" 0
XUID: [1021 318 -2145553614 22394]
StyleMap: 0x0020
FSType: 0
OS2Version: 3
OS2_WeightWidthSlopeOnly: 0
OS2_UseTypoMetrics: 0
CreationTime: 1308745583
ModificationTime: 1564323291
PfmFamily: 17
TTFWeight: 700
TTFWidth: 5
LineGap: 26
VLineGap: 0
Panose: 2 11 5 0 4 2 0 2 0 3
OS2TypoAscent: 722
OS2TypoAOffset: 0
OS2TypoDescent: -212
OS2TypoDOffset: 0
OS2TypoLinegap: 51
OS2WinAscent: 717
OS2WinAOffset: 0
OS2WinDescent: 388
OS2WinDOffset: 0
HheadAscent: 717
HheadAOffset: 0
HheadDescent: -388
HheadDOffset: 0
OS2SubXSize: 595
OS2SubYSize: 552
OS2SubXOff: 0
OS2SubYOff: 119
OS2SupXSize: 595
OS2SupYSize: 552
OS2SupXOff: 0
OS2SupYOff: 405
OS2StrikeYSize: 26
OS2StrikeYPos: 212
OS2CapHeight: 405
OS2XHeight: 289
OS2FamilyClass: 2053
OS2Vendor: 'psk '
OS2CodePages: 60010183.80000000
OS2UnicodeRanges: a100006f.5000205a.00000000.00000000
Lookup: 4 0 0 "'frac' Diagonal Fractions in Latin lookup 0" { "'frac' Diagonal Fractions in Latin lookup 0 subtable"  } ['frac' ('latn' <'dflt' > ) ]
Lookup: 4 0 1 "'rlig' Required Ligatures in Latin lookup 1" { "'rlig' Required Ligatures in Latin lookup 1 subtable"  } ['rlig' ('latn' <'dflt' > ) ]
Lookup: 6 0 0 "'rlig' Required Ligatures in Latin lookup 2" { "'rlig' Required Ligatures in Latin lookup 2 subtable"  } ['rlig' ('latn' <'dflt' > ) ]
Lookup: 6 0 0 "'rlig' Required Ligatures in Latin lookup 3" { "'rlig' Required Ligatures in Latin lookup 3 subtable"  } ['rlig' ('latn' <'dflt' > ) ]

StartChar: .notdef
Encoding: 65536 -1 0
Width: 663
VWidth: 970
Flags: W
LayerCount: 2
Fore
SplineSet
615.400390625 20.224609375 m 1,0,-1
 82.599609375 20.224609375 l 1,1,-1
 82.599609375 788.775390625 l 1,2,-1
 615.400390625 788.775390625 l 1,3,-1
 615.400390625 20.224609375 l 1,0,-1
583 49.6748046875 m 1,4,-1
 583 759.325195312 l 1,5,-1
 115 759.325195312 l 1,6,-1
 115 49.6748046875 l 1,7,-1
 583 49.6748046875 l 1,4,-1
EndSplineSet
EndChar

StartChar: exclam
Encoding: 33 33 2
Width: 159
VWidth: 961
Flags: W
LayerCount: 2
Fore
SplineSet
108.299804688 143.724609375 m 1,0,-1
 57.900390625 143.724609375 l 1,1,-1
 51.599609375 463.875 l 1,2,-1
 116.400390625 463.875 l 1,3,-1
 108.299804688 143.724609375 l 1,0,-1
127.200195312 48.724609375 m 256,4,5
 127.200195312 29.724609375 127.200195312 29.724609375 114.599609375 16.4248046875 c 128,-1,6
 102 3.125 102 3.125 84 3.125 c 256,7,8
 66 3.125 66 3.125 53.400390625 16.4248046875 c 128,-1,9
 40.7998046875 29.724609375 40.7998046875 29.724609375 40.7998046875 48.724609375 c 256,10,11
 40.7998046875 67.724609375 40.7998046875 67.724609375 53.400390625 81.025390625 c 128,-1,12
 66 94.3251953125 66 94.3251953125 84 94.3251953125 c 256,13,14
 102 94.3251953125 102 94.3251953125 114.599609375 81.025390625 c 128,-1,15
 127.200195312 67.724609375 127.200195312 67.724609375 127.200195312 48.724609375 c 256,4,5
EndSplineSet
EndChar

StartChar: quotedbl
Encoding: 34 34 3
Width: 276
VWidth: 971
Flags: W
LayerCount: 2
Fore
SplineSet
220.599609375 337.825195312 m 1,0,-1
 179.200195312 337.825195312 l 1,1,-1
 167.5 521.174804688 l 1,2,-1
 231.400390625 521.174804688 l 1,3,-1
 220.599609375 337.825195312 l 1,0,-1
110.799804688 337.825195312 m 1,4,-1
 70.2998046875 337.825195312 l 1,5,-1
 58.599609375 521.174804688 l 1,6,-1
 122.5 521.174804688 l 1,7,-1
 110.799804688 337.825195312 l 1,4,-1
EndSplineSet
EndChar

StartChar: numbersign
Encoding: 35 35 4
Width: 438
VWidth: 961
Flags: W
LayerCount: 2
Fore
SplineSet
312.849609375 11.875 m 1,0,-1
 259.75 11.875 l 1,1,-1
 277.75 146.775390625 l 1,2,-1
 161.650390625 146.775390625 l 1,3,-1
 146.349609375 11.875 l 1,4,-1
 93.25 11.875 l 1,5,-1
 108.549804688 146.775390625 l 1,6,-1
 52.75 146.775390625 l 1,7,-1
 52.75 197.125 l 1,8,-1
 114.849609375 197.125 l 1,9,-1
 125.650390625 281.674804688 l 1,10,-1
 64.4501953125 281.674804688 l 1,11,-1
 64.4501953125 332.974609375 l 1,12,-1
 131.049804688 332.974609375 l 1,13,-1
 148.150390625 463.125 l 1,14,-1
 199.450195312 463.125 l 1,15,-1
 184.150390625 332.974609375 l 1,16,-1
 298.450195312 332.974609375 l 1,17,-1
 313.75 463.125 l 1,18,-1
 366.849609375 463.125 l 1,19,-1
 351.549804688 332.974609375 l 1,20,-1
 408.25 332.974609375 l 1,21,-1
 408.25 281.674804688 l 1,22,-1
 344.349609375 281.674804688 l 1,23,-1
 334.450195312 197.125 l 1,24,-1
 394.75 197.125 l 1,25,-1
 394.75 146.775390625 l 1,26,-1
 329.950195312 146.775390625 l 1,27,-1
 312.849609375 11.875 l 1,0,-1
282.25 197.125 m 1,28,-1
 293.049804688 281.674804688 l 1,29,-1
 177.849609375 281.674804688 l 1,30,-1
 167.950195312 197.125 l 1,31,-1
 282.25 197.125 l 1,28,-1
EndSplineSet
EndChar

StartChar: dollar
Encoding: 36 36 5
Width: 348
VWidth: 961
Flags: W
LayerCount: 2
Fore
SplineSet
309.950195312 143.049804688 m 0,0,1
 309.950195312 103.150390625 309.950195312 103.150390625 282.950195312 70.849609375 c 128,-1,2
 255.950195312 38.5498046875 255.950195312 38.5498046875 210.049804688 28.099609375 c 1,3,-1
 210.049804688 -40.2998046875 l 1,4,-1
 156.950195312 -40.2998046875 l 1,5,-1
 156.950195312 26.2001953125 l 1,6,7
 97.5498046875 31.900390625 97.5498046875 31.900390625 57.0498046875 65.150390625 c 1,8,-1
 81.349609375 110.75 l 1,9,10
 120.950195312 77.5 120.950195312 77.5 175.849609375 77.5 c 0,11,12
 211.849609375 77.5 211.849609375 77.5 233.450195312 95.0751953125 c 128,-1,13
 255.049804688 112.650390625 255.049804688 112.650390625 255.049804688 141.150390625 c 0,14,15
 255.049804688 185.799804688 255.049804688 185.799804688 182.150390625 218.099609375 c 0,16,17
 67.849609375 269.400390625 67.849609375 269.400390625 67.849609375 338.75 c 0,18,19
 67.849609375 379.599609375 67.849609375 379.599609375 93.5 409.049804688 c 128,-1,20
 119.150390625 438.5 119.150390625 438.5 164.150390625 448 c 1,21,-1
 164.150390625 518.299804688 l 1,22,-1
 216.349609375 518.299804688 l 1,23,-1
 216.349609375 448.950195312 l 1,24,25
 258.650390625 443.25 258.650390625 443.25 302.75 417.599609375 c 1,26,-1
 275.75 371.049804688 l 1,27,28
 245.150390625 398.599609375 245.150390625 398.599609375 192.049804688 398.599609375 c 0,29,30
 162.349609375 398.599609375 162.349609375 398.599609375 142.549804688 383.875 c 128,-1,31
 122.75 369.150390625 122.75 369.150390625 122.75 343.5 c 0,32,33
 122.75 307.400390625 122.75 307.400390625 201.950195312 270.349609375 c 0,34,35
 261.349609375 242.799804688 261.349609375 242.799804688 285.650390625 214.299804688 c 128,-1,36
 309.950195312 185.799804688 309.950195312 185.799804688 309.950195312 143.049804688 c 0,0,1
EndSplineSet
EndChar

StartChar: percent
Encoding: 37 37 6
Width: 653
VWidth: 961
Flags: W
LayerCount: 2
Fore
SplineSet
229.700195312 3.349609375 m 1,0,-1
 174.799804688 3.349609375 l 1,1,-1
 449.299804688 464.099609375 l 1,2,-1
 504.200195312 464.099609375 l 1,3,-1
 229.700195312 3.349609375 l 1,0,-1
282.799804688 333 m 0,4,5
 282.799804688 194.299804688 282.799804688 194.299804688 175.700195312 194.299804688 c 0,6,7
 69.5 194.299804688 69.5 194.299804688 69.5 333 c 0,8,9
 69.5 472.650390625 69.5 472.650390625 175.700195312 472.650390625 c 0,10,11
 282.799804688 472.650390625 282.799804688 472.650390625 282.799804688 333 c 0,4,5
229.700195312 333 m 0,12,13
 229.700195312 422.299804688 229.700195312 422.299804688 175.700195312 422.299804688 c 0,14,15
 123.5 422.299804688 123.5 422.299804688 123.5 333 c 0,16,17
 123.5 245.599609375 123.5 245.599609375 175.700195312 245.599609375 c 0,18,19
 229.700195312 245.599609375 229.700195312 245.599609375 229.700195312 333 c 0,12,13
618.5 143.950195312 m 0,20,21
 618.5 4.2998046875 618.5 4.2998046875 510.5 4.2998046875 c 0,22,23
 403.400390625 4.2998046875 403.400390625 4.2998046875 403.400390625 143.950195312 c 0,24,25
 403.400390625 282.650390625 403.400390625 282.650390625 510.5 282.650390625 c 0,26,27
 618.5 282.650390625 618.5 282.650390625 618.5 143.950195312 c 0,20,21
564.5 143.950195312 m 0,28,29
 564.5 233.25 564.5 233.25 510.5 233.25 c 0,30,31
 457.400390625 233.25 457.400390625 233.25 457.400390625 143.950195312 c 0,32,33
 457.400390625 55.599609375 457.400390625 55.599609375 510.5 55.599609375 c 0,34,35
 564.5 55.599609375 564.5 55.599609375 564.5 143.950195312 c 0,28,29
EndSplineSet
EndChar

StartChar: ampersand
Encoding: 38 38 7
Width: 462
VWidth: 961
Flags: W
LayerCount: 2
Fore
SplineSet
403.450195312 -1.349609375 m 1,0,-1
 342.25 57.5498046875 l 1,1,2
 271.150390625 3.400390625 271.150390625 3.400390625 198.25 3.400390625 c 0,3,4
 137.049804688 3.400390625 137.049804688 3.400390625 97 43.2998046875 c 128,-1,5
 56.9501953125 83.2001953125 56.9501953125 83.2001953125 56.9501953125 139.25 c 0,6,7
 56.9501953125 223.799804688 56.9501953125 223.799804688 142.450195312 273.200195312 c 1,8,9
 109.150390625 318.799804688 109.150390625 318.799804688 109.150390625 361.549804688 c 0,10,11
 109.150390625 410.950195312 109.150390625 410.950195312 142 445.150390625 c 128,-1,12
 174.849609375 479.349609375 174.849609375 479.349609375 226.150390625 479.349609375 c 0,13,14
 270.25 479.349609375 270.25 479.349609375 298.599609375 451.325195312 c 128,-1,15
 326.950195312 423.299804688 326.950195312 423.299804688 326.950195312 379.599609375 c 0,16,17
 326.950195312 304.549804688 326.950195312 304.549804688 224.349609375 254.200195312 c 1,18,19
 264.849609375 206.700195312 264.849609375 206.700195312 338.650390625 131.650390625 c 1,20,21
 382.75 192.450195312 382.75 192.450195312 389.049804688 264.650390625 c 1,22,-1
 436.75 264.650390625 l 1,23,24
 424.150390625 162.049804688 424.150390625 162.049804688 376.450195312 96.5 c 1,25,26
 418.75 55.650390625 418.75 55.650390625 452.049804688 25.25 c 1,27,-1
 403.450195312 -1.349609375 l 1,0,-1
274.75 376.75 m 0,28,29
 274.75 430.900390625 274.75 430.900390625 223.450195312 430.900390625 c 0,30,31
 196.450195312 430.900390625 196.450195312 430.900390625 180.25 411.900390625 c 128,-1,32
 164.049804688 392.900390625 164.049804688 392.900390625 164.049804688 365.349609375 c 256,33,34
 164.049804688 337.799804688 164.049804688 337.799804688 197.349609375 295.049804688 c 1,35,36
 274.75 335.900390625 274.75 335.900390625 274.75 376.75 c 0,28,29
306.25 92.7001953125 m 1,37,38
 306.25 92.7001953125 306.25 92.7001953125 175.75 233.299804688 c 1,39,40
 113.650390625 196.25 113.650390625 196.25 113.650390625 143.049804688 c 0,41,42
 113.650390625 104.099609375 113.650390625 104.099609375 139.75 79.400390625 c 128,-1,43
 165.849609375 54.7001953125 165.849609375 54.7001953125 205.450195312 54.7001953125 c 0,44,45
 264.849609375 54.7001953125 264.849609375 54.7001953125 306.25 92.7001953125 c 1,37,38
EndSplineSet
EndChar

StartChar: quotesingle
Encoding: 39 39 8
Width: 160
VWidth: 971
Flags: W
LayerCount: 2
Fore
SplineSet
104.75 337.825195312 m 1,0,-1
 64.25 337.825195312 l 1,1,-1
 52.5498046875 521.174804688 l 1,2,-1
 116.450195312 521.174804688 l 1,3,-1
 104.75 337.825195312 l 1,0,-1
EndSplineSet
EndChar

StartChar: parenleft
Encoding: 40 40 9
Width: 233
VWidth: 961
Flags: W
LayerCount: 2
Fore
SplineSet
159.650390625 -40.375 m 1,0,1
 53.4501953125 75.525390625 53.4501953125 75.525390625 53.4501953125 235.125 c 0,2,3
 53.4501953125 384.275390625 53.4501953125 384.275390625 156.950195312 515.375 c 1,4,-1
 223.549804688 515.375 l 1,5,6
 109.25 383.325195312 109.25 383.325195312 109.25 235.125 c 0,7,8
 109.25 94.525390625 109.25 94.525390625 222.650390625 -40.375 c 1,9,-1
 159.650390625 -40.375 l 1,0,1
EndSplineSet
EndChar

StartChar: parenright
Encoding: 41 41 10
Width: 230
VWidth: 961
Flags: W
LayerCount: 2
Fore
SplineSet
189.599609375 237.974609375 m 0,0,1
 189.599609375 82.1748046875 189.599609375 82.1748046875 83.400390625 -40.375 c 1,2,-1
 21.2998046875 -40.375 l 1,3,4
 133.799804688 101.174804688 133.799804688 101.174804688 133.799804688 237.974609375 c 0,5,6
 133.799804688 375.724609375 133.799804688 375.724609375 20.400390625 515.375 c 1,7,-1
 82.5 515.375 l 1,8,9
 189.599609375 394.724609375 189.599609375 394.724609375 189.599609375 237.974609375 c 0,0,1
EndSplineSet
EndChar

StartChar: asterisk
Encoding: 42 42 11
Width: 325
VWidth: 968
Flags: W
LayerCount: 2
Fore
SplineSet
256.5 281.724609375 m 1,0,-1
 210.599609375 253.224609375 l 1,1,-1
 171 334.924804688 l 1,2,-1
 131.400390625 253.224609375 l 1,3,-1
 85.5 281.724609375 l 1,4,-1
 141.299804688 354.875 l 1,5,-1
 52.2001953125 346.325195312 l 1,6,-1
 52.2001953125 395.724609375 l 1,7,-1
 141.299804688 388.125 l 1,8,-1
 85.5 461.275390625 l 1,9,-1
 131.400390625 489.775390625 l 1,10,-1
 171 408.075195312 l 1,11,-1
 210.599609375 489.775390625 l 1,12,-1
 256.5 461.275390625 l 1,13,-1
 200.700195312 388.125 l 1,14,-1
 289.799804688 395.724609375 l 1,15,-1
 289.799804688 347.275390625 l 1,16,-1
 200.700195312 354.875 l 1,17,-1
 256.5 281.724609375 l 1,0,-1
EndSplineSet
EndChar

StartChar: plus
Encoding: 43 43 12
Width: 396
VWidth: 959
Flags: W
LayerCount: 2
Fore
SplineSet
236.849609375 9.0751953125 m 1,0,-1
 180.150390625 9.0751953125 l 1,1,-1
 180.150390625 158.224609375 l 1,2,-1
 46.9501953125 158.224609375 l 1,3,-1
 46.9501953125 210.474609375 l 1,4,-1
 180.150390625 210.474609375 l 1,5,-1
 180.150390625 353.924804688 l 1,6,-1
 236.849609375 353.924804688 l 1,7,-1
 236.849609375 210.474609375 l 1,8,-1
 370.049804688 210.474609375 l 1,9,-1
 370.049804688 158.224609375 l 1,10,-1
 236.849609375 158.224609375 l 1,11,-1
 236.849609375 9.0751953125 l 1,0,-1
EndSplineSet
EndChar

StartChar: comma
Encoding: 44 44 13
Width: 162
VWidth: 949
Flags: W
LayerCount: 2
Fore
SplineSet
131.400390625 34.775390625 m 0,0,1
 131.400390625 -59.275390625 131.400390625 -59.275390625 49.5 -102.025390625 c 1,2,-1
 30.599609375 -74.474609375 l 1,3,4
 78.2998046875 -44.0751953125 78.2998046875 -44.0751953125 85.5 -7.974609375 c 1,5,6
 42.2998046875 -5.125 42.2998046875 -5.125 42.2998046875 39.525390625 c 0,7,8
 42.2998046875 59.474609375 42.2998046875 59.474609375 55.349609375 73.25 c 128,-1,9
 68.400390625 87.025390625 68.400390625 87.025390625 86.400390625 87.025390625 c 0,10,11
 105.299804688 87.025390625 105.299804688 87.025390625 118.349609375 72.2998046875 c 128,-1,12
 131.400390625 57.5751953125 131.400390625 57.5751953125 131.400390625 34.775390625 c 0,0,1
EndSplineSet
EndChar

StartChar: hyphen
Encoding: 45 45 14
AltUni2: 0000ad.ffffffff.0
Width: 214
VWidth: 959
Flags: W
LayerCount: 2
Fore
SplineSet
203 158.349609375 m 1,0,-1
 23 158.349609375 l 1,1,-1
 23 209.650390625 l 1,2,-1
 203 209.650390625 l 1,3,-1
 203 158.349609375 l 1,0,-1
EndSplineSet
EndChar

StartChar: period
Encoding: 46 46 15
Width: 163
VWidth: 951
Flags: W
LayerCount: 2
Fore
SplineSet
129.200195312 39 m 256,0,1
 129.200195312 20 129.200195312 20 116.599609375 6.7001953125 c 128,-1,2
 104 -6.599609375 104 -6.599609375 86 -6.599609375 c 256,3,4
 68 -6.599609375 68 -6.599609375 55.400390625 6.7001953125 c 128,-1,5
 42.7998046875 20 42.7998046875 20 42.7998046875 39 c 256,6,7
 42.7998046875 58 42.7998046875 58 55.400390625 71.2998046875 c 128,-1,8
 68 84.599609375 68 84.599609375 86 84.599609375 c 256,9,10
 104 84.599609375 104 84.599609375 116.599609375 71.2998046875 c 128,-1,11
 129.200195312 58 129.200195312 58 129.200195312 39 c 256,0,1
EndSplineSet
EndChar

StartChar: slash
Encoding: 47 47 16
Width: 261
VWidth: 961
Flags: W
LayerCount: 2
Fore
SplineSet
44.150390625 -15 m 1,0,-1
 -13.4501953125 -15 l 1,1,-1
 226.849609375 479 l 1,2,-1
 284.450195312 479 l 1,3,-1
 44.150390625 -15 l 1,0,-1
EndSplineSet
EndChar

StartChar: zero
Encoding: 48 48 17
Width: 359
VWidth: 961
Flags: W
LayerCount: 2
Fore
SplineSet
332.950195312 235 m 256,0,1
 332.950195312 139.049804688 332.950195312 139.049804688 295.150390625 71.125 c 128,-1,2
 257.349609375 3.2001953125 257.349609375 3.2001953125 187.150390625 3.2001953125 c 0,3,4
 119.650390625 3.2001953125 119.650390625 3.2001953125 81.849609375 71.125 c 128,-1,5
 44.0498046875 139.049804688 44.0498046875 139.049804688 44.0498046875 235 c 256,6,7
 44.0498046875 330.950195312 44.0498046875 330.950195312 81.849609375 398.875 c 128,-1,8
 119.650390625 466.799804688 119.650390625 466.799804688 187.150390625 466.799804688 c 0,9,10
 257.349609375 466.799804688 257.349609375 466.799804688 295.150390625 398.875 c 128,-1,11
 332.950195312 330.950195312 332.950195312 330.950195312 332.950195312 235 c 256,0,1
275.349609375 235 m 256,12,13
 275.349609375 314.799804688 275.349609375 314.799804688 253.75 364.674804688 c 128,-1,14
 232.150390625 414.549804688 232.150390625 414.549804688 188.950195312 414.549804688 c 0,15,16
 144.849609375 414.549804688 144.849609375 414.549804688 123.25 364.674804688 c 128,-1,17
 101.650390625 314.799804688 101.650390625 314.799804688 101.650390625 235 c 256,18,19
 101.650390625 155.200195312 101.650390625 155.200195312 123.25 105.325195312 c 128,-1,20
 144.849609375 55.4501953125 144.849609375 55.4501953125 188.049804688 55.4501953125 c 0,21,22
 232.150390625 55.4501953125 232.150390625 55.4501953125 253.75 105.325195312 c 128,-1,23
 275.349609375 155.200195312 275.349609375 155.200195312 275.349609375 235 c 256,12,13
EndSplineSet
EndChar

StartChar: one
Encoding: 49 49 18
Width: 359
VWidth: 961
Flags: W
LayerCount: 2
Fore
SplineSet
295.150390625 11.9501953125 m 1,0,-1
 105.25 11.9501953125 l 1,1,-1
 105.25 60.400390625 l 1,2,-1
 171.849609375 60.400390625 l 1,3,-1
 171.849609375 375.799804688 l 1,4,-1
 115.150390625 325.450195312 l 1,5,-1
 81.849609375 364.400390625 l 1,6,-1
 196.150390625 466.049804688 l 1,7,8
 229.450195312 466.049804688 229.450195312 466.049804688 229.450195312 420.450195312 c 2,9,-1
 229.450195312 60.400390625 l 1,10,-1
 295.150390625 60.400390625 l 1,11,-1
 295.150390625 11.9501953125 l 1,0,-1
EndSplineSet
EndChar

StartChar: two
Encoding: 50 50 19
Width: 359
VWidth: 961
Flags: W
LayerCount: 2
Fore
SplineSet
332.400390625 11.9501953125 m 1,0,-1
 40.7998046875 11.9501953125 l 1,1,2
 48 53.75 48 53.75 56.099609375 80.349609375 c 1,3,4
 79.5 110.75 79.5 110.75 199.200195312 228.549804688 c 0,5,6
 273 301.700195312 273 301.700195312 273 348.25 c 0,7,8
 273 410.950195312 273 410.950195312 202.799804688 410.950195312 c 0,9,10
 133.5 410.950195312 133.5 410.950195312 120 326.400390625 c 1,11,-1
 66.900390625 340.650390625 l 1,12,13
 73.2001953125 401.450195312 73.2001953125 401.450195312 111.900390625 434.700195312 c 0,14,15
 147.900390625 466.049804688 147.900390625 466.049804688 203.700195312 466.049804688 c 0,16,17
 258.599609375 466.049804688 258.599609375 466.049804688 294.599609375 431.849609375 c 128,-1,18
 330.599609375 397.650390625 330.599609375 397.650390625 330.599609375 345.400390625 c 0,19,20
 330.599609375 298.849609375 330.599609375 298.849609375 283.799804688 239.950195312 c 0,21,22
 255 204.799804688 255 204.799804688 187.5 142.099609375 c 0,23,24
 127.200195312 86.0498046875 127.200195312 86.0498046875 113.700195312 65.150390625 c 1,25,-1
 343.200195312 65.150390625 l 1,26,-1
 332.400390625 11.9501953125 l 1,0,-1
EndSplineSet
EndChar

StartChar: three
Encoding: 51 51 20
Width: 358
VWidth: 961
Flags: W
LayerCount: 2
Fore
SplineSet
329.049804688 168.5 m 0,0,1
 329.049804688 94.400390625 329.049804688 94.400390625 279.099609375 49.275390625 c 128,-1,2
 229.150390625 4.150390625 229.150390625 4.150390625 148.150390625 4.150390625 c 0,3,4
 86.9501953125 4.150390625 86.9501953125 4.150390625 41.9501953125 44.0498046875 c 1,5,-1
 67.150390625 92.5 l 1,6,7
 107.650390625 62.099609375 107.650390625 62.099609375 157.150390625 62.099609375 c 0,8,9
 203.950195312 62.099609375 203.950195312 62.099609375 238.150390625 93.4501953125 c 128,-1,10
 272.349609375 124.799804688 272.349609375 124.799804688 272.349609375 166.599609375 c 0,11,12
 272.349609375 197 272.349609375 197 253.900390625 217.900390625 c 128,-1,13
 235.450195312 238.799804688 235.450195312 238.799804688 207.549804688 238.799804688 c 0,14,15
 174.25 238.799804688 174.25 238.799804688 143.650390625 211.25 c 1,16,-1
 119.349609375 253.049804688 l 1,17,18
 163.450195312 279.650390625 163.450195312 279.650390625 197.650390625 312.900390625 c 0,19,20
 238.150390625 352.799804688 238.150390625 352.799804688 238.150390625 377.5 c 0,21,22
 238.150390625 414.549804688 238.150390625 414.549804688 188.650390625 414.549804688 c 0,23,24
 156.25 414.549804688 156.25 414.549804688 128.799804688 392.700195312 c 128,-1,25
 101.349609375 370.849609375 101.349609375 370.849609375 89.650390625 341.400390625 c 1,26,-1
 49.150390625 363.25 l 1,27,28
 66.25 410.75 66.25 410.75 104.5 438.299804688 c 128,-1,29
 142.75 465.849609375 142.75 465.849609375 191.349609375 465.849609375 c 0,30,31
 234.549804688 465.849609375 234.549804688 465.849609375 263.349609375 442.099609375 c 128,-1,32
 292.150390625 418.349609375 292.150390625 418.349609375 292.150390625 378.450195312 c 0,33,34
 292.150390625 339.5 292.150390625 339.5 236.349609375 289.150390625 c 1,35,36
 278.650390625 280.599609375 278.650390625 280.599609375 303.849609375 248.299804688 c 128,-1,37
 329.049804688 216 329.049804688 216 329.049804688 168.5 c 0,0,1
EndSplineSet
EndChar

StartChar: four
Encoding: 52 52 21
Width: 359
VWidth: 962
Flags: W
LayerCount: 2
Fore
SplineSet
225.349609375 164.224609375 m 1,0,-1
 225.349609375 396.025390625 l 1,1,2
 182.150390625 366.575195312 182.150390625 366.575195312 147.5 300.075195312 c 128,-1,3
 112.849609375 233.575195312 112.849609375 233.575195312 101.150390625 164.224609375 c 1,4,-1
 225.349609375 164.224609375 l 1,0,-1
282.950195312 12.224609375 m 1,5,-1
 225.349609375 12.224609375 l 1,6,-1
 225.349609375 112.924804688 l 1,7,-1
 44.4501953125 112.924804688 l 1,8,9
 44.4501953125 231.674804688 44.4501953125 231.674804688 115.549804688 349.950195312 c 128,-1,10
 186.650390625 468.224609375 186.650390625 468.224609375 282.950195312 476.775390625 c 1,11,-1
 282.950195312 164.224609375 l 1,12,-1
 340.549804688 164.224609375 l 1,13,-1
 334.25 112.924804688 l 1,14,-1
 282.950195312 112.924804688 l 1,15,-1
 282.950195312 12.224609375 l 1,5,-1
EndSplineSet
EndChar

StartChar: five
Encoding: 53 53 22
Width: 358
VWidth: 961
Flags: W
LayerCount: 2
Fore
SplineSet
330 171.299804688 m 0,0,1
 330 97.2001953125 330 97.2001953125 280.5 50.650390625 c 128,-1,2
 231 4.099609375 231 4.099609375 152.700195312 4.099609375 c 0,3,4
 86.099609375 4.099609375 86.099609375 4.099609375 42 44.9501953125 c 1,5,-1
 66.2998046875 88.650390625 l 1,6,7
 116.700195312 55.400390625 116.700195312 55.400390625 159 55.400390625 c 0,8,9
 205.799804688 55.400390625 205.799804688 55.400390625 239.099609375 88.1748046875 c 128,-1,10
 272.400390625 120.950195312 272.400390625 120.950195312 272.400390625 170.349609375 c 0,11,12
 272.400390625 211.200195312 272.400390625 211.200195312 247.200195312 233.525390625 c 128,-1,13
 222 255.849609375 222 255.849609375 179.700195312 255.849609375 c 256,14,15
 137.400390625 255.849609375 137.400390625 255.849609375 124.799804688 224.5 c 1,16,-1
 88.7998046875 222.599609375 l 1,17,-1
 104.099609375 463.900390625 l 1,18,-1
 318.299804688 463.900390625 l 1,19,-1
 308.400390625 412.599609375 l 1,20,-1
 159 412.599609375 l 1,21,-1
 152.700195312 302.400390625 l 1,22,23
 168.900390625 310 168.900390625 310 191.400390625 310 c 0,24,25
 250.799804688 310 250.799804688 310 290.400390625 271.049804688 c 128,-1,26
 330 232.099609375 330 232.099609375 330 171.299804688 c 0,0,1
EndSplineSet
EndChar

StartChar: six
Encoding: 54 54 23
Width: 359
VWidth: 961
Flags: W
LayerCount: 2
Fore
SplineSet
325.75 154.450195312 m 0,0,1
 325.75 90.7998046875 325.75 90.7998046875 289.299804688 47.5751953125 c 128,-1,2
 252.849609375 4.349609375 252.849609375 4.349609375 196.150390625 4.349609375 c 0,3,4
 133.150390625 4.349609375 133.150390625 4.349609375 92.2001953125 50.900390625 c 128,-1,5
 51.25 97.4501953125 51.25 97.4501953125 51.25 174.400390625 c 0,6,7
 51.25 283.650390625 51.25 283.650390625 119.650390625 367.25 c 128,-1,8
 188.049804688 450.849609375 188.049804688 450.849609375 297.849609375 473.650390625 c 1,9,-1
 303.25 426.150390625 l 1,10,11
 246.549804688 410 246.549804688 410 195.25 367.724609375 c 128,-1,12
 143.950195312 325.450195312 143.950195312 325.450195312 121.450195312 273.200195312 c 1,13,14
 149.349609375 302.650390625 149.349609375 302.650390625 197.950195312 302.650390625 c 0,15,16
 251.950195312 302.650390625 251.950195312 302.650390625 288.849609375 259.900390625 c 128,-1,17
 325.75 217.150390625 325.75 217.150390625 325.75 154.450195312 c 0,0,1
273.549804688 154.450195312 m 256,18,19
 273.549804688 192.450195312 273.549804688 192.450195312 250.150390625 221.900390625 c 128,-1,20
 226.75 251.349609375 226.75 251.349609375 194.349609375 251.349609375 c 0,21,22
 160.150390625 251.349609375 160.150390625 251.349609375 136.299804688 223.325195312 c 128,-1,23
 112.450195312 195.299804688 112.450195312 195.299804688 112.450195312 154.450195312 c 0,24,25
 112.450195312 114.549804688 112.450195312 114.549804688 136.299804688 86.0498046875 c 128,-1,26
 160.150390625 57.5498046875 160.150390625 57.5498046875 194.349609375 57.5498046875 c 0,27,28
 226.75 57.5498046875 226.75 57.5498046875 250.150390625 87 c 128,-1,29
 273.549804688 116.450195312 273.549804688 116.450195312 273.549804688 154.450195312 c 256,18,19
EndSplineSet
EndChar

StartChar: seven
Encoding: 55 55 24
Width: 359
VWidth: 961
Flags: W
LayerCount: 2
Fore
SplineSet
196.400390625 11.900390625 m 1,0,-1
 137.900390625 11.900390625 l 1,1,2
 145.099609375 276.950195312 145.099609375 276.950195312 264.799804688 412.799804688 c 1,3,-1
 44.2998046875 412.799804688 l 1,4,-1
 57.7998046875 464.099609375 l 1,5,-1
 337.700195312 464.099609375 l 1,6,-1
 329.599609375 412.799804688 l 1,7,8
 260.299804688 321.599609375 260.299804688 321.599609375 230.599609375 238 c 0,9,10
 196.400390625 142.049804688 196.400390625 142.049804688 196.400390625 11.900390625 c 1,0,-1
EndSplineSet
EndChar

StartChar: eight
Encoding: 56 56 25
Width: 359
VWidth: 961
Flags: W
LayerCount: 2
Fore
SplineSet
276.299804688 136.224609375 m 0,0,1
 276.299804688 171.375 276.299804688 171.375 253.799804688 199.875 c 128,-1,2
 231.299804688 228.375 231.299804688 228.375 189 231.224609375 c 1,3,4
 146.700195312 228.375 146.700195312 228.375 124.200195312 199.875 c 128,-1,5
 101.700195312 171.375 101.700195312 171.375 101.700195312 136.224609375 c 0,6,7
 101.700195312 99.1748046875 101.700195312 99.1748046875 126 77.3251953125 c 128,-1,8
 150.299804688 55.474609375 150.299804688 55.474609375 189 55.474609375 c 256,9,10
 227.700195312 55.474609375 227.700195312 55.474609375 252 77.3251953125 c 128,-1,11
 276.299804688 99.1748046875 276.299804688 99.1748046875 276.299804688 136.224609375 c 0,0,1
263.700195312 349.025390625 m 0,12,13
 263.700195312 377.525390625 263.700195312 377.525390625 243 396.525390625 c 128,-1,14
 222.299804688 415.525390625 222.299804688 415.525390625 189 415.525390625 c 256,15,16
 155.700195312 415.525390625 155.700195312 415.525390625 135 396.525390625 c 128,-1,17
 114.299804688 377.525390625 114.299804688 377.525390625 114.299804688 349.025390625 c 0,18,19
 114.299804688 302.474609375 114.299804688 302.474609375 188.099609375 280.625 c 1,20,21
 263.700195312 302.474609375 263.700195312 302.474609375 263.700195312 349.025390625 c 0,12,13
331.200195312 139.075195312 m 0,22,23
 331.200195312 76.375 331.200195312 76.375 292.5 40.275390625 c 128,-1,24
 253.799804688 4.1748046875 253.799804688 4.1748046875 188.099609375 4.1748046875 c 0,25,26
 123.299804688 4.1748046875 123.299804688 4.1748046875 85.0498046875 40.275390625 c 128,-1,27
 46.7998046875 76.375 46.7998046875 76.375 46.7998046875 139.075195312 c 0,28,29
 46.7998046875 177.075195312 46.7998046875 177.075195312 67.0498046875 209.375 c 128,-1,30
 87.2998046875 241.674804688 87.2998046875 241.674804688 118.799804688 256.875 c 1,31,32
 60.2998046875 290.125 60.2998046875 290.125 60.2998046875 346.174804688 c 0,33,34
 60.2998046875 398.424804688 60.2998046875 398.424804688 96.75 432.625 c 128,-1,35
 133.200195312 466.825195312 133.200195312 466.825195312 189 466.825195312 c 256,36,37
 244.799804688 466.825195312 244.799804688 466.825195312 281.25 432.625 c 128,-1,38
 317.700195312 398.424804688 317.700195312 398.424804688 317.700195312 346.174804688 c 0,39,40
 317.700195312 290.125 317.700195312 290.125 259.200195312 256.875 c 1,41,42
 290.700195312 241.674804688 290.700195312 241.674804688 310.950195312 209.375 c 128,-1,43
 331.200195312 177.075195312 331.200195312 177.075195312 331.200195312 139.075195312 c 0,22,23
EndSplineSet
EndChar

StartChar: nine
Encoding: 57 57 26
Width: 359
VWidth: 961
Flags: W
LayerCount: 2
Fore
SplineSet
325.75 295.599609375 m 0,0,1
 325.75 186.349609375 325.75 186.349609375 257.349609375 102.75 c 128,-1,2
 188.950195312 19.150390625 188.950195312 19.150390625 79.150390625 -3.650390625 c 1,3,-1
 73.75 43.849609375 l 1,4,5
 128.650390625 59.0498046875 128.650390625 59.0498046875 183.099609375 104.650390625 c 128,-1,6
 237.549804688 150.25 237.549804688 150.25 259.150390625 197.75 c 1,7,8
 233.049804688 167.349609375 233.049804688 167.349609375 179.049804688 167.349609375 c 256,9,10
 125.049804688 167.349609375 125.049804688 167.349609375 88.150390625 210.099609375 c 128,-1,11
 51.25 252.849609375 51.25 252.849609375 51.25 315.549804688 c 0,12,13
 51.25 379.200195312 51.25 379.200195312 87.7001953125 422.424804688 c 128,-1,14
 124.150390625 465.650390625 124.150390625 465.650390625 180.849609375 465.650390625 c 0,15,16
 243.849609375 465.650390625 243.849609375 465.650390625 284.799804688 419.099609375 c 128,-1,17
 325.75 372.549804688 325.75 372.549804688 325.75 295.599609375 c 0,0,1
264.549804688 315.549804688 m 0,18,19
 264.549804688 355.450195312 264.549804688 355.450195312 240.700195312 383.950195312 c 128,-1,20
 216.849609375 412.450195312 216.849609375 412.450195312 182.650390625 412.450195312 c 0,21,22
 150.25 412.450195312 150.25 412.450195312 126.849609375 383 c 128,-1,23
 103.450195312 353.549804688 103.450195312 353.549804688 103.450195312 315.549804688 c 256,24,25
 103.450195312 277.549804688 103.450195312 277.549804688 126.849609375 248.099609375 c 128,-1,26
 150.25 218.650390625 150.25 218.650390625 182.650390625 218.650390625 c 0,27,28
 216.849609375 218.650390625 216.849609375 218.650390625 240.700195312 246.674804688 c 128,-1,29
 264.549804688 274.700195312 264.549804688 274.700195312 264.549804688 315.549804688 c 0,18,19
EndSplineSet
EndChar

StartChar: colon
Encoding: 58 58 27
Width: 163
VWidth: 958
Flags: W
LayerCount: 2
Fore
SplineSet
129.200195312 45.150390625 m 256,0,1
 129.200195312 26.150390625 129.200195312 26.150390625 116.599609375 12.849609375 c 128,-1,2
 104 -0.4501953125 104 -0.4501953125 86 -0.4501953125 c 256,3,4
 68 -0.4501953125 68 -0.4501953125 55.400390625 12.849609375 c 128,-1,5
 42.7998046875 26.150390625 42.7998046875 26.150390625 42.7998046875 45.150390625 c 256,6,7
 42.7998046875 64.150390625 42.7998046875 64.150390625 55.400390625 77.4501953125 c 128,-1,8
 68 90.75 68 90.75 86 90.75 c 256,9,10
 104 90.75 104 90.75 116.599609375 77.4501953125 c 128,-1,11
 129.200195312 64.150390625 129.200195312 64.150390625 129.200195312 45.150390625 c 256,0,1
129.200195312 278.849609375 m 256,12,13
 129.200195312 259.849609375 129.200195312 259.849609375 116.599609375 246.549804688 c 128,-1,14
 104 233.25 104 233.25 86 233.25 c 256,15,16
 68 233.25 68 233.25 55.400390625 246.549804688 c 128,-1,17
 42.7998046875 259.849609375 42.7998046875 259.849609375 42.7998046875 278.849609375 c 256,18,19
 42.7998046875 297.849609375 42.7998046875 297.849609375 55.400390625 311.150390625 c 128,-1,20
 68 324.450195312 68 324.450195312 86 324.450195312 c 256,21,22
 104 324.450195312 104 324.450195312 116.599609375 311.150390625 c 128,-1,23
 129.200195312 297.849609375 129.200195312 297.849609375 129.200195312 278.849609375 c 256,12,13
EndSplineSet
EndChar

StartChar: semicolon
Encoding: 59 59 28
Width: 162
VWidth: 955
Flags: W
LayerCount: 2
Fore
SplineSet
128.700195312 276.400390625 m 256,0,1
 128.700195312 257.400390625 128.700195312 257.400390625 116.099609375 244.099609375 c 128,-1,2
 103.5 230.799804688 103.5 230.799804688 85.5 230.799804688 c 256,3,4
 67.5 230.799804688 67.5 230.799804688 54.900390625 244.099609375 c 128,-1,5
 42.2998046875 257.400390625 42.2998046875 257.400390625 42.2998046875 276.400390625 c 256,6,7
 42.2998046875 295.400390625 42.2998046875 295.400390625 54.900390625 308.700195312 c 128,-1,8
 67.5 322 67.5 322 85.5 322 c 256,9,10
 103.5 322 103.5 322 116.099609375 308.700195312 c 128,-1,11
 128.700195312 295.400390625 128.700195312 295.400390625 128.700195312 276.400390625 c 256,0,1
131.400390625 40.7998046875 m 0,12,13
 131.400390625 -53.25 131.400390625 -53.25 49.5 -96 c 1,14,-1
 30.599609375 -68.4501953125 l 1,15,16
 78.2998046875 -38.0498046875 78.2998046875 -38.0498046875 85.5 -1.9501953125 c 1,17,18
 42.2998046875 0.900390625 42.2998046875 0.900390625 42.2998046875 45.5498046875 c 0,19,20
 42.2998046875 65.5 42.2998046875 65.5 55.349609375 79.275390625 c 128,-1,21
 68.400390625 93.0498046875 68.400390625 93.0498046875 86.400390625 93.0498046875 c 0,22,23
 105.299804688 93.0498046875 105.299804688 93.0498046875 118.349609375 78.3251953125 c 128,-1,24
 131.400390625 63.599609375 131.400390625 63.599609375 131.400390625 40.7998046875 c 0,12,13
EndSplineSet
EndChar

StartChar: less
Encoding: 60 60 29
Width: 396
VWidth: 959
Flags: W
LayerCount: 2
Fore
SplineSet
363.75 0 m 1,0,-1
 53.25 171 l 1,1,-1
 53.25 209.950195312 l 1,2,-1
 363.75 380 l 1,3,-1
 363.75 320.150390625 l 1,4,-1
 125.25 190 l 1,5,-1
 363.75 59.849609375 l 1,6,-1
 363.75 0 l 1,0,-1
EndSplineSet
EndChar

StartChar: equal
Encoding: 61 61 30
Width: 396
VWidth: 959
Flags: W
LayerCount: 2
Fore
SplineSet
354.75 221.150390625 m 1,0,-1
 62.25 221.150390625 l 1,1,-1
 62.25 270.549804688 l 1,2,-1
 354.75 270.549804688 l 1,3,-1
 354.75 221.150390625 l 1,0,-1
354.75 101.450195312 m 1,4,-1
 62.25 101.450195312 l 1,5,-1
 62.25 151.799804688 l 1,6,-1
 354.75 151.799804688 l 1,7,-1
 354.75 101.450195312 l 1,4,-1
EndSplineSet
EndChar

StartChar: greater
Encoding: 62 62 31
Width: 396
VWidth: 959
Flags: W
LayerCount: 2
Fore
SplineSet
363.75 171 m 1,0,-1
 53.25 0 l 1,1,-1
 53.25 59.849609375 l 1,2,-1
 292.650390625 190.950195312 l 1,3,-1
 53.25 320.150390625 l 1,4,-1
 53.25 380 l 1,5,-1
 363.75 209.950195312 l 1,6,-1
 363.75 171 l 1,0,-1
EndSplineSet
EndChar

StartChar: question
Encoding: 63 63 32
Width: 274
VWidth: 961
Flags: W
LayerCount: 2
Fore
SplineSet
252.950195312 364.299804688 m 0,0,1
 252.950195312 313 252.950195312 313 193.549804688 249.349609375 c 0,2,3
 153.049804688 206.599609375 153.049804688 206.599609375 152.150390625 162.900390625 c 0,4,5
 152.150390625 148.650390625 152.150390625 148.650390625 158.450195312 123 c 1,6,-1
 107.150390625 123 l 1,7,8
 98.150390625 151.5 98.150390625 151.5 98.150390625 165.75 c 0,9,10
 98.150390625 212.299804688 98.150390625 212.299804688 147.200195312 272.150390625 c 128,-1,11
 196.25 332 196.25 332 196.25 362.400390625 c 0,12,13
 196.25 416.549804688 196.25 416.549804688 133.25 416.549804688 c 0,14,15
 94.5498046875 416.549804688 94.5498046875 416.549804688 58.5498046875 389 c 1,16,-1
 36.0498046875 435.549804688 l 1,17,18
 89.150390625 470.700195312 89.150390625 470.700195312 139.549804688 470.700195312 c 0,19,20
 190.849609375 470.700195312 190.849609375 470.700195312 221.900390625 441.724609375 c 128,-1,21
 252.950195312 412.75 252.950195312 412.75 252.950195312 364.299804688 c 0,0,1
179.150390625 48.900390625 m 256,22,23
 179.150390625 29.900390625 179.150390625 29.900390625 166.549804688 16.599609375 c 128,-1,24
 153.950195312 3.2998046875 153.950195312 3.2998046875 135.950195312 3.2998046875 c 256,25,26
 117.950195312 3.2998046875 117.950195312 3.2998046875 105.349609375 16.599609375 c 128,-1,27
 92.75 29.900390625 92.75 29.900390625 92.75 48.900390625 c 256,28,29
 92.75 67.900390625 92.75 67.900390625 105.349609375 81.2001953125 c 128,-1,30
 117.950195312 94.5 117.950195312 94.5 135.950195312 94.5 c 256,31,32
 153.950195312 94.5 153.950195312 94.5 166.549804688 81.2001953125 c 128,-1,33
 179.150390625 67.900390625 179.150390625 67.900390625 179.150390625 48.900390625 c 256,22,23
EndSplineSet
EndChar

StartChar: at
Encoding: 64 64 33
Width: 543
VWidth: 957
Flags: W
LayerCount: 2
Fore
SplineSet
514.5 175.674804688 m 0,0,1
 514.5 99.6748046875 514.5 99.6748046875 462.299804688 54.0751953125 c 0,2,3
 416.400390625 14.1748046875 416.400390625 14.1748046875 353.400390625 14.1748046875 c 1,4,-1
 348 48.375 l 1,5,6
 305.700195312 8.474609375 305.700195312 8.474609375 251.700195312 8.474609375 c 0,7,8
 213 8.474609375 213 8.474609375 185.549804688 31.75 c 128,-1,9
 158.099609375 55.025390625 158.099609375 55.025390625 158.099609375 90.1748046875 c 0,10,11
 158.099609375 193.724609375 158.099609375 193.724609375 337.200195312 198.474609375 c 1,12,13
 337.200195312 270.674804688 337.200195312 270.674804688 272.400390625 270.674804688 c 0,14,15
 237.299804688 270.674804688 237.299804688 270.674804688 207.599609375 250.724609375 c 1,16,-1
 192.299804688 283.974609375 l 1,17,18
 235.5 310.575195312 235.5 310.575195312 286.799804688 310.575195312 c 0,19,20
 334.5 310.575195312 334.5 310.575195312 360.150390625 277.325195312 c 128,-1,21
 385.799804688 244.075195312 385.799804688 244.075195312 385.799804688 187.075195312 c 2,22,-1
 385.799804688 88.275390625 l 2,23,24
 385.799804688 66.4248046875 385.799804688 66.4248046875 386.700195312 57.875 c 1,25,-1
 397.5 57.875 l 1,26,27
 429 67.375 429 67.375 450.599609375 101.099609375 c 128,-1,28
 472.200195312 134.825195312 472.200195312 134.825195312 472.200195312 173.775390625 c 0,29,30
 472.200195312 246.924804688 472.200195312 246.924804688 425.400390625 295.849609375 c 128,-1,31
 378.599609375 344.775390625 378.599609375 344.775390625 300.299804688 344.775390625 c 0,32,33
 212.099609375 344.775390625 212.099609375 344.775390625 156.75 285.400390625 c 128,-1,34
 101.400390625 226.025390625 101.400390625 226.025390625 101.400390625 136.724609375 c 0,35,36
 101.400390625 58.8251953125 101.400390625 58.8251953125 150.450195312 7.525390625 c 128,-1,37
 199.5 -43.775390625 199.5 -43.775390625 271.5 -43.775390625 c 0,38,39
 326.400390625 -43.775390625 326.400390625 -43.775390625 381.299804688 -13.375 c 1,40,-1
 398.400390625 -51.375 l 1,41,42
 335.400390625 -82.724609375 335.400390625 -82.724609375 268.799804688 -82.724609375 c 0,43,44
 180.599609375 -82.724609375 180.599609375 -82.724609375 119.400390625 -21.9248046875 c 0,45,46
 55.5 39.8251953125 55.5 39.8251953125 55.5 133.875 c 0,47,48
 55.5 241.224609375 55.5 241.224609375 126.599609375 312.474609375 c 128,-1,49
 197.700195312 383.724609375 197.700195312 383.724609375 304.799804688 383.724609375 c 0,50,51
 396.599609375 383.724609375 396.599609375 383.724609375 455.549804688 325.299804688 c 128,-1,52
 514.5 266.875 514.5 266.875 514.5 175.674804688 c 0,0,1
339.900390625 109.174804688 m 2,53,-1
 339.900390625 162.375 l 1,54,55
 203.099609375 156.674804688 203.099609375 156.674804688 203.099609375 94.9248046875 c 0,56,57
 203.099609375 50.275390625 203.099609375 50.275390625 252.599609375 50.275390625 c 0,58,59
 285.900390625 50.275390625 285.900390625 50.275390625 311.099609375 65.474609375 c 0,60,61
 339.900390625 82.5751953125 339.900390625 82.5751953125 339.900390625 109.174804688 c 2,53,-1
EndSplineSet
EndChar

StartChar: A
Encoding: 65 65 34
Width: 428
VWidth: 962
Flags: W
LayerCount: 2
Fore
SplineSet
429.349609375 12.0751953125 m 1,0,-1
 367.25 12.0751953125 l 1,1,-1
 310.549804688 163.125 l 1,2,-1
 138.650390625 163.125 l 1,3,-1
 82.849609375 12.0751953125 l 1,4,-1
 21.650390625 12.0751953125 l 1,5,-1
 201.650390625 470.924804688 l 1,6,-1
 250.25 470.924804688 l 1,7,-1
 429.349609375 12.0751953125 l 1,0,-1
288.950195312 214.424804688 m 1,8,-1
 225.950195312 402.525390625 l 1,9,-1
 159.349609375 214.424804688 l 1,10,-1
 288.950195312 214.424804688 l 1,8,-1
EndSplineSet
EndChar

StartChar: B
Encoding: 66 66 35
Width: 377
VWidth: 961
Flags: W
LayerCount: 2
Fore
SplineSet
350.200195312 143 m 0,0,1
 350.200195312 6.2001953125 350.200195312 6.2001953125 159.400390625 6.2001953125 c 0,2,3
 118.900390625 6.2001953125 118.900390625 6.2001953125 65.7998046875 18.5498046875 c 1,4,-1
 65.7998046875 455.549804688 l 1,5,6
 121.599609375 469.799804688 121.599609375 469.799804688 168.400390625 469.799804688 c 0,7,8
 333.099609375 469.799804688 333.099609375 469.799804688 333.099609375 350.099609375 c 0,9,10
 333.099609375 289.299804688 333.099609375 289.299804688 279.099609375 254.150390625 c 1,11,12
 350.200195312 219 350.200195312 219 350.200195312 143 c 0,0,1
276.400390625 349.150390625 m 0,13,14
 276.400390625 417.549804688 276.400390625 417.549804688 168.400390625 417.549804688 c 0,15,16
 149.5 417.549804688 149.5 417.549804688 122.5 414.700195312 c 1,17,-1
 122.5 276 l 1,18,-1
 186.400390625 276 l 2,19,20
 226 276 226 276 251.200195312 295.474609375 c 128,-1,21
 276.400390625 314.950195312 276.400390625 314.950195312 276.400390625 349.150390625 c 0,13,14
294.400390625 142.049804688 m 0,22,23
 294.400390625 187.650390625 294.400390625 187.650390625 253 209.5 c 0,24,25
 221.5 225.650390625 221.5 225.650390625 174.700195312 225.650390625 c 2,26,-1
 122.5 225.650390625 l 1,27,-1
 122.5 60.349609375 l 1,28,29
 137.799804688 57.5 137.799804688 57.5 167.5 57.5 c 0,30,31
 226 57.5 226 57.5 260.200195312 79.349609375 c 128,-1,32
 294.400390625 101.200195312 294.400390625 101.200195312 294.400390625 142.049804688 c 0,22,23
EndSplineSet
EndChar

StartChar: C
Encoding: 67 67 36
Width: 410
VWidth: 961
Flags: W
LayerCount: 2
Fore
SplineSet
390.799804688 35.650390625 m 1,0,1
 325.099609375 5.25 325.099609375 5.25 234.200195312 5.25 c 0,2,3
 148.700195312 5.25 148.700195312 5.25 96.9501953125 69.375 c 128,-1,4
 45.2001953125 133.5 45.2001953125 133.5 45.2001953125 237.049804688 c 0,5,6
 45.2001953125 339.650390625 45.2001953125 339.650390625 95.599609375 402.349609375 c 0,7,8
 151.400390625 470.75 151.400390625 470.75 251.299804688 470.75 c 0,9,10
 327.799804688 470.75 327.799804688 470.75 390.799804688 443.200195312 c 1,11,-1
 372.799804688 395.700195312 l 1,12,13
 318.799804688 419.450195312 318.799804688 419.450195312 253.099609375 419.450195312 c 0,14,15
 170.299804688 419.450195312 170.299804688 419.450195312 131.599609375 354.849609375 c 0,16,17
 102.799804688 307.349609375 102.799804688 307.349609375 102.799804688 235.150390625 c 0,18,19
 102.799804688 168.650390625 102.799804688 168.650390625 134.299804688 119.25 c 0,20,21
 173.900390625 56.5498046875 173.900390625 56.5498046875 245.900390625 56.5498046875 c 0,22,23
 320.599609375 56.5498046875 320.599609375 56.5498046875 375.5 85.0498046875 c 1,24,-1
 390.799804688 35.650390625 l 1,0,1
EndSplineSet
EndChar

StartChar: D
Encoding: 68 68 37
Width: 437
VWidth: 961
Flags: W
LayerCount: 2
Fore
SplineSet
413.849609375 247.525390625 m 0,0,1
 413.849609375 144.924804688 413.849609375 144.924804688 367.049804688 83.1748046875 c 0,2,3
 309.450195312 8.125 309.450195312 8.125 189.75 8.125 c 0,4,5
 152.849609375 8.125 152.849609375 8.125 69.150390625 17.625 c 1,6,-1
 69.150390625 456.525390625 l 1,7,8
 171.75 468.875 171.75 468.875 207.75 468.875 c 0,9,10
 317.549804688 468.875 317.549804688 468.875 370.650390625 399.525390625 c 0,11,12
 413.849609375 343.474609375 413.849609375 343.474609375 413.849609375 247.525390625 c 0,0,1
356.25 247.525390625 m 0,13,14
 356.25 417.575195312 356.25 417.575195312 205.049804688 417.575195312 c 0,15,16
 179.849609375 417.575195312 179.849609375 417.575195312 125.849609375 411.875 c 1,17,-1
 125.849609375 62.275390625 l 1,18,19
 155.549804688 59.4248046875 155.549804688 59.4248046875 200.549804688 59.4248046875 c 0,20,21
 287.849609375 59.4248046875 287.849609375 59.4248046875 327.450195312 124.974609375 c 0,22,23
 356.25 173.424804688 356.25 173.424804688 356.25 247.525390625 c 0,13,14
EndSplineSet
EndChar

StartChar: E
Encoding: 69 69 38
Width: 341
VWidth: 961
Flags: W
LayerCount: 2
Fore
SplineSet
318.849609375 11.900390625 m 1,0,-1
 64.150390625 11.900390625 l 1,1,-1
 64.150390625 464.099609375 l 1,2,-1
 318.849609375 464.099609375 l 1,3,-1
 318.849609375 412.799804688 l 1,4,-1
 120.849609375 412.799804688 l 1,5,-1
 120.849609375 276 l 1,6,-1
 297.25 276 l 1,7,-1
 297.25 224.700195312 l 1,8,-1
 120.849609375 224.700195312 l 1,9,-1
 120.849609375 63.2001953125 l 1,10,-1
 318.849609375 63.2001953125 l 1,11,-1
 318.849609375 11.900390625 l 1,0,-1
EndSplineSet
EndChar

StartChar: F
Encoding: 70 70 39
Width: 341
VWidth: 961
Flags: W
LayerCount: 2
Fore
SplineSet
121.349609375 11.900390625 m 1,0,-1
 64.650390625 11.900390625 l 1,1,-1
 64.650390625 464.099609375 l 1,2,-1
 328.349609375 464.099609375 l 1,3,-1
 328.349609375 412.799804688 l 1,4,-1
 121.349609375 412.799804688 l 1,5,-1
 121.349609375 270.299804688 l 1,6,-1
 315.75 270.299804688 l 1,7,-1
 315.75 219.950195312 l 1,8,-1
 121.349609375 219.950195312 l 1,9,-1
 121.349609375 11.900390625 l 1,0,-1
EndSplineSet
EndChar

StartChar: G
Encoding: 71 71 40
Width: 430
VWidth: 961
Flags: W
LayerCount: 2
Fore
SplineSet
394.599609375 22.349609375 m 1,0,-1
 365.799804688 29.9501953125 l 1,1,2
 313.599609375 5.25 313.599609375 5.25 234.400390625 5.25 c 0,3,4
 148.900390625 5.25 148.900390625 5.25 97.150390625 69.375 c 128,-1,5
 45.400390625 133.5 45.400390625 133.5 45.400390625 237.049804688 c 0,6,7
 45.400390625 339.650390625 45.400390625 339.650390625 95.7998046875 402.349609375 c 0,8,9
 151.599609375 470.75 151.599609375 470.75 251.5 470.75 c 0,10,11
 328 470.75 328 470.75 391 443.200195312 c 1,12,-1
 373 395.700195312 l 1,13,14
 319 419.450195312 319 419.450195312 253.299804688 419.450195312 c 0,15,16
 170.5 419.450195312 170.5 419.450195312 131.799804688 354.849609375 c 0,17,18
 103 307.349609375 103 307.349609375 103 235.150390625 c 0,19,20
 103 168.650390625 103 168.650390625 134.5 119.25 c 0,21,22
 174.099609375 56.5498046875 174.099609375 56.5498046875 246.099609375 56.5498046875 c 0,23,24
 299.200195312 56.5498046875 299.200195312 56.5498046875 337.900390625 71.75 c 1,25,-1
 337.900390625 200 l 1,26,-1
 229.900390625 200 l 1,27,-1
 229.900390625 250.349609375 l 1,28,-1
 394.599609375 250.349609375 l 1,29,-1
 394.599609375 22.349609375 l 1,0,-1
EndSplineSet
EndChar

StartChar: H
Encoding: 72 72 41
Width: 448
VWidth: 961
Flags: W
LayerCount: 2
Fore
SplineSet
403.400390625 11.900390625 m 1,0,-1
 346.700195312 11.900390625 l 1,1,-1
 346.700195312 226.599609375 l 1,2,-1
 125.299804688 226.599609375 l 1,3,-1
 125.299804688 11.900390625 l 1,4,-1
 68.599609375 11.900390625 l 1,5,-1
 68.599609375 464.099609375 l 1,6,-1
 125.299804688 464.099609375 l 1,7,-1
 125.299804688 277.900390625 l 1,8,-1
 346.700195312 277.900390625 l 1,9,-1
 346.700195312 464.099609375 l 1,10,-1
 403.400390625 464.099609375 l 1,11,-1
 403.400390625 11.900390625 l 1,0,-1
EndSplineSet
EndChar

StartChar: I
Encoding: 73 73 42
Width: 154
VWidth: 961
Flags: W
LayerCount: 2
Fore
SplineSet
109.849609375 11.900390625 m 1,0,-1
 53.150390625 11.900390625 l 1,1,-1
 53.150390625 464.099609375 l 1,2,-1
 109.849609375 464.099609375 l 1,3,-1
 109.849609375 11.900390625 l 1,0,-1
EndSplineSet
EndChar

StartChar: J
Encoding: 74 74 43
Width: 265
VWidth: 961
Flags: W
LayerCount: 2
Fore
SplineSet
220.099609375 163.674804688 m 2,0,1
 220.099609375 3.125 220.099609375 3.125 82.400390625 3.125 c 0,2,3
 47.2998046875 3.125 47.2998046875 3.125 5.900390625 21.1748046875 c 1,4,-1
 21.2001953125 70.5751953125 l 1,5,6
 47.2998046875 54.4248046875 47.2998046875 54.4248046875 82.400390625 54.4248046875 c 0,7,8
 124.700195312 54.4248046875 124.700195312 54.4248046875 144.049804688 81.025390625 c 128,-1,9
 163.400390625 107.625 163.400390625 107.625 163.400390625 173.174804688 c 2,10,-1
 163.400390625 463.875 l 1,11,-1
 220.099609375 463.875 l 1,12,-1
 220.099609375 163.674804688 l 2,0,1
EndSplineSet
EndChar

StartChar: K
Encoding: 75 75 44
Width: 393
VWidth: 961
Flags: W
LayerCount: 2
Fore
SplineSet
399.599609375 26.1748046875 m 1,0,-1
 345.599609375 5.275390625 l 1,1,-1
 160.200195312 229.474609375 l 1,2,-1
 125.099609375 193.375 l 1,3,-1
 125.099609375 11.9248046875 l 1,4,-1
 68.400390625 11.9248046875 l 1,5,-1
 68.400390625 464.125 l 1,6,-1
 125.099609375 464.125 l 1,7,-1
 125.099609375 264.625 l 1,8,-1
 329.400390625 471.724609375 l 1,9,-1
 384.299804688 456.525390625 l 1,10,-1
 198.900390625 269.375 l 1,11,-1
 399.599609375 26.1748046875 l 1,0,-1
EndSplineSet
EndChar

StartChar: L
Encoding: 76 76 45
Width: 342
VWidth: 961
Flags: W
LayerCount: 2
Fore
SplineSet
331.200195312 11.900390625 m 1,0,-1
 64.7998046875 11.900390625 l 1,1,-1
 64.7998046875 464.099609375 l 1,2,-1
 121.5 464.099609375 l 1,3,-1
 121.5 63.2001953125 l 1,4,-1
 331.200195312 63.2001953125 l 1,5,-1
 331.200195312 11.900390625 l 1,0,-1
EndSplineSet
EndChar

StartChar: M
Encoding: 77 77 46
Width: 545
VWidth: 961
Flags: W
LayerCount: 2
Fore
SplineSet
519.200195312 11.900390625 m 1,0,-1
 464.299804688 11.900390625 l 1,1,-1
 440.900390625 362.450195312 l 1,2,-1
 305.900390625 11.900390625 l 1,3,-1
 268.099609375 11.900390625 l 1,4,-1
 133.099609375 362.450195312 l 1,5,-1
 109.700195312 11.900390625 l 1,6,-1
 54.7998046875 11.900390625 l 1,7,-1
 85.400390625 464.099609375 l 1,8,-1
 144.799804688 464.099609375 l 1,9,-1
 287 87.900390625 l 1,10,-1
 429.200195312 464.099609375 l 1,11,-1
 488.599609375 464.099609375 l 1,12,-1
 519.200195312 11.900390625 l 1,0,-1
EndSplineSet
EndChar

StartChar: N
Encoding: 78 78 47
Width: 448
VWidth: 961
Flags: W
LayerCount: 2
Fore
SplineSet
403.400390625 11.900390625 m 1,0,-1
 349.400390625 11.900390625 l 1,1,-1
 125.299804688 378.599609375 l 1,2,-1
 125.299804688 11.900390625 l 1,3,-1
 68.599609375 11.900390625 l 1,4,-1
 68.599609375 464.099609375 l 1,5,-1
 125.299804688 464.099609375 l 1,6,-1
 346.700195312 106.900390625 l 1,7,-1
 346.700195312 464.099609375 l 1,8,-1
 403.400390625 464.099609375 l 1,9,-1
 403.400390625 11.900390625 l 1,0,-1
EndSplineSet
EndChar

StartChar: O
Encoding: 79 79 48
Width: 492
VWidth: 961
Flags: W
LayerCount: 2
Fore
SplineSet
412.900390625 237.974609375 m 256,0,1
 412.900390625 315.875 412.900390625 315.875 370.599609375 368.599609375 c 128,-1,2
 328.299804688 421.325195312 328.299804688 421.325195312 259 421.325195312 c 256,3,4
 189.700195312 421.325195312 189.700195312 421.325195312 147.400390625 368.599609375 c 128,-1,5
 105.099609375 315.875 105.099609375 315.875 105.099609375 237.974609375 c 256,6,7
 105.099609375 160.075195312 105.099609375 160.075195312 147.400390625 107.349609375 c 128,-1,8
 189.700195312 54.625 189.700195312 54.625 259 54.625 c 256,9,10
 328.299804688 54.625 328.299804688 54.625 370.599609375 107.349609375 c 128,-1,11
 412.900390625 160.075195312 412.900390625 160.075195312 412.900390625 237.974609375 c 256,0,1
468.700195312 237.025390625 m 256,12,13
 468.700195312 137.275390625 468.700195312 137.275390625 410.200195312 69.8251953125 c 128,-1,14
 351.700195312 2.375 351.700195312 2.375 259 2.375 c 256,15,16
 166.299804688 2.375 166.299804688 2.375 107.799804688 69.8251953125 c 128,-1,17
 49.2998046875 137.275390625 49.2998046875 137.275390625 49.2998046875 237.025390625 c 256,18,19
 49.2998046875 336.775390625 49.2998046875 336.775390625 107.799804688 404.700195312 c 128,-1,20
 166.299804688 472.625 166.299804688 472.625 259 472.625 c 256,21,22
 351.700195312 472.625 351.700195312 472.625 410.200195312 404.700195312 c 128,-1,23
 468.700195312 336.775390625 468.700195312 336.775390625 468.700195312 237.025390625 c 256,12,13
EndSplineSet
EndChar

StartChar: P
Encoding: 80 80 49
Width: 371
VWidth: 962
Flags: W
LayerCount: 2
Fore
SplineSet
349.25 334.075195312 m 0,0,1
 349.25 268.525390625 349.25 268.525390625 299.299804688 228.150390625 c 128,-1,2
 249.349609375 187.775390625 249.349609375 187.775390625 167.450195312 187.775390625 c 0,3,4
 146.75 187.775390625 146.75 187.775390625 122.450195312 190.625 c 1,5,-1
 122.450195312 12.025390625 l 1,6,-1
 65.75 12.025390625 l 1,7,-1
 65.75 457.575195312 l 1,8,9
 130.549804688 468.974609375 130.549804688 468.974609375 180.049804688 468.974609375 c 0,10,11
 259.25 468.974609375 259.25 468.974609375 304.25 431.450195312 c 128,-1,12
 349.25 393.924804688 349.25 393.924804688 349.25 334.075195312 c 0,0,1
292.549804688 331.224609375 m 0,13,14
 292.549804688 417.674804688 292.549804688 417.674804688 179.150390625 417.674804688 c 0,15,16
 148.549804688 417.674804688 148.549804688 417.674804688 122.450195312 414.825195312 c 1,17,-1
 122.450195312 244.775390625 l 1,18,19
 153.049804688 239.075195312 153.049804688 239.075195312 173.75 239.075195312 c 0,20,21
 292.549804688 239.075195312 292.549804688 239.075195312 292.549804688 331.224609375 c 0,13,14
EndSplineSet
EndChar

StartChar: Q
Encoding: 81 81 50
Width: 492
VWidth: 960
Flags: W
LayerCount: 2
Fore
SplineSet
413.099609375 236.450195312 m 256,0,1
 413.099609375 314.349609375 413.099609375 314.349609375 370.799804688 367.075195312 c 128,-1,2
 328.5 419.799804688 328.5 419.799804688 259.200195312 419.799804688 c 256,3,4
 189.900390625 419.799804688 189.900390625 419.799804688 147.599609375 367.075195312 c 128,-1,5
 105.299804688 314.349609375 105.299804688 314.349609375 105.299804688 236.450195312 c 256,6,7
 105.299804688 158.549804688 105.299804688 158.549804688 147.599609375 105.825195312 c 128,-1,8
 189.900390625 53.099609375 189.900390625 53.099609375 259.200195312 53.099609375 c 256,9,10
 328.5 53.099609375 328.5 53.099609375 370.799804688 105.825195312 c 128,-1,11
 413.099609375 158.549804688 413.099609375 158.549804688 413.099609375 236.450195312 c 256,0,1
468.900390625 235.5 m 0,12,13
 468.900390625 159.5 468.900390625 159.5 435.150390625 103.924804688 c 128,-1,14
 401.400390625 48.349609375 401.400390625 48.349609375 342 26.5 c 1,15,-1
 342 22.7001953125 l 1,16,17
 414 3.7001953125 414 3.7001953125 472.5 -5.7998046875 c 1,18,-1
 454.5 -57.099609375 l 1,19,20
 386.099609375 -38.099609375 386.099609375 -38.099609375 282.599609375 -2.9501953125 c 0,21,22
 278.099609375 -1.0498046875 278.099609375 -1.0498046875 259.200195312 0.849609375 c 0,23,24
 166.5 0.849609375 166.5 0.849609375 108 68.2998046875 c 128,-1,25
 49.5 135.75 49.5 135.75 49.5 235.5 c 256,26,27
 49.5 335.25 49.5 335.25 108 403.174804688 c 128,-1,28
 166.5 471.099609375 166.5 471.099609375 259.200195312 471.099609375 c 256,29,30
 351.900390625 471.099609375 351.900390625 471.099609375 410.400390625 403.174804688 c 128,-1,31
 468.900390625 335.25 468.900390625 335.25 468.900390625 235.5 c 0,12,13
EndSplineSet
EndChar

StartChar: R
Encoding: 82 82 51
Width: 377
VWidth: 962
Flags: W
LayerCount: 2
Fore
SplineSet
363.5 12.025390625 m 1,0,-1
 306.799804688 12.025390625 l 1,1,2
 282.5 208.674804688 282.5 208.674804688 195.200195312 208.674804688 c 2,3,-1
 123.200195312 208.674804688 l 1,4,-1
 123.200195312 12.025390625 l 1,5,-1
 66.5 12.025390625 l 1,6,-1
 66.5 456.625 l 1,7,8
 131.299804688 468.974609375 131.299804688 468.974609375 182.599609375 468.974609375 c 0,9,10
 259.099609375 468.974609375 259.099609375 468.974609375 304.099609375 434.775390625 c 128,-1,11
 349.099609375 400.575195312 349.099609375 400.575195312 349.099609375 341.674804688 c 0,12,13
 349.099609375 263.775390625 349.099609375 263.775390625 278.900390625 229.575195312 c 1,14,15
 312.200195312 205.825195312 312.200195312 205.825195312 330.650390625 160.224609375 c 128,-1,16
 349.099609375 114.625 349.099609375 114.625 363.5 12.025390625 c 1,0,-1
294.200195312 337.875 m 0,17,18
 294.200195312 416.724609375 294.200195312 416.724609375 182.599609375 416.724609375 c 0,19,20
 146.599609375 416.724609375 146.599609375 416.724609375 123.200195312 413.875 c 1,21,-1
 123.200195312 258.075195312 l 1,22,-1
 192.5 258.075195312 l 2,23,24
 294.200195312 258.075195312 294.200195312 258.075195312 294.200195312 337.875 c 0,17,18
EndSplineSet
EndChar

StartChar: S
Encoding: 83 83 52
Width: 346
VWidth: 961
Flags: W
LayerCount: 2
Fore
SplineSet
323 135.400390625 m 0,0,1
 323 76.5 323 76.5 278.450195312 39.9248046875 c 128,-1,2
 233.900390625 3.349609375 233.900390625 3.349609375 167.299804688 3.349609375 c 0,3,4
 96.2001953125 3.349609375 96.2001953125 3.349609375 35 44.2001953125 c 1,5,-1
 59.2998046875 98.349609375 l 1,6,7
 110.599609375 57.5 110.599609375 57.5 170.900390625 57.5 c 0,8,9
 215 57.5 215 57.5 240.200195312 77.9248046875 c 128,-1,10
 265.400390625 98.349609375 265.400390625 98.349609375 265.400390625 132.549804688 c 0,11,12
 265.400390625 189.549804688 265.400390625 189.549804688 179 219 c 0,13,14
 52.099609375 261.75 52.099609375 261.75 52.099609375 350.099609375 c 0,15,16
 52.099609375 403.299804688 52.099609375 403.299804688 92.150390625 437.974609375 c 128,-1,17
 132.200195312 472.650390625 132.200195312 472.650390625 196.099609375 472.650390625 c 256,18,19
 260 472.650390625 260 472.650390625 306.799804688 442.25 c 1,20,-1
 282.5 394.75 l 1,21,22
 237.5 418.5 237.5 418.5 195.200195312 418.5 c 0,23,24
 156.5 418.5 156.5 418.5 132.650390625 399.974609375 c 128,-1,25
 108.799804688 381.450195312 108.799804688 381.450195312 108.799804688 354.849609375 c 0,26,27
 108.799804688 302.599609375 108.799804688 302.599609375 195.200195312 273.150390625 c 0,28,29
 265.400390625 249.400390625 265.400390625 249.400390625 294.200195312 218.049804688 c 128,-1,30
 323 186.700195312 323 186.700195312 323 135.400390625 c 0,0,1
EndSplineSet
EndChar

StartChar: T
Encoding: 84 84 53
Width: 399
VWidth: 961
Flags: W
LayerCount: 2
Fore
SplineSet
239.75 11.900390625 m 1,0,-1
 183.049804688 11.900390625 l 1,1,-1
 183.049804688 412.799804688 l 1,2,-1
 24.650390625 412.799804688 l 1,3,-1
 24.650390625 464.099609375 l 1,4,-1
 396.349609375 464.099609375 l 1,5,-1
 396.349609375 412.799804688 l 1,6,-1
 239.75 412.799804688 l 1,7,-1
 239.75 11.900390625 l 1,0,-1
EndSplineSet
EndChar

StartChar: U
Encoding: 85 85 54
Width: 457
VWidth: 961
Flags: W
LayerCount: 2
Fore
SplineSet
412.900390625 204.525390625 m 2,0,1
 412.900390625 3.125 412.900390625 3.125 241 3.125 c 256,2,3
 69.099609375 3.125 69.099609375 3.125 69.099609375 204.525390625 c 2,4,-1
 69.099609375 463.875 l 1,5,-1
 126.700195312 463.875 l 1,6,-1
 126.700195312 204.525390625 l 2,7,8
 126.700195312 54.4248046875 126.700195312 54.4248046875 241 54.4248046875 c 256,9,10
 355.299804688 54.4248046875 355.299804688 54.4248046875 355.299804688 204.525390625 c 2,11,-1
 355.299804688 463.875 l 1,12,-1
 412.900390625 463.875 l 1,13,-1
 412.900390625 204.525390625 l 2,0,1
EndSplineSet
EndChar

StartChar: V
Encoding: 86 86 55
Width: 400
VWidth: 961
Flags: W
LayerCount: 2
Fore
SplineSet
237.099609375 11.900390625 m 1,0,-1
 184.900390625 11.900390625 l 1,1,-1
 20.2001953125 464.099609375 l 1,2,-1
 81.400390625 464.099609375 l 1,3,-1
 211 93.599609375 l 1,4,-1
 340.599609375 464.099609375 l 1,5,-1
 401.799804688 464.099609375 l 1,6,-1
 237.099609375 11.900390625 l 1,0,-1
EndSplineSet
EndChar

StartChar: W
Encoding: 87 87 56
Width: 581
VWidth: 961
Flags: W
LayerCount: 2
Fore
SplineSet
466.200195312 11.900390625 m 1,0,-1
 414 11.900390625 l 1,1,-1
 306 381.450195312 l 1,2,-1
 198 11.900390625 l 1,3,-1
 145.799804688 11.900390625 l 1,4,-1
 27 464.099609375 l 1,5,-1
 89.099609375 464.099609375 l 1,6,-1
 172.799804688 103.099609375 l 1,7,-1
 279 464.099609375 l 1,8,-1
 333 464.099609375 l 1,9,-1
 439.200195312 103.099609375 l 1,10,-1
 522.900390625 464.099609375 l 1,11,-1
 585 464.099609375 l 1,12,-1
 466.200195312 11.900390625 l 1,0,-1
EndSplineSet
EndChar

StartChar: X
Encoding: 88 88 57
Width: 404
VWidth: 961
Flags: W
LayerCount: 2
Fore
SplineSet
406.549804688 11.900390625 m 1,0,-1
 339.049804688 11.900390625 l 1,1,-1
 214.849609375 195.25 l 1,2,-1
 88.849609375 11.900390625 l 1,3,-1
 20.4501953125 11.900390625 l 1,4,-1
 179.75 243.700195312 l 1,5,-1
 26.75 464.099609375 l 1,6,-1
 96.0498046875 464.099609375 l 1,7,-1
 214.849609375 287.400390625 l 1,8,-1
 330.950195312 464.099609375 l 1,9,-1
 401.150390625 464.099609375 l 1,10,-1
 248.150390625 243.700195312 l 1,11,-1
 406.549804688 11.900390625 l 1,0,-1
EndSplineSet
EndChar

StartChar: Y
Encoding: 89 89 58
Width: 376
VWidth: 961
Flags: W
LayerCount: 2
Fore
SplineSet
226.799804688 11.900390625 m 1,0,-1
 171 11.900390625 l 1,1,-1
 171 209.5 l 1,2,-1
 14.400390625 464.099609375 l 1,3,-1
 80.099609375 464.099609375 l 1,4,-1
 198.900390625 260.799804688 l 1,5,-1
 316.799804688 464.099609375 l 1,6,-1
 381.599609375 464.099609375 l 1,7,-1
 226.799804688 210.450195312 l 1,8,-1
 226.799804688 11.900390625 l 1,0,-1
EndSplineSet
EndChar

StartChar: Z
Encoding: 90 90 59
Width: 429
VWidth: 961
Flags: W
LayerCount: 2
Fore
SplineSet
406.650390625 11.900390625 m 1,0,-1
 47.5498046875 11.900390625 l 1,1,-1
 47.5498046875 49.900390625 l 1,2,-1
 325.650390625 412.799804688 l 1,3,-1
 61.9501953125 412.799804688 l 1,4,-1
 71.849609375 464.099609375 l 1,5,-1
 403.950195312 464.099609375 l 1,6,-1
 403.950195312 425.150390625 l 1,7,-1
 125.849609375 63.2001953125 l 1,8,-1
 417.450195312 63.2001953125 l 1,9,-1
 406.650390625 11.900390625 l 1,0,-1
EndSplineSet
EndChar

StartChar: bracketleft
Encoding: 91 91 60
Width: 223
VWidth: 961
Flags: W
LayerCount: 2
Fore
SplineSet
196.099609375 -61.875 m 1,0,-1
 53.900390625 -61.875 l 1,1,-1
 53.900390625 512.875 l 1,2,-1
 196.099609375 512.875 l 1,3,-1
 196.099609375 463.474609375 l 1,4,-1
 107 463.474609375 l 1,5,-1
 107 -13.4248046875 l 1,6,-1
 196.099609375 -13.4248046875 l 1,7,-1
 196.099609375 -61.875 l 1,0,-1
EndSplineSet
EndChar

StartChar: backslash
Encoding: 92 92 61
Width: 255
VWidth: 961
Flags: W
LayerCount: 2
Fore
SplineSet
285.799804688 -14.25 m 1,0,-1
 228.200195312 -14.25 l 1,1,-1
 -5.7998046875 470.25 l 1,2,-1
 52.7001953125 470.25 l 1,3,-1
 285.799804688 -14.25 l 1,0,-1
EndSplineSet
EndChar

StartChar: bracketright
Encoding: 93 93 62
Width: 221
VWidth: 961
Flags: W
LayerCount: 2
Fore
SplineSet
180.099609375 -61.875 m 1,0,-1
 37.900390625 -61.875 l 1,1,-1
 37.900390625 -13.4248046875 l 1,2,-1
 127 -13.4248046875 l 1,3,-1
 127 463.474609375 l 1,4,-1
 37.900390625 463.474609375 l 1,5,-1
 37.900390625 512.875 l 1,6,-1
 180.099609375 512.875 l 1,7,-1
 180.099609375 -61.875 l 1,0,-1
EndSplineSet
EndChar

StartChar: asciicircum
Encoding: 94 94 63
Width: 397
VWidth: 965
Flags: W
LayerCount: 2
Fore
SplineSet
375.900390625 160.200195312 m 1,0,-1
 317.400390625 160.200195312 l 1,1,-1
 213 400.549804688 l 1,2,-1
 108.599609375 160.200195312 l 1,3,-1
 50.099609375 160.200195312 l 1,4,-1
 190.5 471.799804688 l 1,5,-1
 236.400390625 471.799804688 l 1,6,-1
 375.900390625 160.200195312 l 1,0,-1
EndSplineSet
EndChar

StartChar: underscore
Encoding: 95 95 64
Width: 357
VWidth: 942
Flags: W
LayerCount: 2
Fore
SplineSet
357.200195312 -173.674804688 m 1,0,-1
 18.7998046875 -173.674804688 l 1,1,-1
 18.7998046875 -123.325195312 l 1,2,-1
 357.200195312 -123.325195312 l 1,3,-1
 357.200195312 -173.674804688 l 1,0,-1
EndSplineSet
EndChar

StartChar: grave
Encoding: 96 96 65
Width: 199
VWidth: 971
Flags: W
LayerCount: 2
Fore
SplineSet
159.400390625 377.875 m 1,0,-1
 116.200195312 377.875 l 1,1,-1
 40.599609375 470.025390625 l 1,2,-1
 91.900390625 487.125 l 1,3,-1
 159.400390625 377.875 l 1,0,-1
EndSplineSet
EndChar

StartChar: a
Encoding: 97 97 66
Width: 348
VWidth: 958
Flags: W
LayerCount: 2
Fore
SplineSet
314.799804688 11.375 m 1,0,-1
 261.700195312 -0.025390625 l 1,1,-1
 252.700195312 41.775390625 l 1,2,3
 206.799804688 -0.025390625 206.799804688 -0.025390625 149.200195312 -0.025390625 c 0,4,5
 103.299804688 -0.025390625 103.299804688 -0.025390625 72.7001953125 26.099609375 c 128,-1,6
 42.099609375 52.224609375 42.099609375 52.224609375 41.2001953125 96.875 c 0,7,8
 41.2001953125 217.525390625 41.2001953125 217.525390625 245.5 220.375 c 1,9,10
 236.5 291.625 236.5 291.625 171.700195312 291.625 c 0,11,12
 123.099609375 291.625 123.099609375 291.625 64.599609375 267.875 c 1,13,-1
 58.2998046875 322.025390625 l 1,14,15
 119.5 341.025390625 119.5 341.025390625 174.400390625 341.025390625 c 0,16,17
 302.200195312 341.025390625 302.200195312 341.025390625 302.200195312 202.325195312 c 2,18,-1
 302.200195312 94.974609375 l 2,19,20
 302.200195312 58.875 302.200195312 58.875 314.799804688 11.375 c 1,0,-1
245.5 111.125 m 2,21,-1
 245.5 168.125 l 1,22,23
 98.7998046875 165.275390625 98.7998046875 165.275390625 98.7998046875 102.575195312 c 0,24,25
 98.7998046875 52.224609375 98.7998046875 52.224609375 151.900390625 52.224609375 c 0,26,27
 181.599609375 52.224609375 181.599609375 52.224609375 211.299804688 67.4248046875 c 0,28,29
 245.5 85.474609375 245.5 85.474609375 245.5 111.125 c 2,21,-1
EndSplineSet
Substitution2: "Single Substitution lookup 56 subtable" uni0E38
EndChar

StartChar: b
Encoding: 98 98 67
Width: 414
VWidth: 962
Flags: W
LayerCount: 2
Fore
SplineSet
391.049804688 180.525390625 m 0,0,1
 391.049804688 103.575195312 391.049804688 103.575195312 345.599609375 53.7001953125 c 128,-1,2
 300.150390625 3.8251953125 300.150390625 3.8251953125 233.549804688 3.8251953125 c 256,3,4
 166.950195312 3.8251953125 166.950195312 3.8251953125 124.650390625 47.525390625 c 1,5,6
 124.650390625 22.8251953125 124.650390625 22.8251953125 121.950195312 12.375 c 1,7,-1
 67.9501953125 12.375 l 1,8,9
 71.5498046875 58.9248046875 71.5498046875 58.9248046875 71.5498046875 98.8251953125 c 2,10,-1
 71.5498046875 491.174804688 l 1,11,-1
 128.25 491.174804688 l 1,12,-1
 128.25 303.075195312 l 1,13,14
 170.549804688 347.724609375 170.549804688 347.724609375 238.049804688 347.724609375 c 0,15,16
 303.75 347.724609375 303.75 347.724609375 347.400390625 299.75 c 128,-1,17
 391.049804688 251.775390625 391.049804688 251.775390625 391.049804688 180.525390625 c 0,0,1
335.25 180.525390625 m 0,18,19
 335.25 231.825195312 335.25 231.825195312 307.349609375 265.075195312 c 128,-1,20
 279.450195312 298.325195312 279.450195312 298.325195312 232.650390625 298.325195312 c 0,21,22
 194.849609375 298.325195312 194.849609375 298.325195312 161.549804688 271.724609375 c 128,-1,23
 128.25 245.125 128.25 245.125 128.25 209.025390625 c 2,24,-1
 128.25 134.924804688 l 2,25,26
 128.25 98.8251953125 128.25 98.8251953125 156.150390625 77.4501953125 c 128,-1,27
 184.049804688 56.0751953125 184.049804688 56.0751953125 229.049804688 56.0751953125 c 0,28,29
 279.450195312 56.0751953125 279.450195312 56.0751953125 307.349609375 89.3251953125 c 128,-1,30
 335.25 122.575195312 335.25 122.575195312 335.25 180.525390625 c 0,18,19
EndSplineSet
Substitution2: "Single Substitution lookup 56 subtable" uni0E39
EndChar

StartChar: c
Encoding: 99 99 68
Width: 329
VWidth: 958
Flags: W
LayerCount: 2
Fore
SplineSet
307.200195312 28.5498046875 m 1,0,1
 264 0.0498046875 264 0.0498046875 201.900390625 0.0498046875 c 0,2,3
 129 0.0498046875 129 0.0498046875 84.900390625 48.025390625 c 128,-1,4
 40.7998046875 96 40.7998046875 96 40.7998046875 172 c 0,5,6
 40.7998046875 248.950195312 40.7998046875 248.950195312 84.900390625 296.450195312 c 128,-1,7
 129 343.950195312 129 343.950195312 201.900390625 343.950195312 c 0,8,9
 263.099609375 343.950195312 263.099609375 343.950195312 307.200195312 315.450195312 c 1,10,-1
 287.400390625 266.049804688 l 1,11,12
 245.099609375 293.599609375 245.099609375 293.599609375 200.099609375 293.599609375 c 0,13,14
 154.200195312 293.599609375 154.200195312 293.599609375 126.299804688 259.875 c 128,-1,15
 98.400390625 226.150390625 98.400390625 226.150390625 98.400390625 172 c 0,16,17
 98.400390625 116.900390625 98.400390625 116.900390625 126.299804688 83.650390625 c 128,-1,18
 154.200195312 50.400390625 154.200195312 50.400390625 200.099609375 50.400390625 c 0,19,20
 245.099609375 50.400390625 245.099609375 50.400390625 287.400390625 77.9501953125 c 1,21,-1
 307.200195312 28.5498046875 l 1,0,1
EndSplineSet
Substitution2: "Single Substitution lookup 56 subtable" uni0E3A
EndChar

StartChar: d
Encoding: 100 100 69
Width: 412
VWidth: 962
Flags: W
LayerCount: 2
Fore
SplineSet
367.049804688 12.375 m 1,0,-1
 313.049804688 12.375 l 1,1,2
 310.349609375 22.8251953125 310.349609375 22.8251953125 310.349609375 47.525390625 c 1,3,4
 268.049804688 3.8251953125 268.049804688 3.8251953125 201.450195312 3.8251953125 c 256,5,6
 134.849609375 3.8251953125 134.849609375 3.8251953125 89.400390625 53.7001953125 c 128,-1,7
 43.9501953125 103.575195312 43.9501953125 103.575195312 43.9501953125 180.525390625 c 0,8,9
 43.9501953125 251.775390625 43.9501953125 251.775390625 87.599609375 299.75 c 128,-1,10
 131.25 347.724609375 131.25 347.724609375 196.950195312 347.724609375 c 0,11,12
 264.450195312 347.724609375 264.450195312 347.724609375 306.75 303.075195312 c 1,13,-1
 306.75 491.174804688 l 1,14,-1
 363.450195312 491.174804688 l 1,15,-1
 363.450195312 98.8251953125 l 2,16,17
 363.450195312 58.9248046875 363.450195312 58.9248046875 367.049804688 12.375 c 1,0,-1
306.75 134.924804688 m 2,18,-1
 306.75 209.025390625 l 2,19,20
 306.75 245.125 306.75 245.125 273.450195312 271.724609375 c 128,-1,21
 240.150390625 298.325195312 240.150390625 298.325195312 202.349609375 298.325195312 c 0,22,23
 155.549804688 298.325195312 155.549804688 298.325195312 127.650390625 265.075195312 c 128,-1,24
 99.75 231.825195312 99.75 231.825195312 99.75 180.525390625 c 0,25,26
 99.75 122.575195312 99.75 122.575195312 127.650390625 89.3251953125 c 128,-1,27
 155.549804688 56.0751953125 155.549804688 56.0751953125 205.950195312 56.0751953125 c 0,28,29
 250.950195312 56.0751953125 250.950195312 56.0751953125 278.849609375 77.4501953125 c 128,-1,30
 306.75 98.8251953125 306.75 98.8251953125 306.75 134.924804688 c 2,18,-1
EndSplineSet
EndChar

StartChar: e
Encoding: 101 101 70
Width: 371
VWidth: 958
Flags: W
LayerCount: 2
Fore
SplineSet
335.450195312 25.7001953125 m 1,0,1
 269.75 0.0498046875 269.75 0.0498046875 210.349609375 0.0498046875 c 0,2,3
 137.450195312 0.0498046875 137.450195312 0.0498046875 90.2001953125 46.125 c 128,-1,4
 42.9501953125 92.2001953125 42.9501953125 92.2001953125 42.9501953125 165.349609375 c 0,5,6
 42.9501953125 246.099609375 42.9501953125 246.099609375 89.75 296.450195312 c 0,7,8
 135.650390625 343.950195312 135.650390625 343.950195312 206.75 343.950195312 c 0,9,10
 345.349609375 343.950195312 345.349609375 343.950195312 348.049804688 160.599609375 c 1,11,-1
 98.75 160.599609375 l 1,12,13
 102.349609375 109.299804688 102.349609375 109.299804688 133.400390625 81.275390625 c 128,-1,14
 164.450195312 53.25 164.450195312 53.25 213.950195312 53.25 c 0,15,16
 264.349609375 53.25 264.349609375 53.25 329.150390625 77.9501953125 c 1,17,-1
 335.450195312 25.7001953125 l 1,0,1
292.25 210.950195312 m 1,18,19
 287.75 248 287.75 248 263.450195312 271.275390625 c 128,-1,20
 239.150390625 294.549804688 239.150390625 294.549804688 201.349609375 294.549804688 c 0,21,22
 165.349609375 294.549804688 165.349609375 294.549804688 137 271.275390625 c 128,-1,23
 108.650390625 248 108.650390625 248 102.349609375 210.950195312 c 1,24,-1
 292.25 210.950195312 l 1,18,19
EndSplineSet
EndChar

StartChar: f
Encoding: 102 102 71
Width: 243
VWidth: 962
Flags: W
LayerCount: 2
Fore
SplineSet
138.099609375 12.775390625 m 1,0,-1
 81.400390625 12.775390625 l 1,1,-1
 81.400390625 286.375 l 1,2,-1
 30.099609375 286.375 l 1,3,-1
 30.099609375 335.775390625 l 1,4,-1
 82.2998046875 335.775390625 l 1,5,6
 82.2998046875 498.224609375 82.2998046875 498.224609375 202 498.224609375 c 0,7,8
 239.799804688 498.224609375 239.799804688 498.224609375 265.900390625 477.325195312 c 1,9,-1
 249.700195312 432.674804688 l 1,10,11
 218.200195312 446.924804688 218.200195312 446.924804688 200.200195312 446.924804688 c 0,12,13
 138.099609375 446.924804688 138.099609375 446.924804688 138.099609375 335.775390625 c 1,14,-1
 225.400390625 335.775390625 l 1,15,-1
 225.400390625 286.375 l 1,16,-1
 138.099609375 286.375 l 1,17,-1
 138.099609375 12.775390625 l 1,0,-1
EndSplineSet
EndChar

StartChar: g
Encoding: 103 103 72
Width: 315
VWidth: 954
Flags: W
LayerCount: 2
Fore
SplineSet
279.5 -37.8251953125 m 0,0,1
 279.5 -82.474609375 279.5 -82.474609375 248.900390625 -110.025390625 c 128,-1,2
 218.299804688 -137.575195312 218.299804688 -137.575195312 159.799804688 -137.575195312 c 0,3,4
 111.200195312 -137.575195312 111.200195312 -137.575195312 59.900390625 -105.275390625 c 1,5,-1
 79.7001953125 -57.775390625 l 1,6,7
 127.400390625 -87.224609375 127.400390625 -87.224609375 163.400390625 -87.224609375 c 0,8,9
 191.299804688 -87.224609375 191.299804688 -87.224609375 209.75 -73.4501953125 c 128,-1,10
 228.200195312 -59.6748046875 228.200195312 -59.6748046875 228.200195312 -40.6748046875 c 0,11,12
 228.200195312 -12.1748046875 228.200195312 -12.1748046875 177.799804688 9.6748046875 c 0,13,14
 140 25.8251953125 140 25.8251953125 104.900390625 45.775390625 c 128,-1,15
 69.7998046875 65.724609375 69.7998046875 65.724609375 69.7998046875 98.025390625 c 0,16,17
 69.7998046875 113.224609375 69.7998046875 113.224609375 77.900390625 136.974609375 c 1,18,19
 45.5 174.025390625 45.5 174.025390625 45.5 215.825195312 c 0,20,21
 45.5 268.075195312 45.5 268.075195312 78.7998046875 301.325195312 c 128,-1,22
 112.099609375 334.575195312 112.099609375 334.575195312 158.900390625 334.575195312 c 2,23,-1
 288.5 334.575195312 l 1,24,-1
 288.5 293.724609375 l 1,25,-1
 243.5 293.724609375 l 1,26,27
 259.700195312 287.075195312 259.700195312 287.075195312 269.599609375 262.375 c 0,28,29
 277.700195312 242.424804688 277.700195312 242.424804688 277.700195312 222.474609375 c 0,30,31
 277.700195312 166.424804688 277.700195312 166.424804688 248.450195312 133.650390625 c 128,-1,32
 219.200195312 100.875 219.200195312 100.875 164.299804688 100.875 c 0,33,34
 144.5 100.875 144.5 100.875 125.599609375 107.525390625 c 1,35,36
 121.099609375 102.775390625 121.099609375 102.775390625 121.099609375 95.1748046875 c 0,37,38
 121.099609375 80.9248046875 121.099609375 80.9248046875 185.900390625 61.9248046875 c 0,39,40
 279.5 34.375 279.5 34.375 279.5 -37.8251953125 c 0,0,1
230 217.724609375 m 256,41,42
 230 246.224609375 230 246.224609375 210.650390625 266.174804688 c 128,-1,43
 191.299804688 286.125 191.299804688 286.125 164.299804688 286.125 c 256,44,45
 137.299804688 286.125 137.299804688 286.125 117.950195312 266.174804688 c 128,-1,46
 98.599609375 246.224609375 98.599609375 246.224609375 98.599609375 217.724609375 c 256,47,48
 98.599609375 189.224609375 98.599609375 189.224609375 117.950195312 169.75 c 128,-1,49
 137.299804688 150.275390625 137.299804688 150.275390625 164.299804688 150.275390625 c 0,50,51
 196.700195312 150.275390625 196.700195312 150.275390625 213.349609375 169.75 c 128,-1,52
 230 189.224609375 230 189.224609375 230 217.724609375 c 256,41,42
EndSplineSet
EndChar

StartChar: h
Encoding: 104 104 73
Width: 401
VWidth: 962
Flags: W
LayerCount: 2
Fore
SplineSet
356.849609375 12.599609375 m 1,0,-1
 300.150390625 12.599609375 l 1,1,-1
 300.150390625 194.049804688 l 2,2,3
 300.150390625 236.799804688 300.150390625 236.799804688 278.099609375 264.825195312 c 128,-1,4
 256.049804688 292.849609375 256.049804688 292.849609375 218.25 292.849609375 c 256,5,6
 180.450195312 292.849609375 180.450195312 292.849609375 151.650390625 264.349609375 c 128,-1,7
 122.849609375 235.849609375 122.849609375 235.849609375 122.849609375 201.650390625 c 2,8,-1
 122.849609375 12.599609375 l 1,9,-1
 66.150390625 12.599609375 l 1,10,-1
 66.150390625 491.400390625 l 1,11,-1
 122.849609375 491.400390625 l 1,12,-1
 122.849609375 300.450195312 l 1,13,14
 164.25 344.150390625 164.25 344.150390625 226.349609375 344.150390625 c 0,15,16
 287.549804688 344.150390625 287.549804688 344.150390625 322.200195312 303.775390625 c 128,-1,17
 356.849609375 263.400390625 356.849609375 263.400390625 356.849609375 195 c 2,18,-1
 356.849609375 12.599609375 l 1,0,-1
EndSplineSet
EndChar

StartChar: i
Encoding: 105 105 74
Width: 154
VWidth: 962
Flags: W
LayerCount: 2
Fore
SplineSet
109.700195312 12.2001953125 m 1,0,-1
 53 12.2001953125 l 1,1,-1
 53 335.200195312 l 1,2,-1
 109.700195312 335.200195312 l 1,3,-1
 109.700195312 12.2001953125 l 1,0,-1
123.200195312 430.200195312 m 256,4,5
 123.200195312 411.200195312 123.200195312 411.200195312 110.599609375 397.900390625 c 128,-1,6
 98 384.599609375 98 384.599609375 80 384.599609375 c 256,7,8
 62 384.599609375 62 384.599609375 49.400390625 397.900390625 c 128,-1,9
 36.7998046875 411.200195312 36.7998046875 411.200195312 36.7998046875 430.200195312 c 256,10,11
 36.7998046875 449.200195312 36.7998046875 449.200195312 49.400390625 462.5 c 128,-1,12
 62 475.799804688 62 475.799804688 80 475.799804688 c 256,13,14
 98 475.799804688 98 475.799804688 110.599609375 462.5 c 128,-1,15
 123.200195312 449.200195312 123.200195312 449.200195312 123.200195312 430.200195312 c 256,4,5
EndSplineSet
EndChar

StartChar: j
Encoding: 106 106 75
Width: 158
VWidth: 958
Flags: W
LayerCount: 2
Fore
SplineSet
113.349609375 25.775390625 m 2,0,1
 113.349609375 -121.474609375 113.349609375 -121.474609375 -32.4501953125 -125.275390625 c 1,2,-1
 -38.75 -76.8251953125 l 1,3,4
 22.4501953125 -72.0751953125 22.4501953125 -72.0751953125 39.5498046875 -48.3251953125 c 128,-1,5
 56.650390625 -24.5751953125 56.650390625 -24.5751953125 56.650390625 50.474609375 c 2,6,-1
 56.650390625 331.674804688 l 1,7,-1
 113.349609375 331.674804688 l 1,8,-1
 113.349609375 25.775390625 l 2,0,1
127.75 426.674804688 m 256,9,10
 127.75 407.674804688 127.75 407.674804688 115.150390625 394.375 c 128,-1,11
 102.549804688 381.075195312 102.549804688 381.075195312 84.5498046875 381.075195312 c 256,12,13
 66.5498046875 381.075195312 66.5498046875 381.075195312 53.9501953125 394.375 c 128,-1,14
 41.349609375 407.674804688 41.349609375 407.674804688 41.349609375 426.674804688 c 256,15,16
 41.349609375 445.674804688 41.349609375 445.674804688 53.9501953125 458.974609375 c 128,-1,17
 66.5498046875 472.275390625 66.5498046875 472.275390625 84.5498046875 472.275390625 c 256,18,19
 102.549804688 472.275390625 102.549804688 472.275390625 115.150390625 458.974609375 c 128,-1,20
 127.75 445.674804688 127.75 445.674804688 127.75 426.674804688 c 256,9,10
EndSplineSet
EndChar

StartChar: k
Encoding: 107 107 76
Width: 326
VWidth: 962
Flags: W
LayerCount: 2
Fore
SplineSet
342.599609375 18.0498046875 m 1,0,-1
 284.099609375 2.849609375 l 1,1,-1
 143.700195312 168.150390625 l 1,2,-1
 122.099609375 149.150390625 l 1,3,-1
 122.099609375 12.349609375 l 1,4,-1
 65.400390625 12.349609375 l 1,5,-1
 65.400390625 491.150390625 l 1,6,-1
 122.099609375 491.150390625 l 1,7,-1
 122.099609375 218.5 l 1,8,-1
 258.900390625 342 l 1,9,-1
 321 330.599609375 l 1,10,-1
 183.299804688 202.349609375 l 1,11,-1
 342.599609375 18.0498046875 l 1,0,-1
EndSplineSet
EndChar

StartChar: l
Encoding: 108 108 77
Width: 204
VWidth: 962
Flags: W
LayerCount: 2
Fore
SplineSet
191.900390625 4.7998046875 m 1,0,1
 57.7998046875 12.400390625 57.7998046875 12.400390625 57.7998046875 178.650390625 c 2,2,-1
 57.7998046875 491.200195312 l 1,3,-1
 114.5 491.200195312 l 1,4,-1
 114.5 191.950195312 l 2,5,6
 114.5 118.799804688 114.5 118.799804688 136.099609375 88.400390625 c 0,7,8
 155 62.75 155 62.75 198.200195312 58.9501953125 c 1,9,-1
 191.900390625 4.7998046875 l 1,0,1
EndSplineSet
EndChar

StartChar: m
Encoding: 109 109 78
Width: 603
VWidth: 958
Flags: W
LayerCount: 2
Fore
SplineSet
558.799804688 8.75 m 1,0,-1
 502.099609375 8.75 l 1,1,-1
 502.099609375 187.349609375 l 2,2,3
 502.099609375 231.049804688 502.099609375 231.049804688 483.200195312 259.549804688 c 0,4,5
 461.599609375 290.900390625 461.599609375 290.900390625 426.5 290.900390625 c 0,6,7
 396.799804688 290.900390625 396.799804688 290.900390625 371.150390625 266.200195312 c 128,-1,8
 345.5 241.5 345.5 241.5 345.5 213 c 2,9,-1
 345.5 8.75 l 1,10,-1
 288.799804688 8.75 l 1,11,-1
 288.799804688 203.5 l 2,12,13
 288.799804688 290.900390625 288.799804688 290.900390625 219.5 290.900390625 c 0,14,15
 188.900390625 290.900390625 188.900390625 290.900390625 161 261.924804688 c 128,-1,16
 133.099609375 232.950195312 133.099609375 232.950195312 133.099609375 201.599609375 c 2,17,-1
 133.099609375 8.75 l 1,18,-1
 76.400390625 8.75 l 1,19,-1
 76.400390625 246.25 l 2,20,21
 76.400390625 305.150390625 76.400390625 305.150390625 69.2001953125 332.700195312 c 1,22,-1
 122.299804688 332.700195312 l 1,23,24
 128.599609375 316.549804688 128.599609375 316.549804688 128.599609375 295.650390625 c 1,25,26
 141.200195312 314.650390625 141.200195312 314.650390625 170 327.950195312 c 128,-1,27
 198.799804688 341.25 198.799804688 341.25 226.700195312 341.25 c 0,28,29
 286.099609375 341.25 286.099609375 341.25 322.099609375 288.049804688 c 1,30,31
 369.799804688 341.25 369.799804688 341.25 437.299804688 341.25 c 0,32,33
 490.400390625 341.25 490.400390625 341.25 524.599609375 298.974609375 c 128,-1,34
 558.799804688 256.700195312 558.799804688 256.700195312 558.799804688 188.299804688 c 2,35,-1
 558.799804688 8.75 l 1,0,-1
EndSplineSet
EndChar

StartChar: n
Encoding: 110 110 79
Width: 401
VWidth: 958
Flags: W
LayerCount: 2
Fore
SplineSet
356.450195312 8.75 m 1,0,-1
 299.75 8.75 l 1,1,-1
 299.75 192.099609375 l 2,2,3
 299.75 290.900390625 299.75 290.900390625 214.25 290.900390625 c 0,4,5
 182.75 290.900390625 182.75 290.900390625 152.599609375 260.974609375 c 128,-1,6
 122.450195312 231.049804688 122.450195312 231.049804688 122.450195312 201.599609375 c 2,7,-1
 122.450195312 8.75 l 1,8,-1
 65.75 8.75 l 1,9,-1
 65.75 246.25 l 2,10,11
 65.75 305.150390625 65.75 305.150390625 58.5498046875 332.700195312 c 1,12,-1
 111.650390625 332.700195312 l 1,13,14
 117.950195312 316.549804688 117.950195312 316.549804688 117.950195312 293.75 c 1,15,16
 161.150390625 341.25 161.150390625 341.25 222.349609375 341.25 c 256,17,18
 283.549804688 341.25 283.549804688 341.25 320 301.349609375 c 128,-1,19
 356.450195312 261.450195312 356.450195312 261.450195312 356.450195312 192.099609375 c 2,20,-1
 356.450195312 8.75 l 1,0,-1
EndSplineSet
EndChar

StartChar: o
Encoding: 111 111 80
Width: 391
VWidth: 958
Flags: W
LayerCount: 2
Fore
SplineSet
368 172.025390625 m 256,0,1
 368 99.8251953125 368 99.8251953125 322.099609375 50.4248046875 c 128,-1,2
 276.200195312 1.025390625 276.200195312 1.025390625 206 1.025390625 c 256,3,4
 135.799804688 1.025390625 135.799804688 1.025390625 89.900390625 50.4248046875 c 128,-1,5
 44 99.8251953125 44 99.8251953125 44 172.025390625 c 256,6,7
 44 244.224609375 44 244.224609375 89.900390625 294.099609375 c 128,-1,8
 135.799804688 343.974609375 135.799804688 343.974609375 206 343.974609375 c 256,9,10
 276.200195312 343.974609375 276.200195312 343.974609375 322.099609375 294.099609375 c 128,-1,11
 368 244.224609375 368 244.224609375 368 172.025390625 c 256,0,1
312.200195312 172.025390625 m 256,12,13
 312.200195312 223.325195312 312.200195312 223.325195312 282.5 258 c 128,-1,14
 252.799804688 292.674804688 252.799804688 292.674804688 206 292.674804688 c 256,15,16
 159.200195312 292.674804688 159.200195312 292.674804688 129.5 258 c 128,-1,17
 99.7998046875 223.325195312 99.7998046875 223.325195312 99.7998046875 172.025390625 c 256,18,19
 99.7998046875 120.724609375 99.7998046875 120.724609375 129.5 86.0498046875 c 128,-1,20
 159.200195312 51.375 159.200195312 51.375 206 51.375 c 256,21,22
 252.799804688 51.375 252.799804688 51.375 282.5 86.0498046875 c 128,-1,23
 312.200195312 120.724609375 312.200195312 120.724609375 312.200195312 172.025390625 c 256,12,13
EndSplineSet
EndChar

StartChar: p
Encoding: 112 112 81
Width: 410
VWidth: 955
Flags: W
LayerCount: 2
Fore
SplineSet
387.049804688 175.299804688 m 0,0,1
 387.049804688 96.4501953125 387.049804688 96.4501953125 341.150390625 46.5751953125 c 128,-1,2
 295.25 -3.2998046875 295.25 -3.2998046875 226.849609375 -3.2998046875 c 0,3,4
 163.849609375 -3.2998046875 163.849609375 -3.2998046875 124.25 35.650390625 c 1,5,-1
 124.25 -130.599609375 l 1,6,-1
 67.5498046875 -130.599609375 l 1,7,-1
 67.5498046875 223.75 l 2,8,9
 67.5498046875 302.599609375 67.5498046875 302.599609375 63.9501953125 333.950195312 c 1,10,-1
 119.75 333.950195312 l 1,11,-1
 126.049804688 298.799804688 l 1,12,13
 173.75 340.599609375 173.75 340.599609375 234.049804688 340.599609375 c 0,14,15
 300.650390625 340.599609375 300.650390625 340.599609375 343.849609375 293.099609375 c 128,-1,16
 387.049804688 245.599609375 387.049804688 245.599609375 387.049804688 175.299804688 c 0,0,1
332.150390625 174.349609375 m 0,17,18
 332.150390625 223.75 332.150390625 223.75 302.900390625 257.474609375 c 128,-1,19
 273.650390625 291.200195312 273.650390625 291.200195312 228.650390625 291.200195312 c 0,20,21
 192.650390625 291.200195312 192.650390625 291.200195312 158.450195312 260.799804688 c 128,-1,22
 124.25 230.400390625 124.25 230.400390625 124.25 193.349609375 c 2,23,-1
 124.25 140.150390625 l 2,24,25
 124.25 103.099609375 124.25 103.099609375 153.5 76.025390625 c 128,-1,26
 182.75 48.9501953125 182.75 48.9501953125 225.049804688 48.9501953125 c 0,27,28
 275.450195312 48.9501953125 275.450195312 48.9501953125 303.799804688 82.6748046875 c 128,-1,29
 332.150390625 116.400390625 332.150390625 116.400390625 332.150390625 174.349609375 c 0,17,18
EndSplineSet
EndChar

StartChar: q
Encoding: 113 113 82
Width: 408
VWidth: 955
Flags: W
LayerCount: 2
Fore
SplineSet
363.450195312 -130.599609375 m 1,0,-1
 306.75 -130.599609375 l 1,1,-1
 306.75 35.650390625 l 1,2,3
 267.150390625 -3.2998046875 267.150390625 -3.2998046875 204.150390625 -3.2998046875 c 0,4,5
 135.75 -3.2998046875 135.75 -3.2998046875 89.849609375 46.5751953125 c 128,-1,6
 43.9501953125 96.4501953125 43.9501953125 96.4501953125 43.9501953125 175.299804688 c 0,7,8
 43.9501953125 245.599609375 43.9501953125 245.599609375 87.150390625 293.099609375 c 128,-1,9
 130.349609375 340.599609375 130.349609375 340.599609375 196.950195312 340.599609375 c 0,10,11
 257.25 340.599609375 257.25 340.599609375 304.950195312 298.799804688 c 1,12,-1
 311.25 333.950195312 l 1,13,-1
 367.049804688 333.950195312 l 1,14,15
 363.450195312 302.599609375 363.450195312 302.599609375 363.450195312 223.75 c 2,16,-1
 363.450195312 -130.599609375 l 1,0,-1
306.75 140.150390625 m 2,17,-1
 306.75 193.349609375 l 2,18,19
 306.75 230.400390625 306.75 230.400390625 272.549804688 260.799804688 c 128,-1,20
 238.349609375 291.200195312 238.349609375 291.200195312 202.349609375 291.200195312 c 0,21,22
 157.349609375 291.200195312 157.349609375 291.200195312 128.099609375 257.474609375 c 128,-1,23
 98.849609375 223.75 98.849609375 223.75 98.849609375 174.349609375 c 0,24,25
 98.849609375 116.400390625 98.849609375 116.400390625 127.200195312 82.6748046875 c 128,-1,26
 155.549804688 48.9501953125 155.549804688 48.9501953125 205.950195312 48.9501953125 c 0,27,28
 248.25 48.9501953125 248.25 48.9501953125 277.5 76.025390625 c 128,-1,29
 306.75 103.099609375 306.75 103.099609375 306.75 140.150390625 c 2,17,-1
EndSplineSet
EndChar

StartChar: r
Encoding: 114 114 83
Width: 234
VWidth: 958
Flags: W
LayerCount: 2
Fore
SplineSet
115.150390625 8.75 m 1,0,-1
 58.4501953125 8.75 l 1,1,-1
 58.4501953125 222.5 l 2,2,3
 58.4501953125 298.5 58.4501953125 298.5 47.650390625 336.5 c 1,4,-1
 98.0498046875 336.5 l 1,5,6
 107.950195312 319.400390625 107.950195312 319.400390625 107.950195312 290.900390625 c 1,7,8
 116.049804688 308.950195312 116.049804688 308.950195312 141.700195312 325.099609375 c 128,-1,9
 167.349609375 341.25 167.349609375 341.25 192.549804688 341.25 c 0,10,11
 210.549804688 341.25 210.549804688 341.25 221.349609375 338.400390625 c 1,12,-1
 221.349609375 287.099609375 l 1,13,14
 214.150390625 289 214.150390625 289 200.650390625 289 c 0,15,16
 115.150390625 289 115.150390625 289 115.150390625 180.700195312 c 2,17,-1
 115.150390625 8.75 l 1,0,-1
EndSplineSet
EndChar

StartChar: s
Encoding: 115 115 84
Width: 281
VWidth: 958
Flags: W
LayerCount: 2
Fore
SplineSet
258.75 100.650390625 m 0,0,1
 258.75 56 258.75 56 225.900390625 27.974609375 c 128,-1,2
 193.049804688 -0.0498046875 193.049804688 -0.0498046875 137.25 -0.0498046875 c 0,3,4
 91.349609375 -0.0498046875 91.349609375 -0.0498046875 38.25 31.2998046875 c 1,5,-1
 60.75 78.7998046875 l 1,6,7
 97.650390625 52.2001953125 97.650390625 52.2001953125 139.950195312 52.2001953125 c 0,8,9
 202.950195312 52.2001953125 202.950195312 52.2001953125 202.950195312 97.7998046875 c 0,10,11
 202.950195312 132.950195312 202.950195312 132.950195312 141.75 152.900390625 c 0,12,13
 51.75 182.349609375 51.75 182.349609375 51.75 243.150390625 c 0,14,15
 51.75 284 51.75 284 81.900390625 312.025390625 c 128,-1,16
 112.049804688 340.049804688 112.049804688 340.049804688 163.349609375 340.049804688 c 0,17,18
 215.549804688 340.049804688 215.549804688 340.049804688 251.549804688 312.5 c 1,19,-1
 230.849609375 268.799804688 l 1,20,21
 199.349609375 293.5 199.349609375 293.5 159.75 293.5 c 0,22,23
 136.349609375 293.5 136.349609375 293.5 120.599609375 280.674804688 c 128,-1,24
 104.849609375 267.849609375 104.849609375 267.849609375 104.849609375 247.900390625 c 0,25,26
 104.849609375 223.200195312 104.849609375 223.200195312 170.549804688 199.450195312 c 0,27,28
 258.75 167.150390625 258.75 167.150390625 258.75 100.650390625 c 0,0,1
EndSplineSet
EndChar

StartChar: t
Encoding: 116 116 85
Width: 245
VWidth: 961
Flags: W
LayerCount: 2
Fore
SplineSet
230.700195312 16.025390625 m 1,0,1
 201 2.724609375 201 2.724609375 171.299804688 2.724609375 c 0,2,3
 129.900390625 2.724609375 129.900390625 2.724609375 106.049804688 32.1748046875 c 128,-1,4
 82.2001953125 61.625 82.2001953125 61.625 82.2001953125 112.924804688 c 2,5,-1
 82.2001953125 284.875 l 1,6,-1
 21 284.875 l 1,7,-1
 21 334.275390625 l 1,8,-1
 82.2001953125 334.275390625 l 1,9,-1
 82.2001953125 422.625 l 1,10,-1
 138.900390625 448.275390625 l 1,11,-1
 138.900390625 334.275390625 l 1,12,-1
 237 334.275390625 l 1,13,-1
 237 284.875 l 1,14,-1
 138.900390625 284.875 l 1,15,-1
 138.900390625 113.875 l 2,16,17
 138.900390625 55.9248046875 138.900390625 55.9248046875 174 55.9248046875 c 0,18,19
 196.5 55.9248046875 196.5 55.9248046875 224.400390625 66.375 c 1,20,-1
 230.700195312 16.025390625 l 1,0,1
EndSplineSet
EndChar

StartChar: u
Encoding: 117 117 86
Width: 398
VWidth: 958
Flags: W
LayerCount: 2
Fore
SplineSet
372.049804688 12.0751953125 m 1,0,-1
 317.150390625 0.6748046875 l 1,1,2
 308.150390625 23.474609375 308.150390625 23.474609375 300.950195312 55.775390625 c 1,3,4
 246.950195312 -0.275390625 246.950195312 -0.275390625 193.849609375 -0.275390625 c 0,5,6
 66.9501953125 -0.275390625 66.9501953125 -0.275390625 66.9501953125 154.575195312 c 2,7,-1
 66.9501953125 331.275390625 l 1,8,-1
 123.650390625 331.275390625 l 1,9,-1
 123.650390625 160.275390625 l 2,10,11
 123.650390625 52.9248046875 123.650390625 52.9248046875 201.049804688 52.9248046875 c 0,12,13
 233.450195312 52.9248046875 233.450195312 52.9248046875 264.950195312 79.0498046875 c 128,-1,14
 296.450195312 105.174804688 296.450195312 105.174804688 296.450195312 140.325195312 c 2,15,-1
 296.450195312 331.275390625 l 1,16,-1
 353.150390625 331.275390625 l 1,17,-1
 353.150390625 94.724609375 l 2,18,19
 353.150390625 62.4248046875 353.150390625 62.4248046875 372.049804688 12.0751953125 c 1,0,-1
EndSplineSet
EndChar

StartChar: v
Encoding: 118 118 87
Width: 340
VWidth: 958
Flags: W
LayerCount: 2
Fore
SplineSet
201.5 8.5 m 1,0,-1
 156.5 8.5 l 1,1,-1
 14.2998046875 331.5 l 1,2,-1
 73.7001953125 331.5 l 1,3,-1
 179 82.599609375 l 1,4,-1
 284.299804688 331.5 l 1,5,-1
 343.700195312 331.5 l 1,6,-1
 201.5 8.5 l 1,0,-1
EndSplineSet
EndChar

StartChar: w
Encoding: 119 119 88
Width: 456
VWidth: 958
Flags: W
LayerCount: 2
Fore
SplineSet
383.099609375 8.5 m 1,0,-1
 335.400390625 8.5 l 1,1,-1
 240 267.849609375 l 1,2,-1
 144.599609375 8.5 l 1,3,-1
 96.900390625 8.5 l 1,4,-1
 20.400390625 331.5 l 1,5,-1
 78.900390625 331.5 l 1,6,-1
 124.799804688 87.349609375 l 1,7,-1
 216.599609375 331.5 l 1,8,-1
 263.400390625 331.5 l 1,9,-1
 355.200195312 87.349609375 l 1,10,-1
 401.099609375 331.5 l 1,11,-1
 459.599609375 331.5 l 1,12,-1
 383.099609375 8.5 l 1,0,-1
EndSplineSet
EndChar

StartChar: x
Encoding: 120 120 89
Width: 331
VWidth: 958
Flags: W
LayerCount: 2
Fore
SplineSet
341.450195312 8.5 m 1,0,-1
 272.150390625 8.5 l 1,1,-1
 174.049804688 132.950195312 l 1,2,-1
 76.849609375 8.5 l 1,3,-1
 7.5498046875 8.5 l 1,4,-1
 140.75 173.799804688 l 1,5,-1
 15.650390625 331.5 l 1,6,-1
 84.0498046875 331.5 l 1,7,-1
 174.950195312 217.5 l 1,8,-1
 264.950195312 331.5 l 1,9,-1
 333.349609375 331.5 l 1,10,-1
 208.25 173.799804688 l 1,11,-1
 341.450195312 8.5 l 1,0,-1
EndSplineSet
EndChar

StartChar: y
Encoding: 121 121 90
Width: 342
VWidth: 954
Flags: W
LayerCount: 2
Fore
SplineSet
46.7998046875 -138.724609375 m 1,0,-1
 32.400390625 -89.3251953125 l 1,1,2
 112.5 -70.3251953125 112.5 -70.3251953125 150.299804688 28.474609375 c 1,3,-1
 14.400390625 327.724609375 l 1,4,-1
 76.5 327.724609375 l 1,5,-1
 182.700195312 88.3251953125 l 1,6,-1
 283.5 327.724609375 l 1,7,-1
 345.599609375 327.724609375 l 1,8,-1
 205.200195312 11.375 l 2,9,10
 148.5 -114.974609375 148.5 -114.974609375 46.7998046875 -138.724609375 c 1,0,-1
EndSplineSet
EndChar

StartChar: z
Encoding: 122 122 91
Width: 340
VWidth: 958
Flags: W
LayerCount: 2
Fore
SplineSet
314.950195312 8.5 m 1,0,-1
 35.9501953125 8.5 l 1,1,-1
 35.9501953125 44.599609375 l 1,2,-1
 239.349609375 281.150390625 l 1,3,-1
 44.9501953125 281.150390625 l 1,4,-1
 55.75 331.5 l 1,5,-1
 316.75 331.5 l 1,6,-1
 316.75 292.549804688 l 1,7,-1
 114.25 58.849609375 l 1,8,-1
 323.049804688 58.849609375 l 1,9,-1
 314.950195312 8.5 l 1,0,-1
EndSplineSet
EndChar

StartChar: braceleft
Encoding: 123 123 92
Width: 242
VWidth: 960
Flags: W
LayerCount: 2
Fore
SplineSet
211.450195312 -73.349609375 m 1,0,-1
 190.75 -73.349609375 l 2,1,2
 82.75 -73.349609375 82.75 -73.349609375 82.75 23.5498046875 c 0,3,4
 82.75 42.5498046875 82.75 42.5498046875 89.0498046875 84.8251953125 c 128,-1,5
 95.349609375 127.099609375 95.349609375 127.099609375 95.349609375 144.200195312 c 0,6,7
 95.349609375 178.400390625 95.349609375 178.400390625 39.5498046875 180.299804688 c 1,8,-1
 39.5498046875 229.700195312 l 1,9,10
 95.349609375 231.599609375 95.349609375 231.599609375 95.349609375 264.849609375 c 0,11,12
 95.349609375 284.799804688 95.349609375 284.799804688 89.0498046875 327.075195312 c 128,-1,13
 82.75 369.349609375 82.75 369.349609375 82.75 386.450195312 c 0,14,15
 82.75 483.349609375 82.75 483.349609375 190.75 483.349609375 c 2,16,-1
 211.450195312 483.349609375 l 1,17,-1
 211.450195312 433.950195312 l 1,18,-1
 188.049804688 433.950195312 l 2,19,20
 138.549804688 433.950195312 138.549804688 433.950195312 135.849609375 384.549804688 c 1,21,22
 148.450195312 303.799804688 148.450195312 303.799804688 148.450195312 267.700195312 c 0,23,24
 148.450195312 246.799804688 148.450195312 246.799804688 137.200195312 228.275390625 c 128,-1,25
 125.950195312 209.75 125.950195312 209.75 110.650390625 205 c 1,26,27
 148.450195312 188.849609375 148.450195312 188.849609375 148.450195312 141.349609375 c 0,28,29
 148.450195312 106.200195312 148.450195312 106.200195312 135.849609375 25.4501953125 c 1,30,31
 137.650390625 -24.900390625 137.650390625 -24.900390625 188.049804688 -24.900390625 c 2,32,-1
 211.450195312 -24.900390625 l 1,33,-1
 211.450195312 -73.349609375 l 1,0,-1
EndSplineSet
EndChar

StartChar: bar
Encoding: 124 124 93
Width: 168
VWidth: 958
Flags: W
LayerCount: 2
Fore
SplineSet
114.150390625 -148.700195312 m 1,0,-1
 62.849609375 -148.700195312 l 1,1,-1
 62.849609375 508.700195312 l 1,2,-1
 114.150390625 508.700195312 l 1,3,-1
 114.150390625 -148.700195312 l 1,0,-1
EndSplineSet
EndChar

StartChar: braceright
Encoding: 125 125 94
Width: 242
VWidth: 960
Flags: W
LayerCount: 2
Fore
SplineSet
218.450195312 180.299804688 m 1,0,1
 162.650390625 178.400390625 162.650390625 178.400390625 162.650390625 144.200195312 c 0,2,3
 162.650390625 127.099609375 162.650390625 127.099609375 168.950195312 84.8251953125 c 128,-1,4
 175.25 42.5498046875 175.25 42.5498046875 175.25 23.5498046875 c 0,5,6
 175.25 -73.349609375 175.25 -73.349609375 67.25 -73.349609375 c 2,7,-1
 46.5498046875 -73.349609375 l 1,8,-1
 46.5498046875 -24.900390625 l 1,9,-1
 69.9501953125 -24.900390625 l 2,10,11
 122.150390625 -24.900390625 122.150390625 -24.900390625 122.150390625 21.650390625 c 0,12,13
 122.150390625 43.5 122.150390625 43.5 115.849609375 82.9248046875 c 128,-1,14
 109.549804688 122.349609375 109.549804688 122.349609375 109.549804688 141.349609375 c 0,15,16
 109.549804688 188.849609375 109.549804688 188.849609375 147.349609375 205 c 1,17,18
 132.049804688 209.75 132.049804688 209.75 120.799804688 228.275390625 c 128,-1,19
 109.549804688 246.799804688 109.549804688 246.799804688 109.549804688 267.700195312 c 256,20,21
 109.549804688 288.599609375 109.549804688 288.599609375 115.849609375 328.5 c 128,-1,22
 122.150390625 368.400390625 122.150390625 368.400390625 122.150390625 388.349609375 c 0,23,24
 122.150390625 433.950195312 122.150390625 433.950195312 69.9501953125 433.950195312 c 2,25,-1
 46.5498046875 433.950195312 l 1,26,-1
 46.5498046875 483.349609375 l 1,27,-1
 67.25 483.349609375 l 2,28,29
 175.25 483.349609375 175.25 483.349609375 175.25 386.450195312 c 0,30,31
 175.25 369.349609375 175.25 369.349609375 168.950195312 327.075195312 c 128,-1,32
 162.650390625 284.799804688 162.650390625 284.799804688 162.650390625 264.849609375 c 0,33,34
 162.650390625 231.599609375 162.650390625 231.599609375 218.450195312 229.700195312 c 1,35,-1
 218.450195312 180.299804688 l 1,0,1
EndSplineSet
EndChar

StartChar: asciitilde
Encoding: 126 126 95
Width: 401
VWidth: 960
Flags: W
LayerCount: 2
Fore
SplineSet
388.700195312 240.924804688 m 2,0,1
 388.700195312 197.224609375 388.700195312 197.224609375 366.200195312 172.049804688 c 128,-1,2
 343.700195312 146.875 343.700195312 146.875 307.700195312 146.875 c 0,3,4
 286.099609375 146.875 286.099609375 146.875 212.75 176.325195312 c 128,-1,5
 139.400390625 205.775390625 139.400390625 205.775390625 124.099609375 205.775390625 c 0,6,7
 92.599609375 205.775390625 92.599609375 205.775390625 90.7998046875 146.875 c 1,8,-1
 41.2998046875 146.875 l 1,9,-1
 41.2998046875 164.924804688 l 2,10,11
 41.2998046875 206.724609375 41.2998046875 206.724609375 65.150390625 231.424804688 c 128,-1,12
 89 256.125 89 256.125 124.099609375 256.125 c 0,13,14
 148.400390625 256.125 148.400390625 256.125 220.400390625 228.099609375 c 128,-1,15
 292.400390625 200.075195312 292.400390625 200.075195312 309.5 200.075195312 c 0,16,17
 337.400390625 200.075195312 337.400390625 200.075195312 340.099609375 256.125 c 1,18,-1
 388.700195312 256.125 l 1,19,-1
 388.700195312 240.924804688 l 2,0,1
EndSplineSet
EndChar

StartChar: uni0E4E.alt1
Encoding: 65540 -1 99
Width: -20
VWidth: 978
Flags: W
LayerCount: 2
Fore
SplineSet
-130.349609375 659.150390625 m 1,0,-1
 -138.450195312 635.400390625 l 1,1,2
 -153.75 640.150390625 -153.75 640.150390625 -171.75 640.150390625 c 0,3,4
 -213.150390625 640.150390625 -213.150390625 640.150390625 -213.150390625 610.700195312 c 0,5,6
 -213.150390625 579.349609375 -213.150390625 579.349609375 -168.150390625 573.650390625 c 1,7,-1
 -176.25 551.799804688 l 1,8,9
 -187.049804688 555.599609375 -187.049804688 555.599609375 -197.849609375 555.599609375 c 0,10,11
 -223.049804688 555.599609375 -223.049804688 555.599609375 -238.799804688 543.724609375 c 128,-1,12
 -254.549804688 531.849609375 -254.549804688 531.849609375 -254.549804688 517.599609375 c 0,13,14
 -254.549804688 491.950195312 -254.549804688 491.950195312 -214.049804688 491.950195312 c 0,15,16
 -202.349609375 491.950195312 -202.349609375 491.950195312 -185.25 499.549804688 c 1,17,-1
 -184.349609375 475.799804688 l 1,18,19
 -201.450195312 468.200195312 -201.450195312 468.200195312 -225.75 468.200195312 c 0,20,21
 -248.25 468.200195312 -248.25 468.200195312 -264.450195312 481.974609375 c 128,-1,22
 -280.650390625 495.75 -280.650390625 495.75 -280.650390625 518.549804688 c 0,23,24
 -280.650390625 542.299804688 -280.650390625 542.299804688 -262.650390625 558.450195312 c 128,-1,25
 -244.650390625 574.599609375 -244.650390625 574.599609375 -222.150390625 574.599609375 c 1,26,27
 -240.150390625 586.950195312 -240.150390625 586.950195312 -240.150390625 610.700195312 c 0,28,29
 -240.150390625 665.799804688 -240.150390625 665.799804688 -170.849609375 665.799804688 c 0,30,31
 -146.549804688 665.799804688 -146.549804688 665.799804688 -130.349609375 659.150390625 c 1,0,-1
EndSplineSet
EndChar

StartChar: exclamdown
Encoding: 161 161 100
Width: 159
VWidth: 955
Flags: W
LayerCount: 2
Fore
SplineSet
116.400390625 -128.875 m 1,0,-1
 51.599609375 -128.875 l 1,1,-1
 57.900390625 191.275390625 l 1,2,-1
 108.299804688 191.275390625 l 1,3,-1
 116.400390625 -128.875 l 1,0,-1
127.200195312 286.275390625 m 256,4,5
 127.200195312 267.275390625 127.200195312 267.275390625 114.599609375 253.974609375 c 128,-1,6
 102 240.674804688 102 240.674804688 84 240.674804688 c 256,7,8
 66 240.674804688 66 240.674804688 53.400390625 253.974609375 c 128,-1,9
 40.7998046875 267.275390625 40.7998046875 267.275390625 40.7998046875 286.275390625 c 256,10,11
 40.7998046875 305.275390625 40.7998046875 305.275390625 53.400390625 318.575195312 c 128,-1,12
 66 331.875 66 331.875 84 331.875 c 256,13,14
 102 331.875 102 331.875 114.599609375 318.575195312 c 128,-1,15
 127.200195312 305.275390625 127.200195312 305.275390625 127.200195312 286.275390625 c 256,4,5
EndSplineSet
EndChar

StartChar: cent
Encoding: 162 162 101
Width: 455
VWidth: 961
Flags: W
LayerCount: 2
Fore
SplineSet
400.150390625 60.849609375 m 1,0,1
 352.450195312 33.2998046875 352.450195312 33.2998046875 280.450195312 31.400390625 c 1,2,-1
 280.450195312 -41.75 l 1,3,-1
 230.950195312 -41.75 l 1,4,-1
 230.950195312 34.25 l 1,5,6
 160.75 47.5498046875 160.75 47.5498046875 119.799804688 99.3251953125 c 128,-1,7
 78.849609375 151.099609375 78.849609375 151.099609375 78.849609375 229 c 256,8,9
 78.849609375 306.900390625 78.849609375 306.900390625 119.799804688 358.674804688 c 128,-1,10
 160.75 410.450195312 160.75 410.450195312 230.950195312 423.75 c 1,11,-1
 230.950195312 499.75 l 1,12,-1
 280.450195312 499.75 l 1,13,-1
 280.450195312 426.599609375 l 1,14,15
 352.450195312 424.700195312 352.450195312 424.700195312 400.150390625 397.150390625 c 1,16,-1
 381.25 351.549804688 l 1,17,18
 358.75 362 358.75 362 334.450195312 367.700195312 c 128,-1,19
 310.150390625 373.400390625 310.150390625 373.400390625 284.049804688 373.400390625 c 0,20,21
 212.950195312 373.400390625 212.950195312 373.400390625 172.900390625 335.400390625 c 128,-1,22
 132.849609375 297.400390625 132.849609375 297.400390625 132.849609375 229 c 256,23,24
 132.849609375 160.599609375 132.849609375 160.599609375 172.900390625 122.599609375 c 128,-1,25
 212.950195312 84.599609375 212.950195312 84.599609375 284.049804688 84.599609375 c 0,26,27
 310.150390625 84.599609375 310.150390625 84.599609375 334.450195312 90.2998046875 c 128,-1,28
 358.75 96 358.75 96 381.25 106.450195312 c 1,29,-1
 400.150390625 60.849609375 l 1,0,1
EndSplineSet
EndChar

StartChar: sterling
Encoding: 163 163 102
Width: 456
VWidth: 961
Flags: W
LayerCount: 2
Fore
SplineSet
375.900390625 11.7001953125 m 1,0,-1
 104.099609375 11.7001953125 l 1,1,-1
 104.099609375 46.849609375 l 1,2,3
 177.900390625 95.2998046875 177.900390625 95.2998046875 177.900390625 164.650390625 c 0,4,5
 177.900390625 172.25 177.900390625 172.25 177 184.599609375 c 128,-1,6
 176.099609375 196.950195312 176.099609375 196.950195312 174.299804688 210.25 c 1,7,-1
 105 210.25 l 1,8,-1
 105 253.950195312 l 1,9,-1
 168.900390625 253.950195312 l 1,10,11
 167.099609375 273.900390625 167.099609375 273.900390625 165.75 290.525390625 c 128,-1,12
 164.400390625 307.150390625 164.400390625 307.150390625 164.400390625 323.299804688 c 0,13,14
 164.400390625 456.299804688 164.400390625 456.299804688 282.299804688 456.299804688 c 0,15,16
 318.299804688 456.299804688 318.299804688 456.299804688 364.200195312 434.450195312 c 1,17,-1
 348 394.549804688 l 1,18,19
 308.400390625 411.650390625 308.400390625 411.650390625 280.5 411.650390625 c 0,20,21
 208.5 411.650390625 208.5 411.650390625 208.5 323.299804688 c 0,22,23
 208.5 287.200195312 208.5 287.200195312 214.799804688 253.950195312 c 1,24,-1
 314.700195312 253.950195312 l 1,25,-1
 314.700195312 210.25 l 1,26,-1
 222 210.25 l 1,27,28
 222.900390625 202.650390625 222.900390625 202.650390625 223.349609375 191.724609375 c 128,-1,29
 223.799804688 180.799804688 223.799804688 180.799804688 223.799804688 171.299804688 c 0,30,31
 223.799804688 101.950195312 223.799804688 101.950195312 186 56.349609375 c 1,32,-1
 375.900390625 56.349609375 l 1,33,-1
 375.900390625 11.7001953125 l 1,0,-1
EndSplineSet
EndChar

StartChar: currency
Encoding: 164 164 103
Width: 456
VWidth: 961
Flags: W
LayerCount: 2
Fore
SplineSet
408.299804688 226 m 256,0,1
 408.299804688 169.950195312 408.299804688 169.950195312 377.700195312 125.299804688 c 1,2,-1
 411 88.25 l 1,3,-1
 372.299804688 44.5498046875 l 1,4,-1
 337.200195312 83.5 l 1,5,6
 297.599609375 50.25 297.599609375 50.25 239.099609375 50.25 c 0,7,8
 182.400390625 50.25 182.400390625 50.25 142.799804688 83.5 c 1,9,-1
 107.700195312 44.5498046875 l 1,10,-1
 69 88.25 l 1,11,-1
 102.299804688 125.299804688 l 1,12,13
 71.7001953125 169.950195312 71.7001953125 169.950195312 71.7001953125 226 c 256,14,15
 71.7001953125 282.049804688 71.7001953125 282.049804688 102.299804688 326.700195312 c 1,16,-1
 69 363.75 l 1,17,-1
 107.700195312 407.450195312 l 1,18,-1
 142.799804688 368.5 l 1,19,20
 182.400390625 401.75 182.400390625 401.75 239.099609375 401.75 c 0,21,22
 297.599609375 401.75 297.599609375 401.75 337.200195312 368.5 c 1,23,-1
 372.299804688 407.450195312 l 1,24,-1
 411 363.75 l 1,25,-1
 377.700195312 326.700195312 l 1,26,27
 408.299804688 282.049804688 408.299804688 282.049804688 408.299804688 226 c 256,0,1
352.5 226 m 0,28,29
 352.5 274.450195312 352.5 274.450195312 319.200195312 309.599609375 c 128,-1,30
 285.900390625 344.75 285.900390625 344.75 240 344.75 c 0,31,32
 192.299804688 344.75 192.299804688 344.75 159.900390625 309.599609375 c 128,-1,33
 127.5 274.450195312 127.5 274.450195312 127.5 226 c 0,34,35
 127.5 175.650390625 127.5 175.650390625 159.900390625 141.450195312 c 128,-1,36
 192.299804688 107.25 192.299804688 107.25 240 107.25 c 0,37,38
 285.900390625 107.25 285.900390625 107.25 319.200195312 141.450195312 c 128,-1,39
 352.5 175.650390625 352.5 175.650390625 352.5 226 c 0,28,29
EndSplineSet
EndChar

StartChar: yen
Encoding: 165 165 104
Width: 456
VWidth: 961
Flags: W
LayerCount: 2
Fore
SplineSet
369.599609375 98.4248046875 m 1,0,-1
 266.099609375 98.4248046875 l 1,1,-1
 266.099609375 29.0751953125 l 1,2,-1
 213.900390625 29.0751953125 l 1,3,-1
 213.900390625 98.4248046875 l 1,4,-1
 110.400390625 98.4248046875 l 1,5,-1
 110.400390625 145.924804688 l 1,6,-1
 213.900390625 145.924804688 l 1,7,-1
 213.900390625 176.325195312 l 1,8,-1
 110.400390625 176.325195312 l 1,9,-1
 110.400390625 223.825195312 l 1,10,-1
 204.900390625 223.825195312 l 1,11,-1
 74.400390625 449.924804688 l 1,12,-1
 137.400390625 449.924804688 l 1,13,-1
 239.099609375 269.424804688 l 1,14,-1
 341.700195312 449.924804688 l 1,15,-1
 405.599609375 449.924804688 l 1,16,-1
 274.200195312 224.775390625 l 1,17,-1
 369.599609375 224.775390625 l 1,18,-1
 369.599609375 176.325195312 l 1,19,-1
 266.099609375 176.325195312 l 1,20,-1
 266.099609375 145.924804688 l 1,21,-1
 369.599609375 145.924804688 l 1,22,-1
 369.599609375 98.4248046875 l 1,0,-1
EndSplineSet
EndChar

StartChar: brokenbar
Encoding: 166 166 105
Width: 152
VWidth: 958
Flags: W
LayerCount: 2
Fore
SplineSet
101.599609375 217.924804688 m 1,0,-1
 58.400390625 217.924804688 l 1,1,-1
 58.400390625 461.125 l 1,2,-1
 101.599609375 461.125 l 1,3,-1
 101.599609375 217.924804688 l 1,0,-1
101.599609375 -104.125 m 1,4,-1
 58.400390625 -104.125 l 1,5,-1
 58.400390625 140.025390625 l 1,6,-1
 101.599609375 140.025390625 l 1,7,-1
 101.599609375 -104.125 l 1,4,-1
EndSplineSet
EndChar

StartChar: section
Encoding: 167 167 106
Width: 360
VWidth: 961
Flags: W
LayerCount: 2
Fore
SplineSet
295.25 78.5 m 0,0,1
 295.25 30.0498046875 295.25 30.0498046875 262.400390625 2.5 c 128,-1,2
 229.549804688 -25.0498046875 229.549804688 -25.0498046875 179.150390625 -25.0498046875 c 0,3,4
 122.450195312 -25.0498046875 122.450195312 -25.0498046875 80.150390625 11.0498046875 c 1,5,-1
 100.849609375 50.9501953125 l 1,6,7
 118.849609375 32.900390625 118.849609375 32.900390625 138.650390625 25.2998046875 c 128,-1,8
 158.450195312 17.7001953125 158.450195312 17.7001953125 180.950195312 17.7001953125 c 0,9,10
 213.349609375 17.7001953125 213.349609375 17.7001953125 232.700195312 33.375 c 128,-1,11
 252.049804688 49.0498046875 252.049804688 49.0498046875 252.049804688 73.75 c 0,12,13
 252.049804688 107 252.049804688 107 208.849609375 129.799804688 c 0,14,15
 186.349609375 139.299804688 186.349609375 139.299804688 162.049804688 149.275390625 c 128,-1,16
 137.75 159.25 137.75 159.25 115.25 169.700195312 c 0,17,18
 67.5498046875 194.400390625 67.5498046875 194.400390625 67.5498046875 247.599609375 c 0,19,20
 67.5498046875 288.450195312 67.5498046875 288.450195312 102.650390625 321.700195312 c 1,21,22
 86.4501953125 343.549804688 86.4501953125 343.549804688 86.4501953125 371.099609375 c 0,23,24
 86.4501953125 413.849609375 86.4501953125 413.849609375 117.049804688 440.450195312 c 128,-1,25
 147.650390625 467.049804688 147.650390625 467.049804688 198.049804688 467.049804688 c 0,26,27
 221.450195312 467.049804688 221.450195312 467.049804688 245.299804688 459.450195312 c 128,-1,28
 269.150390625 451.849609375 269.150390625 451.849609375 292.549804688 438.549804688 c 1,29,-1
 270.049804688 397.700195312 l 1,30,31
 234.049804688 425.25 234.049804688 425.25 193.549804688 425.25 c 0,32,33
 167.450195312 425.25 167.450195312 425.25 149.450195312 411.474609375 c 128,-1,34
 131.450195312 397.700195312 131.450195312 397.700195312 131.450195312 376.799804688 c 0,35,36
 131.450195312 366.349609375 131.450195312 366.349609375 137.299804688 357.799804688 c 128,-1,37
 143.150390625 349.25 143.150390625 349.25 153.049804688 341.650390625 c 0,38,39
 160.25 336.900390625 160.25 336.900390625 176.450195312 329.775390625 c 128,-1,40
 192.650390625 322.650390625 192.650390625 322.650390625 214.25 315.049804688 c 0,41,42
 260.150390625 297.950195312 260.150390625 297.950195312 285.799804688 271.825195312 c 128,-1,43
 311.450195312 245.700195312 311.450195312 245.700195312 311.450195312 212.450195312 c 0,44,45
 311.450195312 190.599609375 311.450195312 190.599609375 302.450195312 171.125 c 128,-1,46
 293.450195312 151.650390625 293.450195312 151.650390625 278.150390625 133.599609375 c 1,47,48
 295.25 111.75 295.25 111.75 295.25 78.5 c 0,0,1
265.549804688 207.700195312 m 0,49,50
 265.549804688 223.849609375 265.549804688 223.849609375 248 240.474609375 c 128,-1,51
 230.450195312 257.099609375 230.450195312 257.099609375 203.450195312 267.549804688 c 0,52,53
 180.049804688 276.099609375 180.049804688 276.099609375 162.5 283.700195312 c 128,-1,54
 144.950195312 291.299804688 144.950195312 291.299804688 133.25 297 c 1,55,56
 110.75 276.099609375 110.75 276.099609375 110.75 249.5 c 0,57,58
 110.75 238.099609375 110.75 238.099609375 117.950195312 229.075195312 c 128,-1,59
 125.150390625 220.049804688 125.150390625 220.049804688 137.75 210.549804688 c 0,60,61
 146.75 205.799804688 146.75 205.799804688 161.599609375 198.674804688 c 128,-1,62
 176.450195312 191.549804688 176.450195312 191.549804688 199.849609375 183 c 0,63,64
 216.950195312 176.349609375 216.950195312 176.349609375 228.650390625 171.125 c 128,-1,65
 240.349609375 165.900390625 240.349609375 165.900390625 248.450195312 160.200195312 c 1,66,67
 258.349609375 172.549804688 258.349609375 172.549804688 261.950195312 183.950195312 c 128,-1,68
 265.549804688 195.349609375 265.549804688 195.349609375 265.549804688 207.700195312 c 0,49,50
EndSplineSet
EndChar

StartChar: dieresis
Encoding: 168 168 107
Width: 323
VWidth: 971
Flags: W
LayerCount: 2
Fore
SplineSet
143.049804688 425 m 0,0,1
 143.049804688 406.950195312 143.049804688 406.950195312 131.349609375 395.075195312 c 128,-1,2
 119.650390625 383.200195312 119.650390625 383.200195312 104.349609375 383.200195312 c 0,3,4
 88.150390625 383.200195312 88.150390625 383.200195312 76.4501953125 395.075195312 c 128,-1,5
 64.75 406.950195312 64.75 406.950195312 64.75 425 c 0,6,7
 64.75 442.099609375 64.75 442.099609375 76.4501953125 454.450195312 c 128,-1,8
 88.150390625 466.799804688 88.150390625 466.799804688 104.349609375 466.799804688 c 0,9,10
 119.650390625 466.799804688 119.650390625 466.799804688 131.349609375 454.450195312 c 128,-1,11
 143.049804688 442.099609375 143.049804688 442.099609375 143.049804688 425 c 0,0,1
276.25 425 m 0,12,13
 276.25 406.950195312 276.25 406.950195312 264.549804688 395.075195312 c 128,-1,14
 252.849609375 383.200195312 252.849609375 383.200195312 237.549804688 383.200195312 c 256,15,16
 222.25 383.200195312 222.25 383.200195312 210.099609375 395.075195312 c 128,-1,17
 197.950195312 406.950195312 197.950195312 406.950195312 197.950195312 425 c 0,18,19
 197.950195312 442.099609375 197.950195312 442.099609375 210.099609375 454.450195312 c 128,-1,20
 222.25 466.799804688 222.25 466.799804688 237.549804688 466.799804688 c 256,21,22
 252.849609375 466.799804688 252.849609375 466.799804688 264.549804688 454.450195312 c 128,-1,23
 276.25 442.099609375 276.25 442.099609375 276.25 425 c 0,12,13
EndSplineSet
EndChar

StartChar: copyright
Encoding: 169 169 108
Width: 513
VWidth: 961
Flags: W
LayerCount: 2
Fore
SplineSet
360.900390625 123.150390625 m 1,0,1
 326.700195312 95.599609375 326.700195312 95.599609375 268.200195312 95.599609375 c 0,2,3
 207.900390625 95.599609375 207.900390625 95.599609375 172.799804688 135.5 c 128,-1,4
 137.700195312 175.400390625 137.700195312 175.400390625 137.700195312 233.349609375 c 0,5,6
 137.700195312 299.849609375 137.700195312 299.849609375 174.599609375 338.325195312 c 128,-1,7
 211.5 376.799804688 211.5 376.799804688 272.700195312 376.799804688 c 0,8,9
 327.599609375 376.799804688 327.599609375 376.799804688 356.400390625 354 c 1,10,-1
 345.599609375 319.799804688 l 1,11,12
 311.400390625 340.700195312 311.400390625 340.700195312 272.700195312 340.700195312 c 0,13,14
 179.099609375 340.700195312 179.099609375 340.700195312 179.099609375 238.099609375 c 0,15,16
 179.099609375 134.549804688 179.099609375 134.549804688 273.599609375 134.549804688 c 0,17,18
 317.700195312 134.549804688 317.700195312 134.549804688 349.200195312 158.299804688 c 1,19,-1
 360.900390625 123.150390625 l 1,0,1
488.700195312 240 m 256,20,21
 488.700195312 145 488.700195312 145 424.349609375 77.0751953125 c 128,-1,22
 360 9.150390625 360 9.150390625 270 9.150390625 c 256,23,24
 180 9.150390625 180 9.150390625 115.650390625 77.0751953125 c 128,-1,25
 51.2998046875 145 51.2998046875 145 51.2998046875 240 c 256,26,27
 51.2998046875 335 51.2998046875 335 115.650390625 402.924804688 c 128,-1,28
 180 470.849609375 180 470.849609375 270 470.849609375 c 256,29,30
 360 470.849609375 360 470.849609375 424.349609375 402.924804688 c 128,-1,31
 488.700195312 335 488.700195312 335 488.700195312 240 c 256,20,21
450.900390625 240 m 256,32,33
 450.900390625 318.849609375 450.900390625 318.849609375 397.799804688 374.900390625 c 128,-1,34
 344.700195312 430.950195312 344.700195312 430.950195312 270 430.950195312 c 256,35,36
 195.299804688 430.950195312 195.299804688 430.950195312 142.200195312 374.900390625 c 128,-1,37
 89.099609375 318.849609375 89.099609375 318.849609375 89.099609375 240 c 256,38,39
 89.099609375 161.150390625 89.099609375 161.150390625 142.200195312 105.099609375 c 128,-1,40
 195.299804688 49.0498046875 195.299804688 49.0498046875 270 49.0498046875 c 256,41,42
 344.700195312 49.0498046875 344.700195312 49.0498046875 397.799804688 105.099609375 c 128,-1,43
 450.900390625 161.150390625 450.900390625 161.150390625 450.900390625 240 c 256,32,33
EndSplineSet
EndChar

StartChar: ordfeminine
Encoding: 170 170 109
Width: 239
VWidth: 968
Flags: W
LayerCount: 2
Fore
SplineSet
215.049804688 253.875 m 1,0,-1
 176.349609375 253.875 l 1,1,2
 174.549804688 258.625 174.549804688 258.625 173.650390625 264.799804688 c 128,-1,3
 172.75 270.974609375 172.75 270.974609375 170.950195312 278.575195312 c 1,4,5
 145.75 251.025390625 145.75 251.025390625 107.950195312 251.025390625 c 0,6,7
 35.9501953125 251.025390625 35.9501953125 251.025390625 35.9501953125 319.424804688 c 0,8,9
 35.9501953125 395.424804688 35.9501953125 395.424804688 168.25 398.275390625 c 1,10,11
 166.450195312 422.025390625 166.450195312 422.025390625 152.5 432 c 128,-1,12
 138.549804688 441.974609375 138.549804688 441.974609375 120.549804688 441.974609375 c 0,13,14
 105.25 441.974609375 105.25 441.974609375 89.5 438.174804688 c 128,-1,15
 73.75 434.375 73.75 434.375 58.4501953125 422.974609375 c 1,16,-1
 45.849609375 455.275390625 l 1,17,18
 64.75 468.575195312 64.75 468.575195312 85.4501953125 474.275390625 c 128,-1,19
 106.150390625 479.974609375 106.150390625 479.974609375 126.849609375 479.974609375 c 0,20,21
 207.849609375 479.974609375 207.849609375 479.974609375 207.849609375 375.474609375 c 2,22,-1
 207.849609375 295.674804688 l 2,23,24
 207.849609375 290.924804688 207.849609375 290.924804688 209.200195312 280 c 128,-1,25
 210.549804688 269.075195312 210.549804688 269.075195312 215.049804688 253.875 c 1,0,-1
168.25 326.075195312 m 2,26,-1
 168.25 363.125 l 1,27,28
 119.650390625 363.125 119.650390625 363.125 97.599609375 352.200195312 c 128,-1,29
 75.5498046875 341.275390625 75.5498046875 341.275390625 75.5498046875 319.424804688 c 0,30,31
 75.5498046875 286.174804688 75.5498046875 286.174804688 113.349609375 286.174804688 c 0,32,33
 121.450195312 286.174804688 121.450195312 286.174804688 130.900390625 289.025390625 c 128,-1,34
 140.349609375 291.875 140.349609375 291.875 148.900390625 297.099609375 c 128,-1,35
 157.450195312 302.325195312 157.450195312 302.325195312 162.849609375 309.450195312 c 128,-1,36
 168.25 316.575195312 168.25 316.575195312 168.25 326.075195312 c 2,26,-1
EndSplineSet
EndChar

StartChar: guillemotleft
Encoding: 171 171 110
Width: 338
VWidth: 959
Flags: W
LayerCount: 2
Fore
SplineSet
311.200195312 53.7001953125 m 1,0,-1
 257.200195312 53.7001953125 l 1,1,-1
 154.599609375 179.099609375 l 1,2,-1
 257.200195312 307.349609375 l 1,3,-1
 310.299804688 307.349609375 l 1,4,-1
 208.599609375 180.049804688 l 1,5,-1
 311.200195312 53.7001953125 l 1,0,-1
201.400390625 53.7001953125 m 1,6,-1
 146.5 53.7001953125 l 1,7,-1
 44.7998046875 179.099609375 l 1,8,-1
 144.700195312 308.299804688 l 1,9,-1
 200.5 308.299804688 l 1,10,-1
 97.900390625 179.099609375 l 1,11,-1
 201.400390625 53.7001953125 l 1,6,-1
EndSplineSet
EndChar

StartChar: logicalnot
Encoding: 172 172 111
Width: 425
VWidth: 959
Flags: W
LayerCount: 2
Fore
SplineSet
384.549804688 92.775390625 m 1,0,-1
 341.349609375 92.775390625 l 1,1,-1
 341.349609375 231.474609375 l 1,2,-1
 52.4501953125 231.474609375 l 1,3,-1
 52.4501953125 274.224609375 l 1,4,-1
 384.549804688 274.224609375 l 1,5,-1
 384.549804688 92.775390625 l 1,0,-1
EndSplineSet
EndChar

StartChar: registered
Encoding: 174 174 112
Width: 513
VWidth: 961
Flags: W
LayerCount: 2
Fore
SplineSet
368.099609375 96.5498046875 m 1,0,-1
 333 96.5498046875 l 1,1,2
 316.799804688 221 316.799804688 221 262.799804688 221 c 2,3,-1
 217.799804688 221 l 1,4,-1
 217.799804688 96.5498046875 l 1,5,-1
 180.900390625 96.5498046875 l 1,6,-1
 180.900390625 376.799804688 l 1,7,8
 222.299804688 384.400390625 222.299804688 384.400390625 254.700195312 384.400390625 c 0,9,10
 302.400390625 384.400390625 302.400390625 384.400390625 330.75 363.025390625 c 128,-1,11
 359.099609375 341.650390625 359.099609375 341.650390625 359.099609375 304.599609375 c 0,12,13
 359.099609375 255.200195312 359.099609375 255.200195312 315 234.299804688 c 1,14,15
 336.599609375 218.150390625 336.599609375 218.150390625 347.849609375 189.650390625 c 128,-1,16
 359.099609375 161.150390625 359.099609375 161.150390625 368.099609375 96.5498046875 c 1,0,-1
325.799804688 301.75 m 256,17,18
 325.799804688 351.150390625 325.799804688 351.150390625 254.700195312 351.150390625 c 0,19,20
 232.200195312 351.150390625 232.200195312 351.150390625 217.799804688 349.25 c 1,21,-1
 217.799804688 252.349609375 l 1,22,-1
 260.099609375 252.349609375 l 2,23,24
 325.799804688 252.349609375 325.799804688 252.349609375 325.799804688 301.75 c 256,17,18
488.700195312 240 m 256,25,26
 488.700195312 145 488.700195312 145 424.349609375 77.0751953125 c 128,-1,27
 360 9.150390625 360 9.150390625 270 9.150390625 c 256,28,29
 180 9.150390625 180 9.150390625 115.650390625 77.0751953125 c 128,-1,30
 51.2998046875 145 51.2998046875 145 51.2998046875 240 c 256,31,32
 51.2998046875 335 51.2998046875 335 115.650390625 402.924804688 c 128,-1,33
 180 470.849609375 180 470.849609375 270 470.849609375 c 256,34,35
 360 470.849609375 360 470.849609375 424.349609375 402.924804688 c 128,-1,36
 488.700195312 335 488.700195312 335 488.700195312 240 c 256,25,26
450.900390625 240 m 256,37,38
 450.900390625 318.849609375 450.900390625 318.849609375 397.799804688 374.900390625 c 128,-1,39
 344.700195312 430.950195312 344.700195312 430.950195312 270 430.950195312 c 256,40,41
 195.299804688 430.950195312 195.299804688 430.950195312 142.200195312 374.900390625 c 128,-1,42
 89.099609375 318.849609375 89.099609375 318.849609375 89.099609375 240 c 256,43,44
 89.099609375 161.150390625 89.099609375 161.150390625 142.200195312 105.099609375 c 128,-1,45
 195.299804688 49.0498046875 195.299804688 49.0498046875 270 49.0498046875 c 256,46,47
 344.700195312 49.0498046875 344.700195312 49.0498046875 397.799804688 105.099609375 c 128,-1,48
 450.900390625 161.150390625 450.900390625 161.150390625 450.900390625 240 c 256,37,38
EndSplineSet
EndChar

StartChar: macron
Encoding: 175 175 113
Width: 357
VWidth: 977
Flags: W
LayerCount: 2
Fore
SplineSet
357.200195312 529.325195312 m 1,0,-1
 18.7998046875 529.325195312 l 1,1,-1
 18.7998046875 579.674804688 l 1,2,-1
 357.200195312 579.674804688 l 1,3,-1
 357.200195312 529.325195312 l 1,0,-1
EndSplineSet
EndChar

StartChar: degree
Encoding: 176 176 114
Width: 263
VWidth: 969
Flags: W
LayerCount: 2
Fore
SplineSet
218.099609375 397 m 256,0,1
 218.099609375 361.849609375 218.099609375 361.849609375 194.700195312 337.150390625 c 128,-1,2
 171.299804688 312.450195312 171.299804688 312.450195312 138 312.450195312 c 256,3,4
 104.700195312 312.450195312 104.700195312 312.450195312 81.2998046875 337.150390625 c 128,-1,5
 57.900390625 361.849609375 57.900390625 361.849609375 57.900390625 397 c 256,6,7
 57.900390625 432.150390625 57.900390625 432.150390625 81.2998046875 456.849609375 c 128,-1,8
 104.700195312 481.549804688 104.700195312 481.549804688 138 481.549804688 c 256,9,10
 171.299804688 481.549804688 171.299804688 481.549804688 194.700195312 456.849609375 c 128,-1,11
 218.099609375 432.150390625 218.099609375 432.150390625 218.099609375 397 c 256,0,1
189.299804688 397 m 256,12,13
 189.299804688 418.849609375 189.299804688 418.849609375 174 435 c 128,-1,14
 158.700195312 451.150390625 158.700195312 451.150390625 138 451.150390625 c 256,15,16
 117.299804688 451.150390625 117.299804688 451.150390625 102 435 c 128,-1,17
 86.7001953125 418.849609375 86.7001953125 418.849609375 86.7001953125 397 c 256,18,19
 86.7001953125 375.150390625 86.7001953125 375.150390625 102 359 c 128,-1,20
 117.299804688 342.849609375 117.299804688 342.849609375 138 342.849609375 c 256,21,22
 158.700195312 342.849609375 158.700195312 342.849609375 174 359 c 128,-1,23
 189.299804688 375.150390625 189.299804688 375.150390625 189.299804688 397 c 256,12,13
EndSplineSet
EndChar

StartChar: plusminus
Encoding: 177 177 115
Width: 418
VWidth: 960
Flags: W
LayerCount: 2
Fore
SplineSet
386.549804688 10.5751953125 m 1,0,-1
 54.4501953125 10.5751953125 l 1,1,-1
 54.4501953125 62.8251953125 l 1,2,-1
 386.549804688 62.8251953125 l 1,3,-1
 386.549804688 10.5751953125 l 1,0,-1
382.049804688 216.724609375 m 1,4,-1
 248.849609375 216.724609375 l 1,5,-1
 248.849609375 84.6748046875 l 1,6,-1
 192.150390625 84.6748046875 l 1,7,-1
 192.150390625 216.724609375 l 1,8,-1
 58.9501953125 216.724609375 l 1,9,-1
 58.9501953125 268.974609375 l 1,10,-1
 192.150390625 268.974609375 l 1,11,-1
 192.150390625 412.424804688 l 1,12,-1
 248.849609375 412.424804688 l 1,13,-1
 248.849609375 268.974609375 l 1,14,-1
 382.049804688 268.974609375 l 1,15,-1
 382.049804688 216.724609375 l 1,4,-1
EndSplineSet
EndChar

StartChar: twosuperior
Encoding: 178 178 116
Width: 246
VWidth: 966
Flags: W
LayerCount: 2
Fore
SplineSet
207.799804688 197.299804688 m 1,0,-1
 36.7998046875 197.299804688 l 1,1,2
 36.7998046875 226.75 36.7998046875 226.75 57.0498046875 253.825195312 c 128,-1,3
 77.2998046875 280.900390625 77.2998046875 280.900390625 101.150390625 305.599609375 c 128,-1,4
 125 330.299804688 125 330.299804688 145.25 353.575195312 c 128,-1,5
 165.5 376.849609375 165.5 376.849609375 165.5 398.700195312 c 0,6,7
 165.5 414.849609375 165.5 414.849609375 156.950195312 423.400390625 c 128,-1,8
 148.400390625 431.950195312 148.400390625 431.950195312 134.900390625 431.950195312 c 0,9,10
 117.799804688 431.950195312 117.799804688 431.950195312 104.299804688 418.650390625 c 128,-1,11
 90.7998046875 405.349609375 90.7998046875 405.349609375 89 379.700195312 c 1,12,-1
 51.2001953125 387.299804688 l 1,13,14
 55.7001953125 430.049804688 55.7001953125 430.049804688 77.2998046875 452.375 c 128,-1,15
 98.900390625 474.700195312 98.900390625 474.700195312 132.200195312 474.700195312 c 0,16,17
 166.400390625 474.700195312 166.400390625 474.700195312 187.549804688 454.275390625 c 128,-1,18
 208.700195312 433.849609375 208.700195312 433.849609375 208.700195312 398.700195312 c 0,19,20
 208.700195312 378.75 208.700195312 378.75 197 355 c 128,-1,21
 185.299804688 331.25 185.299804688 331.25 160.099609375 303.700195312 c 2,22,-1
 101.599609375 240.049804688 l 1,23,-1
 213.200195312 240.049804688 l 1,24,-1
 207.799804688 197.299804688 l 1,0,-1
EndSplineSet
EndChar

StartChar: threesuperior
Encoding: 179 179 117
Width: 247
VWidth: 966
Flags: W
LayerCount: 2
Fore
SplineSet
218.400390625 296.049804688 m 0,0,1
 218.400390625 250.450195312 218.400390625 250.450195312 190.049804688 222.900390625 c 128,-1,2
 161.700195312 195.349609375 161.700195312 195.349609375 113.099609375 194.400390625 c 0,3,4
 76.2001953125 194.400390625 76.2001953125 194.400390625 45.599609375 218.150390625 c 1,5,-1
 63.599609375 258.049804688 l 1,6,7
 76.2001953125 246.650390625 76.2001953125 246.650390625 88.7998046875 242.849609375 c 128,-1,8
 101.400390625 239.049804688 101.400390625 239.049804688 114 239.049804688 c 0,9,10
 142.799804688 239.049804688 142.799804688 239.049804688 159.450195312 254.724609375 c 128,-1,11
 176.099609375 270.400390625 176.099609375 270.400390625 176.099609375 295.099609375 c 0,12,13
 176.099609375 311.25 176.099609375 311.25 166.650390625 319.799804688 c 128,-1,14
 157.200195312 328.349609375 157.200195312 328.349609375 144.599609375 328.349609375 c 0,15,16
 133.799804688 328.349609375 133.799804688 328.349609375 123 324.075195312 c 128,-1,17
 112.200195312 319.799804688 112.200195312 319.799804688 105 314.099609375 c 1,18,-1
 90.599609375 342.599609375 l 1,19,20
 125.700195312 359.700195312 125.700195312 359.700195312 143.25 378.224609375 c 128,-1,21
 160.799804688 396.75 160.799804688 396.75 160.799804688 411.950195312 c 0,22,23
 160.799804688 432.849609375 160.799804688 432.849609375 135.599609375 432.849609375 c 0,24,25
 120.299804688 432.849609375 120.299804688 432.849609375 105.900390625 421.924804688 c 128,-1,26
 91.5 411 91.5 411 84.2998046875 389.150390625 c 1,27,-1
 51 407.200195312 l 1,28,29
 78.900390625 475.599609375 78.900390625 475.599609375 138.299804688 475.599609375 c 0,30,31
 200.400390625 475.599609375 200.400390625 475.599609375 200.400390625 419.549804688 c 0,32,33
 200.400390625 387.25 200.400390625 387.25 171.599609375 360.650390625 c 1,34,35
 218.400390625 346.400390625 218.400390625 346.400390625 218.400390625 296.049804688 c 0,0,1
EndSplineSet
EndChar

StartChar: acute
Encoding: 180 180 118
Width: 246
VWidth: 971
Flags: W
LayerCount: 2
Fore
SplineSet
102.950195312 368.875 m 1,0,-1
 60.650390625 368.875 l 1,1,-1
 128.150390625 478.125 l 1,2,-1
 198.349609375 478.125 l 1,3,-1
 102.950195312 368.875 l 1,0,-1
EndSplineSet
EndChar

StartChar: mu
Encoding: 181 181 119
Width: 394
VWidth: 955
Flags: W
LayerCount: 2
Fore
SplineSet
369.049804688 8.8251953125 m 1,0,-1
 314.150390625 -2.5751953125 l 1,1,2
 309.650390625 7.875 309.650390625 7.875 306.5 18.7998046875 c 128,-1,3
 303.349609375 29.724609375 303.349609375 29.724609375 300.650390625 43.025390625 c 1,4,5
 275.450195312 22.125 275.450195312 22.125 248.900390625 9.2998046875 c 128,-1,6
 222.349609375 -3.525390625 222.349609375 -3.525390625 190.849609375 -3.525390625 c 0,7,8
 170.150390625 -3.525390625 170.150390625 -3.525390625 151.700195312 4.0751953125 c 128,-1,9
 133.25 11.6748046875 133.25 11.6748046875 120.650390625 27.8251953125 c 1,10,-1
 120.650390625 -128.924804688 l 1,11,-1
 63.9501953125 -128.924804688 l 1,12,-1
 63.9501953125 329.924804688 l 1,13,-1
 120.650390625 329.924804688 l 1,14,-1
 120.650390625 157.025390625 l 2,15,16
 120.650390625 49.6748046875 120.650390625 49.6748046875 198.049804688 49.6748046875 c 0,17,18
 231.349609375 49.6748046875 231.349609375 49.6748046875 262.400390625 73.900390625 c 128,-1,19
 293.450195312 98.125 293.450195312 98.125 293.450195312 137.075195312 c 2,20,-1
 293.450195312 329.924804688 l 1,21,-1
 350.150390625 329.924804688 l 1,22,-1
 350.150390625 91.474609375 l 2,23,24
 350.150390625 74.375 350.150390625 74.375 355.099609375 53.474609375 c 128,-1,25
 360.049804688 32.5751953125 360.049804688 32.5751953125 369.049804688 8.8251953125 c 1,0,-1
EndSplineSet
EndChar

StartChar: paragraph
Encoding: 182 182 120
Width: 360
VWidth: 960
Flags: W
LayerCount: 2
Fore
SplineSet
310.200195312 -49.5498046875 m 1,0,-1
 279.599609375 -49.5498046875 l 1,1,-1
 279.599609375 431.150390625 l 1,2,-1
 236.400390625 431.150390625 l 1,3,-1
 236.400390625 -49.5498046875 l 1,4,-1
 204.900390625 -49.5498046875 l 1,5,-1
 204.900390625 181.299804688 l 1,6,-1
 201.299804688 181.299804688 l 2,7,8
 147.299804688 181.299804688 147.299804688 181.299804688 104.549804688 216.924804688 c 128,-1,9
 61.7998046875 252.549804688 61.7998046875 252.549804688 61.7998046875 315.25 c 0,10,11
 61.7998046875 461.549804688 61.7998046875 461.549804688 240 461.549804688 c 0,12,13
 287.700195312 461.549804688 287.700195312 461.549804688 310.200195312 456.799804688 c 1,14,-1
 310.200195312 -49.5498046875 l 1,0,-1
EndSplineSet
EndChar

StartChar: periodcentered
Encoding: 183 183 121
Width: 163
VWidth: 959
Flags: W
LayerCount: 2
Fore
SplineSet
129.200195312 182 m 256,0,1
 129.200195312 163 129.200195312 163 116.599609375 149.700195312 c 128,-1,2
 104 136.400390625 104 136.400390625 86 136.400390625 c 256,3,4
 68 136.400390625 68 136.400390625 55.400390625 149.700195312 c 128,-1,5
 42.7998046875 163 42.7998046875 163 42.7998046875 182 c 256,6,7
 42.7998046875 201 42.7998046875 201 55.400390625 214.299804688 c 128,-1,8
 68 227.599609375 68 227.599609375 86 227.599609375 c 256,9,10
 104 227.599609375 104 227.599609375 116.599609375 214.299804688 c 128,-1,11
 129.200195312 201 129.200195312 201 129.200195312 182 c 256,0,1
EndSplineSet
EndChar

StartChar: cedilla
Encoding: 184 184 122
Width: 236
VWidth: 946
Flags: W
LayerCount: 2
Fore
SplineSet
188.849609375 -89.2001953125 m 0,0,1
 188.849609375 -119.599609375 188.849609375 -119.599609375 169.950195312 -137.174804688 c 128,-1,2
 151.049804688 -154.75 151.049804688 -154.75 116.849609375 -154.75 c 0,3,4
 104.25 -154.75 104.25 -154.75 88.9501953125 -150.474609375 c 128,-1,5
 73.650390625 -146.200195312 73.650390625 -146.200195312 60.150390625 -137.650390625 c 1,6,-1
 72.75 -107.25 l 1,7,8
 85.349609375 -113.900390625 85.349609375 -113.900390625 98.400390625 -117.700195312 c 128,-1,9
 111.450195312 -121.5 111.450195312 -121.5 118.650390625 -121.5 c 0,10,11
 147.450195312 -121.5 147.450195312 -121.5 147.450195312 -93 c 0,12,13
 147.450195312 -66.400390625 147.450195312 -66.400390625 89.849609375 -55.9501953125 c 1,14,-1
 128.549804688 6.75 l 1,15,-1
 167.25 6.75 l 1,16,-1
 142.049804688 -30.2998046875 l 1,17,18
 166.349609375 -37.900390625 166.349609375 -37.900390625 177.599609375 -52.625 c 128,-1,19
 188.849609375 -67.349609375 188.849609375 -67.349609375 188.849609375 -89.2001953125 c 0,0,1
EndSplineSet
EndChar

StartChar: onesuperior
Encoding: 185 185 123
Width: 247
VWidth: 966
Flags: W
LayerCount: 2
Fore
SplineSet
202.200195312 202.224609375 m 1,0,-1
 81.599609375 202.224609375 l 1,1,-1
 81.599609375 239.275390625 l 1,2,-1
 120.299804688 239.275390625 l 1,3,-1
 120.299804688 410.275390625 l 1,4,-1
 84.2998046875 374.174804688 l 1,5,-1
 61.7998046875 406.474609375 l 1,6,-1
 136.5 476.775390625 l 1,7,8
 150 476.775390625 150 476.775390625 157.200195312 467.75 c 128,-1,9
 164.400390625 458.724609375 164.400390625 458.724609375 164.400390625 444.474609375 c 2,10,-1
 164.400390625 239.275390625 l 1,11,-1
 202.200195312 239.275390625 l 1,12,-1
 202.200195312 202.224609375 l 1,0,-1
EndSplineSet
EndChar

StartChar: ordmasculine
Encoding: 186 186 124
Width: 279
VWidth: 967
Flags: W
LayerCount: 2
Fore
SplineSet
261.25 359.025390625 m 0,0,1
 261.25 307.724609375 261.25 307.724609375 227.5 273.049804688 c 128,-1,2
 193.75 238.375 193.75 238.375 146.049804688 238.375 c 0,3,4
 97.4501953125 238.375 97.4501953125 238.375 64.599609375 273.049804688 c 128,-1,5
 31.75 307.724609375 31.75 307.724609375 31.75 359.025390625 c 0,6,7
 31.75 409.375 31.75 409.375 64.599609375 445 c 128,-1,8
 97.4501953125 480.625 97.4501953125 480.625 146.049804688 480.625 c 0,9,10
 193.75 480.625 193.75 480.625 227.5 445 c 128,-1,11
 261.25 409.375 261.25 409.375 261.25 359.025390625 c 0,0,1
221.650390625 359.025390625 m 256,12,13
 221.650390625 391.325195312 221.650390625 391.325195312 199.150390625 415.075195312 c 128,-1,14
 176.650390625 438.825195312 176.650390625 438.825195312 146.049804688 438.825195312 c 256,15,16
 115.450195312 438.825195312 115.450195312 438.825195312 93.400390625 415.075195312 c 128,-1,17
 71.349609375 391.325195312 71.349609375 391.325195312 71.349609375 359.025390625 c 256,18,19
 71.349609375 326.724609375 71.349609375 326.724609375 93.400390625 303.450195312 c 128,-1,20
 115.450195312 280.174804688 115.450195312 280.174804688 146.049804688 280.174804688 c 256,21,22
 176.650390625 280.174804688 176.650390625 280.174804688 199.150390625 303.450195312 c 128,-1,23
 221.650390625 326.724609375 221.650390625 326.724609375 221.650390625 359.025390625 c 256,12,13
EndSplineSet
EndChar

StartChar: guillemotright
Encoding: 187 187 125
Width: 338
VWidth: 959
Flags: W
LayerCount: 2
Fore
SplineSet
98.7998046875 53.7001953125 m 1,0,-1
 44.7998046875 53.7001953125 l 1,1,-1
 147.400390625 180.049804688 l 1,2,-1
 45.7001953125 307.349609375 l 1,3,-1
 98.7998046875 307.349609375 l 1,4,-1
 201.400390625 179.099609375 l 1,5,-1
 98.7998046875 53.7001953125 l 1,0,-1
209.5 53.7001953125 m 1,6,-1
 154.599609375 53.7001953125 l 1,7,-1
 258.099609375 179.099609375 l 1,8,-1
 155.5 308.299804688 l 1,9,-1
 211.299804688 308.299804688 l 1,10,-1
 311.200195312 179.099609375 l 1,11,-1
 209.5 53.7001953125 l 1,6,-1
EndSplineSet
EndChar

StartChar: onequarter
Encoding: 188 188 126
Width: 514
VWidth: 961
Flags: W
LayerCount: 2
Fore
SplineSet
188.450195312 178.825195312 m 1,0,-1
 67.849609375 178.825195312 l 1,1,-1
 67.849609375 215.875 l 1,2,-1
 106.549804688 215.875 l 1,3,-1
 106.549804688 381.174804688 l 1,4,-1
 72.349609375 349.825195312 l 1,5,-1
 47.150390625 384.025390625 l 1,6,-1
 122.75 454.325195312 l 1,7,8
 150.650390625 452.424804688 150.650390625 452.424804688 150.650390625 421.075195312 c 2,9,-1
 150.650390625 215.875 l 1,10,-1
 188.450195312 215.875 l 1,11,-1
 188.450195312 178.825195312 l 1,0,-1
168.650390625 3.0751953125 m 1,12,-1
 123.650390625 3.0751953125 l 1,13,-1
 381.950195312 461.924804688 l 1,14,-1
 426.950195312 461.924804688 l 1,15,-1
 168.650390625 3.0751953125 l 1,12,-1
399.950195312 114.224609375 m 1,16,-1
 399.950195312 226.325195312 l 1,17,18
 379.25 207.325195312 379.25 207.325195312 364.400390625 175.5 c 128,-1,19
 349.549804688 143.674804688 349.549804688 143.674804688 345.950195312 114.224609375 c 1,20,-1
 399.950195312 114.224609375 l 1,16,-1
444.049804688 11.625 m 1,21,-1
 399.950195312 11.625 l 1,22,-1
 399.950195312 68.625 l 1,23,-1
 299.150390625 68.625 l 1,24,25
 299.150390625 99.025390625 299.150390625 99.025390625 308.150390625 137.025390625 c 128,-1,26
 317.150390625 175.025390625 317.150390625 175.025390625 335.150390625 208.75 c 128,-1,27
 353.150390625 242.474609375 353.150390625 242.474609375 381.5 265.75 c 128,-1,28
 409.849609375 289.025390625 409.849609375 289.025390625 444.049804688 289.974609375 c 1,29,-1
 444.049804688 114.224609375 l 1,30,-1
 481.849609375 114.224609375 l 1,31,-1
 480.049804688 68.625 l 1,32,-1
 444.049804688 68.625 l 1,33,-1
 444.049804688 11.625 l 1,21,-1
EndSplineSet
Ligature2: "'frac' Diagonal Fractions in Latin lookup 0 subtable" one fraction four
Ligature2: "'frac' Diagonal Fractions in Latin lookup 0 subtable" one slash four
EndChar

StartChar: onehalf
Encoding: 189 189 127
Width: 515
VWidth: 961
Flags: W
LayerCount: 2
Fore
SplineSet
495.450195312 11.625 m 1,0,-1
 324.450195312 11.625 l 1,1,2
 327.150390625 47.724609375 327.150390625 47.724609375 347.400390625 75.275390625 c 128,-1,3
 367.650390625 102.825195312 367.650390625 102.825195312 390.150390625 124.674804688 c 0,4,5
 400.950195312 136.075195312 400.950195312 136.075195312 412.200195312 147 c 128,-1,6
 423.450195312 157.924804688 423.450195312 157.924804688 432.450195312 169.325195312 c 128,-1,7
 441.450195312 180.724609375 441.450195312 180.724609375 447.299804688 191.650390625 c 128,-1,8
 453.150390625 202.575195312 453.150390625 202.575195312 453.150390625 213.025390625 c 0,9,10
 453.150390625 226.325195312 453.150390625 226.325195312 445.5 235.825195312 c 128,-1,11
 437.849609375 245.325195312 437.849609375 245.325195312 422.549804688 245.325195312 c 0,12,13
 385.650390625 245.325195312 385.650390625 245.325195312 379.349609375 194.025390625 c 1,14,-1
 338.849609375 201.625 l 1,15,16
 342.450195312 244.375 342.450195312 244.375 364.5 266.700195312 c 128,-1,17
 386.549804688 289.025390625 386.549804688 289.025390625 419.849609375 289.025390625 c 0,18,19
 454.049804688 289.025390625 454.049804688 289.025390625 475.650390625 269.075195312 c 128,-1,20
 497.25 249.125 497.25 249.125 497.25 213.025390625 c 0,21,22
 497.25 189.275390625 497.25 189.275390625 484.200195312 168.375 c 128,-1,23
 471.150390625 147.474609375 471.150390625 147.474609375 453.599609375 128 c 128,-1,24
 436.049804688 108.525390625 436.049804688 108.525390625 418.049804688 90.474609375 c 128,-1,25
 400.049804688 72.4248046875 400.049804688 72.4248046875 389.25 55.3251953125 c 1,26,-1
 500.849609375 55.3251953125 l 1,27,-1
 495.450195312 11.625 l 1,0,-1
169.650390625 3.0751953125 m 1,28,-1
 124.650390625 3.0751953125 l 1,29,-1
 382.950195312 461.924804688 l 1,30,-1
 427.950195312 461.924804688 l 1,31,-1
 169.650390625 3.0751953125 l 1,28,-1
189.450195312 178.825195312 m 1,32,-1
 68.849609375 178.825195312 l 1,33,-1
 68.849609375 215.875 l 1,34,-1
 107.549804688 215.875 l 1,35,-1
 107.549804688 381.174804688 l 1,36,-1
 73.349609375 349.825195312 l 1,37,-1
 48.150390625 384.025390625 l 1,38,-1
 123.75 454.325195312 l 1,39,40
 151.650390625 452.424804688 151.650390625 452.424804688 151.650390625 421.075195312 c 2,41,-1
 151.650390625 215.875 l 1,42,-1
 189.450195312 215.875 l 1,43,-1
 189.450195312 178.825195312 l 1,32,-1
EndSplineSet
Ligature2: "'frac' Diagonal Fractions in Latin lookup 0 subtable" one fraction two
Ligature2: "'frac' Diagonal Fractions in Latin lookup 0 subtable" one slash two
EndChar

StartChar: threequarters
Encoding: 190 190 128
Width: 514
VWidth: 961
Flags: W
LayerCount: 2
Fore
SplineSet
169.049804688 3.0751953125 m 1,0,-1
 124.049804688 3.0751953125 l 1,1,-1
 382.349609375 461.924804688 l 1,2,-1
 427.349609375 461.924804688 l 1,3,-1
 169.049804688 3.0751953125 l 1,0,-1
227.549804688 282.375 m 0,4,5
 227.549804688 257.674804688 227.549804688 257.674804688 218.549804688 238.674804688 c 128,-1,6
 209.549804688 219.674804688 209.549804688 219.674804688 195.150390625 206.849609375 c 128,-1,7
 180.75 194.025390625 180.75 194.025390625 161.400390625 187.375 c 128,-1,8
 142.049804688 180.724609375 142.049804688 180.724609375 122.25 180.724609375 c 0,9,10
 85.349609375 180.724609375 85.349609375 180.724609375 54.75 204.474609375 c 1,11,-1
 72.75 245.325195312 l 1,12,13
 85.349609375 234.875 85.349609375 234.875 97.9501953125 229.650390625 c 128,-1,14
 110.549804688 224.424804688 110.549804688 224.424804688 123.150390625 224.424804688 c 0,15,16
 151.950195312 224.424804688 151.950195312 224.424804688 168.599609375 240.575195312 c 128,-1,17
 185.25 256.724609375 185.25 256.724609375 185.25 281.424804688 c 0,18,19
 185.25 314.674804688 185.25 314.674804688 155.549804688 314.674804688 c 0,20,21
 133.049804688 314.674804688 133.049804688 314.674804688 114.150390625 297.575195312 c 1,22,-1
 99.75 326.075195312 l 1,23,24
 139.349609375 347.924804688 139.349609375 347.924804688 153.299804688 365.025390625 c 128,-1,25
 167.25 382.125 167.25 382.125 167.25 401.125 c 0,26,27
 167.25 408.724609375 167.25 408.724609375 161.849609375 413.950195312 c 128,-1,28
 156.450195312 419.174804688 156.450195312 419.174804688 144.75 419.174804688 c 0,29,30
 108.75 419.174804688 108.75 419.174804688 93.4501953125 372.625 c 1,31,-1
 60.150390625 390.674804688 l 1,32,33
 87.150390625 459.075195312 87.150390625 459.075195312 147.450195312 459.075195312 c 0,34,35
 178.950195312 459.075195312 178.950195312 459.075195312 193.799804688 443.875 c 128,-1,36
 208.650390625 428.674804688 208.650390625 428.674804688 208.650390625 407.775390625 c 0,37,38
 208.650390625 375.474609375 208.650390625 375.474609375 180.75 348.875 c 1,39,40
 205.049804688 345.075195312 205.049804688 345.075195312 216.299804688 327.025390625 c 128,-1,41
 227.549804688 308.974609375 227.549804688 308.974609375 227.549804688 282.375 c 0,4,5
400.349609375 114.224609375 m 1,42,-1
 400.349609375 226.325195312 l 1,43,44
 379.650390625 207.325195312 379.650390625 207.325195312 364.799804688 175.5 c 128,-1,45
 349.950195312 143.674804688 349.950195312 143.674804688 346.349609375 114.224609375 c 1,46,-1
 400.349609375 114.224609375 l 1,42,-1
444.450195312 11.625 m 1,47,-1
 400.349609375 11.625 l 1,48,-1
 400.349609375 68.625 l 1,49,-1
 299.549804688 68.625 l 1,50,51
 299.549804688 99.025390625 299.549804688 99.025390625 308.549804688 137.025390625 c 128,-1,52
 317.549804688 175.025390625 317.549804688 175.025390625 335.549804688 208.75 c 128,-1,53
 353.549804688 242.474609375 353.549804688 242.474609375 381.900390625 265.75 c 128,-1,54
 410.25 289.025390625 410.25 289.025390625 444.450195312 289.974609375 c 1,55,-1
 444.450195312 114.224609375 l 1,56,-1
 482.25 114.224609375 l 1,57,-1
 480.450195312 68.625 l 1,58,-1
 444.450195312 68.625 l 1,59,-1
 444.450195312 11.625 l 1,47,-1
EndSplineSet
Ligature2: "'frac' Diagonal Fractions in Latin lookup 0 subtable" three fraction four
Ligature2: "'frac' Diagonal Fractions in Latin lookup 0 subtable" three slash four
EndChar

StartChar: questiondown
Encoding: 191 191 129
Width: 274
VWidth: 954
Flags: W
LayerCount: 2
Fore
SplineSet
252.950195312 -103.549804688 m 1,0,1
 199.849609375 -138.700195312 199.849609375 -138.700195312 149.450195312 -138.700195312 c 0,2,3
 98.150390625 -138.700195312 98.150390625 -138.700195312 67.099609375 -109.724609375 c 128,-1,4
 36.0498046875 -80.75 36.0498046875 -80.75 36.0498046875 -32.2998046875 c 0,5,6
 36.0498046875 18.0498046875 36.0498046875 18.0498046875 95.4501953125 82.650390625 c 0,7,8
 116.150390625 104.5 116.150390625 104.5 126.049804688 126.825195312 c 128,-1,9
 135.950195312 149.150390625 135.950195312 149.150390625 136.849609375 169.099609375 c 0,10,11
 136.849609375 185.25 136.849609375 185.25 130.549804688 209 c 1,12,-1
 181.849609375 209 l 1,13,14
 186.349609375 195.700195312 186.349609375 195.700195312 188.599609375 184.775390625 c 128,-1,15
 190.849609375 173.849609375 190.849609375 173.849609375 190.849609375 166.25 c 0,16,17
 190.849609375 114 190.849609375 114 138.650390625 56.0498046875 c 0,18,19
 92.75 4.75 92.75 4.75 92.75 -30.400390625 c 0,20,21
 92.75 -84.5498046875 92.75 -84.5498046875 155.75 -84.5498046875 c 0,22,23
 194.450195312 -84.5498046875 194.450195312 -84.5498046875 230.450195312 -57 c 1,24,-1
 252.950195312 -103.549804688 l 1,0,1
195.349609375 283.099609375 m 256,25,26
 195.349609375 264.099609375 195.349609375 264.099609375 182.75 250.799804688 c 128,-1,27
 170.150390625 237.5 170.150390625 237.5 153.049804688 237.5 c 256,28,29
 135.950195312 237.5 135.950195312 237.5 123.349609375 250.799804688 c 128,-1,30
 110.75 264.099609375 110.75 264.099609375 110.75 283.099609375 c 256,31,32
 110.75 302.099609375 110.75 302.099609375 123.349609375 315.400390625 c 128,-1,33
 135.950195312 328.700195312 135.950195312 328.700195312 153.049804688 328.700195312 c 256,34,35
 170.150390625 328.700195312 170.150390625 328.700195312 182.75 315.400390625 c 128,-1,36
 195.349609375 302.099609375 195.349609375 302.099609375 195.349609375 283.099609375 c 256,25,26
EndSplineSet
EndChar

StartChar: AE
Encoding: 198 198 136
Width: 551
VWidth: 962
Flags: W
LayerCount: 2
Fore
SplineSet
526.75 12.0751953125 m 1,0,-1
 320.650390625 12.0751953125 l 1,1,-1
 296.349609375 192.575195312 l 1,2,-1
 170.349609375 192.575195312 l 1,3,-1
 79.4501953125 12.0751953125 l 1,4,-1
 18.25 12.0751953125 l 1,5,-1
 251.349609375 470.924804688 l 1,6,-1
 515.950195312 470.924804688 l 1,7,-1
 515.950195312 418.674804688 l 1,8,-1
 319.75 418.674804688 l 1,9,-1
 336.849609375 279.025390625 l 1,10,-1
 506.950195312 279.025390625 l 1,11,-1
 506.950195312 226.775390625 l 1,12,-1
 344.950195312 226.775390625 l 1,13,-1
 368.349609375 64.3251953125 l 1,14,-1
 526.75 64.3251953125 l 1,15,-1
 526.75 12.0751953125 l 1,0,-1
289.150390625 243.875 m 1,16,-1
 272.049804688 396.825195312 l 1,17,-1
 194.650390625 243.875 l 1,18,-1
 289.150390625 243.875 l 1,16,-1
EndSplineSet
EndChar

StartChar: Eth
Encoding: 208 208 146
Width: 435
VWidth: 961
Flags: W
LayerCount: 2
Fore
SplineSet
411.799804688 247.525390625 m 0,0,1
 411.799804688 144.924804688 411.799804688 144.924804688 365 83.1748046875 c 0,2,3
 307.400390625 8.125 307.400390625 8.125 187.700195312 8.125 c 0,4,5
 150.799804688 8.125 150.799804688 8.125 67.099609375 17.625 c 1,6,-1
 67.099609375 207.625 l 1,7,-1
 30.2001953125 207.625 l 1,8,-1
 30.2001953125 258.924804688 l 1,9,-1
 67.099609375 258.924804688 l 1,10,-1
 67.099609375 456.525390625 l 1,11,12
 169.700195312 468.875 169.700195312 468.875 205.700195312 468.875 c 0,13,14
 315.5 468.875 315.5 468.875 368.599609375 399.525390625 c 0,15,16
 411.799804688 343.474609375 411.799804688 343.474609375 411.799804688 247.525390625 c 0,0,1
354.200195312 247.525390625 m 0,17,18
 354.200195312 417.575195312 354.200195312 417.575195312 203 417.575195312 c 0,19,20
 177.799804688 417.575195312 177.799804688 417.575195312 123.799804688 411.875 c 1,21,-1
 123.799804688 258.924804688 l 1,22,-1
 267.799804688 258.924804688 l 1,23,-1
 267.799804688 207.625 l 1,24,-1
 123.799804688 207.625 l 1,25,-1
 123.799804688 62.275390625 l 1,26,27
 153.5 59.4248046875 153.5 59.4248046875 198.5 59.4248046875 c 0,28,29
 285.799804688 59.4248046875 285.799804688 59.4248046875 325.400390625 124.974609375 c 0,30,31
 354.200195312 173.424804688 354.200195312 173.424804688 354.200195312 247.525390625 c 0,17,18
EndSplineSet
EndChar

StartChar: multiply
Encoding: 215 215 153
Width: 396
VWidth: 959
Flags: W
LayerCount: 2
Fore
SplineSet
371.849609375 41.474609375 m 1,0,-1
 335.849609375 4.4248046875 l 1,1,-1
 208.049804688 145.025390625 l 1,2,3
 176.549804688 111.775390625 176.549804688 111.775390625 144.150390625 74.724609375 c 128,-1,4
 111.75 37.6748046875 111.75 37.6748046875 81.150390625 4.4248046875 c 1,5,-1
 45.150390625 41.474609375 l 1,6,-1
 172.950195312 182.075195312 l 1,7,8
 141.450195312 217.224609375 141.450195312 217.224609375 109.049804688 253.799804688 c 128,-1,9
 76.650390625 290.375 76.650390625 290.375 45.150390625 325.525390625 c 1,10,-1
 81.150390625 362.575195312 l 1,11,-1
 208.950195312 221.974609375 l 1,12,13
 239.549804688 256.174804688 239.549804688 256.174804688 272.849609375 292.75 c 128,-1,14
 306.150390625 329.325195312 306.150390625 329.325195312 335.849609375 362.575195312 c 1,15,-1
 371.849609375 325.525390625 l 1,16,-1
 243.150390625 183.025390625 l 1,17,-1
 371.849609375 41.474609375 l 1,0,-1
EndSplineSet
EndChar

StartChar: Oslash
Encoding: 216 216 154
Width: 492
VWidth: 961
Flags: W
LayerCount: 2
Fore
SplineSet
468.700195312 236.75 m 256,0,1
 468.700195312 137 468.700195312 137 410.200195312 69.5498046875 c 128,-1,2
 351.700195312 2.099609375 351.700195312 2.099609375 259 2.099609375 c 0,3,4
 216.700195312 2.099609375 216.700195312 2.099609375 181.599609375 15.400390625 c 1,5,-1
 167.200195312 -15 l 1,6,-1
 109.599609375 -15 l 1,7,-1
 136.599609375 41.0498046875 l 1,8,9
 121.299804688 53.400390625 121.299804688 53.400390625 107.799804688 69.5498046875 c 0,10,11
 49.2998046875 137 49.2998046875 137 49.2998046875 236.75 c 256,12,13
 49.2998046875 336.5 49.2998046875 336.5 107.799804688 404.424804688 c 128,-1,14
 166.299804688 472.349609375 166.299804688 472.349609375 259 472.349609375 c 0,15,16
 303.099609375 472.349609375 303.099609375 472.349609375 339.099609375 457.150390625 c 1,17,-1
 349.900390625 479 l 1,18,-1
 407.5 479 l 1,19,-1
 383.200195312 429.599609375 l 1,20,21
 397.599609375 418.200195312 397.599609375 418.200195312 410.200195312 403.950195312 c 0,22,23
 468.700195312 336.5 468.700195312 336.5 468.700195312 236.75 c 256,0,1
316.599609375 409.650390625 m 1,24,25
 290.5 421.049804688 290.5 421.049804688 259 421.049804688 c 0,26,27
 189.700195312 421.049804688 189.700195312 421.049804688 147.400390625 368.325195312 c 128,-1,28
 105.099609375 315.599609375 105.099609375 315.599609375 105.099609375 237.700195312 c 256,29,30
 105.099609375 159.799804688 105.099609375 159.799804688 147.400390625 106.599609375 c 0,31,32
 153.700195312 98.0498046875 153.700195312 98.0498046875 160.900390625 91.400390625 c 1,33,-1
 316.599609375 409.650390625 l 1,24,25
412.900390625 237.700195312 m 256,34,35
 412.900390625 315.599609375 412.900390625 315.599609375 370.599609375 367.849609375 c 0,36,37
 365.200195312 374.5 365.200195312 374.5 359.799804688 380.200195312 c 1,38,-1
 205 63.849609375 l 1,39,40
 229.299804688 54.349609375 229.299804688 54.349609375 259 54.349609375 c 0,41,42
 328.299804688 54.349609375 328.299804688 54.349609375 370.599609375 107.075195312 c 128,-1,43
 412.900390625 159.799804688 412.900390625 159.799804688 412.900390625 237.700195312 c 256,34,35
EndSplineSet
EndChar

StartChar: Thorn
Encoding: 222 222 160
Width: 375
VWidth: 961
Flags: W
LayerCount: 2
Fore
SplineSet
341.799804688 248.450195312 m 256,0,1
 341.799804688 175.299804688 341.799804688 175.299804688 295.900390625 136.825195312 c 128,-1,2
 250 98.349609375 250 98.349609375 168.099609375 98.349609375 c 0,3,4
 139.299804688 98.349609375 139.299804688 98.349609375 121.299804688 102.150390625 c 1,5,-1
 121.299804688 11.900390625 l 1,6,-1
 68.2001953125 11.900390625 l 1,7,-1
 68.2001953125 464.099609375 l 1,8,-1
 121.299804688 464.099609375 l 1,9,-1
 121.299804688 394.75 l 1,10,11
 139.299804688 398.549804688 139.299804688 398.549804688 168.099609375 398.549804688 c 0,12,13
 250 398.549804688 250 398.549804688 295.900390625 360.075195312 c 128,-1,14
 341.799804688 321.599609375 341.799804688 321.599609375 341.799804688 248.450195312 c 256,0,1
289.599609375 248.450195312 m 256,15,16
 289.599609375 349.150390625 289.599609375 349.150390625 169.900390625 349.150390625 c 0,17,18
 142 349.150390625 142 349.150390625 121.299804688 341.549804688 c 1,19,-1
 121.299804688 155.349609375 l 1,20,21
 142 147.75 142 147.75 169.900390625 147.75 c 0,22,23
 289.599609375 147.75 289.599609375 147.75 289.599609375 248.450195312 c 256,15,16
EndSplineSet
EndChar

StartChar: germandbls
Encoding: 223 223 161
Width: 403
VWidth: 958
Flags: W
LayerCount: 2
Fore
SplineSet
359.5 112.275390625 m 0,0,1
 359.5 60.025390625 359.5 60.025390625 328.450195312 30.099609375 c 128,-1,2
 297.400390625 0.1748046875 297.400390625 0.1748046875 245.200195312 0.1748046875 c 0,3,4
 221.799804688 0.1748046875 221.799804688 0.1748046875 200.650390625 6.349609375 c 128,-1,5
 179.5 12.525390625 179.5 12.525390625 158.799804688 23.9248046875 c 1,6,-1
 176.799804688 75.224609375 l 1,7,8
 217.299804688 52.4248046875 217.299804688 52.4248046875 246.099609375 52.4248046875 c 256,9,10
 274.900390625 52.4248046875 274.900390625 52.4248046875 291.099609375 68.099609375 c 128,-1,11
 307.299804688 83.775390625 307.299804688 83.775390625 307.299804688 106.575195312 c 0,12,13
 307.299804688 127.474609375 307.299804688 127.474609375 293.799804688 143.625 c 128,-1,14
 280.299804688 159.775390625 280.299804688 159.775390625 263.650390625 175.450195312 c 128,-1,15
 247 191.125 247 191.125 233.5 208.224609375 c 128,-1,16
 220 225.325195312 220 225.325195312 220 248.125 c 0,17,18
 220 260.474609375 220 260.474609375 229 275.200195312 c 128,-1,19
 238 289.924804688 238 289.924804688 249.25 304.650390625 c 128,-1,20
 260.5 319.375 260.5 319.375 269.5 333.150390625 c 128,-1,21
 278.5 346.924804688 278.5 346.924804688 278.5 358.325195312 c 0,22,23
 278.5 421.974609375 278.5 421.974609375 213.700195312 421.974609375 c 0,24,25
 138.099609375 421.974609375 138.099609375 421.974609375 138.099609375 275.674804688 c 2,26,-1
 138.099609375 -29.275390625 l 2,27,28
 138.099609375 -53.974609375 138.099609375 -53.974609375 132.25 -78.6748046875 c 128,-1,29
 126.400390625 -103.375 126.400390625 -103.375 113.799804688 -127.125 c 1,30,-1
 62.5 -112.875 l 1,31,32
 74.2001953125 -89.125 74.2001953125 -89.125 79.150390625 -68.7001953125 c 128,-1,33
 84.099609375 -48.275390625 84.099609375 -48.275390625 84.099609375 -29.275390625 c 2,34,-1
 84.099609375 290.875 l 2,35,36
 84.099609375 476.125 84.099609375 476.125 220 476.125 c 0,37,38
 268.599609375 476.125 268.599609375 476.125 299.650390625 445.25 c 128,-1,39
 330.700195312 414.375 330.700195312 414.375 330.700195312 360.224609375 c 0,40,41
 330.700195312 338.375 330.700195312 338.375 321.700195312 320.799804688 c 128,-1,42
 312.700195312 303.224609375 312.700195312 303.224609375 302.349609375 288.974609375 c 128,-1,43
 292 274.724609375 292 274.724609375 283 264.275390625 c 128,-1,44
 274 253.825195312 274 253.825195312 274 245.275390625 c 0,45,46
 274 235.775390625 274 235.775390625 287.5 222.950195312 c 128,-1,47
 301 210.125 301 210.125 316.75 193.025390625 c 128,-1,48
 332.5 175.924804688 332.5 175.924804688 346 155.974609375 c 128,-1,49
 359.5 136.025390625 359.5 136.025390625 359.5 112.275390625 c 0,0,1
EndSplineSet
EndChar

StartChar: ae
Encoding: 230 230 168
Width: 589
VWidth: 958
Flags: W
LayerCount: 2
Fore
SplineSet
553.049804688 25.724609375 m 1,0,1
 491.849609375 0.0751953125 491.849609375 0.0751953125 427.049804688 0.0751953125 c 0,2,3
 338.849609375 0.0751953125 338.849609375 0.0751953125 292.049804688 66.5751953125 c 1,4,5
 258.75 0.0751953125 258.75 0.0751953125 163.349609375 0.0751953125 c 0,6,7
 140.849609375 0.0751953125 140.849609375 0.0751953125 121.049804688 6.724609375 c 128,-1,8
 101.25 13.375 101.25 13.375 86.400390625 25.724609375 c 128,-1,9
 71.5498046875 38.0751953125 71.5498046875 38.0751953125 63 56.125 c 128,-1,10
 54.4501953125 74.1748046875 54.4501953125 74.1748046875 54.4501953125 96.974609375 c 0,11,12
 54.4501953125 220.474609375 54.4501953125 220.474609375 259.650390625 222.375 c 1,13,14
 257.849609375 254.674804688 257.849609375 254.674804688 238.950195312 275.099609375 c 128,-1,15
 220.049804688 295.525390625 220.049804688 295.525390625 185.849609375 295.525390625 c 0,16,17
 157.049804688 295.525390625 157.049804688 295.525390625 79.650390625 270.825195312 c 1,18,-1
 72.4501953125 324.974609375 l 1,19,20
 135.450195312 344.924804688 135.450195312 344.924804688 189.450195312 344.924804688 c 0,21,22
 229.950195312 344.924804688 229.950195312 344.924804688 256.5 332.099609375 c 128,-1,23
 283.049804688 319.275390625 283.049804688 319.275390625 298.349609375 286.974609375 c 1,24,25
 341.549804688 344.924804688 341.549804688 344.924804688 423.450195312 344.924804688 c 0,26,27
 562.049804688 344.924804688 562.049804688 344.924804688 566.549804688 160.625 c 1,28,-1
 315.450195312 160.625 l 1,29,30
 319.950195312 108.375 319.950195312 108.375 351 80.8251953125 c 128,-1,31
 382.049804688 53.275390625 382.049804688 53.275390625 430.650390625 53.275390625 c 0,32,33
 482.849609375 53.275390625 482.849609375 53.275390625 548.549804688 77.974609375 c 1,34,-1
 553.049804688 25.724609375 l 1,0,1
259.650390625 170.125 m 1,35,36
 183.150390625 169.174804688 183.150390625 169.174804688 148.5 152.549804688 c 128,-1,37
 113.849609375 135.924804688 113.849609375 135.924804688 113.849609375 102.674804688 c 0,38,39
 113.849609375 77.974609375 113.849609375 77.974609375 128.700195312 65.150390625 c 128,-1,40
 143.549804688 52.3251953125 143.549804688 52.3251953125 165.150390625 52.3251953125 c 0,41,42
 208.349609375 52.3251953125 208.349609375 52.3251953125 234 77.974609375 c 128,-1,43
 259.650390625 103.625 259.650390625 103.625 259.650390625 149.224609375 c 2,44,-1
 259.650390625 170.125 l 1,35,36
510.75 210.974609375 m 1,45,46
 504.450195312 246.125 504.450195312 246.125 481.049804688 270.825195312 c 128,-1,47
 457.650390625 295.525390625 457.650390625 295.525390625 419.849609375 295.525390625 c 0,48,49
 380.25 295.525390625 380.25 295.525390625 354.599609375 273.200195312 c 128,-1,50
 328.950195312 250.875 328.950195312 250.875 320.849609375 210.974609375 c 1,51,-1
 510.75 210.974609375 l 1,45,46
EndSplineSet
EndChar

StartChar: eth
Encoding: 240 240 178
Width: 359
VWidth: 961
Flags: W
LayerCount: 2
Fore
SplineSet
325.75 166.400390625 m 0,0,1
 325.75 89.4501953125 325.75 89.4501953125 284.799804688 42.900390625 c 128,-1,2
 243.849609375 -3.650390625 243.849609375 -3.650390625 180.849609375 -3.650390625 c 0,3,4
 124.150390625 -3.650390625 124.150390625 -3.650390625 87.7001953125 39.5751953125 c 128,-1,5
 51.25 82.7998046875 51.25 82.7998046875 51.25 146.450195312 c 0,6,7
 51.25 209.150390625 51.25 209.150390625 88.150390625 251.900390625 c 128,-1,8
 125.049804688 294.650390625 125.049804688 294.650390625 179.049804688 294.650390625 c 256,9,10
 233.049804688 294.650390625 233.049804688 294.650390625 259.150390625 264.25 c 1,11,12
 237.549804688 311.75 237.549804688 311.75 182.650390625 357.349609375 c 0,13,14
 181.75 358.299804688 181.75 358.299804688 180.849609375 358.299804688 c 2,15,-1
 89.9501953125 308.900390625 l 1,16,-1
 65.650390625 350.700195312 l 1,17,-1
 137.650390625 389.650390625 l 1,18,19
 105.25 408.650390625 105.25 408.650390625 73.75 418.150390625 c 1,20,-1
 79.150390625 465.650390625 l 1,21,22
 142.150390625 452.349609375 142.150390625 452.349609375 191.650390625 419.099609375 c 1,23,-1
 273.549804688 463.75 l 1,24,-1
 293.349609375 420.049804688 l 1,25,-1
 232.150390625 386.799804688 l 1,26,27
 325.75 291.799804688 325.75 291.799804688 325.75 166.400390625 c 0,0,1
264.549804688 146.450195312 m 0,28,29
 264.549804688 187.299804688 264.549804688 187.299804688 240.700195312 215.325195312 c 128,-1,30
 216.849609375 243.349609375 216.849609375 243.349609375 182.650390625 243.349609375 c 0,31,32
 150.25 243.349609375 150.25 243.349609375 126.849609375 213.900390625 c 128,-1,33
 103.450195312 184.450195312 103.450195312 184.450195312 103.450195312 146.450195312 c 256,34,35
 103.450195312 108.450195312 103.450195312 108.450195312 126.849609375 79 c 128,-1,36
 150.25 49.5498046875 150.25 49.5498046875 182.650390625 49.5498046875 c 0,37,38
 216.849609375 49.5498046875 216.849609375 49.5498046875 240.700195312 78.0498046875 c 128,-1,39
 264.549804688 106.549804688 264.549804688 106.549804688 264.549804688 146.450195312 c 0,28,29
EndSplineSet
EndChar

StartChar: divide
Encoding: 247 247 185
Width: 396
VWidth: 959
Flags: W
LayerCount: 2
Fore
SplineSet
372.75 158.375 m 1,0,-1
 44.25 158.375 l 1,1,-1
 44.25 209.674804688 l 1,2,-1
 372.75 209.674804688 l 1,3,-1
 372.75 158.375 l 1,0,-1
252.150390625 62.4248046875 m 256,4,5
 252.150390625 43.4248046875 252.150390625 43.4248046875 239.549804688 30.125 c 128,-1,6
 226.950195312 16.8251953125 226.950195312 16.8251953125 209.849609375 16.8251953125 c 256,7,8
 192.75 16.8251953125 192.75 16.8251953125 180.150390625 30.125 c 128,-1,9
 167.549804688 43.4248046875 167.549804688 43.4248046875 167.549804688 62.4248046875 c 256,10,11
 167.549804688 81.4248046875 167.549804688 81.4248046875 180.150390625 94.724609375 c 128,-1,12
 192.75 108.025390625 192.75 108.025390625 209.849609375 108.025390625 c 256,13,14
 226.950195312 108.025390625 226.950195312 108.025390625 239.549804688 94.724609375 c 128,-1,15
 252.150390625 81.4248046875 252.150390625 81.4248046875 252.150390625 62.4248046875 c 256,4,5
252.150390625 306.575195312 m 256,16,17
 252.150390625 287.575195312 252.150390625 287.575195312 239.549804688 274.275390625 c 128,-1,18
 226.950195312 260.974609375 226.950195312 260.974609375 209.849609375 260.974609375 c 256,19,20
 192.75 260.974609375 192.75 260.974609375 180.150390625 274.275390625 c 128,-1,21
 167.549804688 287.575195312 167.549804688 287.575195312 167.549804688 306.575195312 c 256,22,23
 167.549804688 325.575195312 167.549804688 325.575195312 180.150390625 338.875 c 128,-1,24
 192.75 352.174804688 192.75 352.174804688 209.849609375 352.174804688 c 256,25,26
 226.950195312 352.174804688 226.950195312 352.174804688 239.549804688 338.875 c 128,-1,27
 252.150390625 325.575195312 252.150390625 325.575195312 252.150390625 306.575195312 c 256,16,17
EndSplineSet
EndChar

StartChar: oslash
Encoding: 248 248 186
Width: 391
VWidth: 958
Flags: W
LayerCount: 2
Fore
SplineSet
368 172.150390625 m 256,0,1
 368 99.9501953125 368 99.9501953125 322.099609375 50.5498046875 c 128,-1,2
 276.200195312 1.150390625 276.200195312 1.150390625 206 1.150390625 c 0,3,4
 176.299804688 1.150390625 176.299804688 1.150390625 151.099609375 9.7001953125 c 1,5,-1
 137.599609375 -17.849609375 l 1,6,-1
 80 -17.849609375 l 1,7,-1
 106.099609375 35.349609375 l 1,8,9
 97.099609375 42 97.099609375 42 89.900390625 50.5498046875 c 0,10,11
 44 99.9501953125 44 99.9501953125 44 172.150390625 c 256,12,13
 44 244.349609375 44 244.349609375 89.900390625 294.224609375 c 128,-1,14
 135.799804688 344.099609375 135.799804688 344.099609375 206 344.099609375 c 0,15,16
 231.200195312 344.099609375 231.200195312 344.099609375 253.700195312 337.450195312 c 1,17,-1
 269 367.849609375 l 1,18,-1
 326.599609375 367.849609375 l 1,19,-1
 300.5 313.700195312 l 1,20,21
 311.299804688 305.150390625 311.299804688 305.150390625 322.099609375 293.75 c 0,22,23
 368 244.349609375 368 244.349609375 368 172.150390625 c 256,0,1
312.200195312 172.150390625 m 256,24,25
 312.200195312 223.450195312 312.200195312 223.450195312 282.5 257.650390625 c 0,26,27
 278.900390625 261.450195312 278.900390625 261.450195312 276.200195312 264.299804688 c 1,28,-1
 173.599609375 56.25 l 1,29,30
 188.900390625 51.5 188.900390625 51.5 206 51.5 c 0,31,32
 252.799804688 51.5 252.799804688 51.5 282.5 86.1748046875 c 128,-1,33
 312.200195312 120.849609375 312.200195312 120.849609375 312.200195312 172.150390625 c 256,24,25
230.299804688 289.950195312 m 1,34,35
 218.599609375 292.799804688 218.599609375 292.799804688 206 292.799804688 c 0,36,37
 159.200195312 292.799804688 159.200195312 292.799804688 129.5 258.125 c 128,-1,38
 99.7998046875 223.450195312 99.7998046875 223.450195312 99.7998046875 172.150390625 c 256,39,40
 99.7998046875 120.849609375 99.7998046875 120.849609375 129.5 85.7001953125 c 2,41,-1
 130.400390625 84.75 l 1,42,-1
 230.299804688 289.950195312 l 1,34,35
EndSplineSet
EndChar

StartChar: thorn
Encoding: 254 254 192
Width: 417
VWidth: 958
Flags: W
LayerCount: 2
Fore
SplineSet
384.650390625 178.599609375 m 0,0,1
 384.650390625 98.7998046875 384.650390625 98.7998046875 340.099609375 49.400390625 c 128,-1,2
 295.549804688 0 295.549804688 0 225.349609375 0 c 0,3,4
 165.049804688 0 165.049804688 0 125.450195312 38.9501953125 c 1,5,-1
 125.450195312 -118.75 l 1,6,-1
 72.349609375 -118.75 l 1,7,-1
 72.349609375 460.75 l 1,8,-1
 125.450195312 460.75 l 1,9,-1
 125.450195312 300.200195312 l 1,10,11
 170.450195312 344.849609375 170.450195312 344.849609375 234.349609375 344.849609375 c 0,12,13
 300.049804688 344.849609375 300.049804688 344.849609375 342.349609375 297.825195312 c 128,-1,14
 384.650390625 250.799804688 384.650390625 250.799804688 384.650390625 178.599609375 c 0,0,1
332.450195312 177.650390625 m 0,15,16
 332.450195312 228.950195312 332.450195312 228.950195312 303.650390625 262.200195312 c 128,-1,17
 274.849609375 295.450195312 274.849609375 295.450195312 228.950195312 295.450195312 c 0,18,19
 186.650390625 295.450195312 186.650390625 295.450195312 156.049804688 267.424804688 c 128,-1,20
 125.450195312 239.400390625 125.450195312 239.400390625 125.450195312 194.75 c 2,21,-1
 125.450195312 140.599609375 l 2,22,23
 125.450195312 104.5 125.450195312 104.5 156.5 78.375 c 128,-1,24
 187.549804688 52.25 187.549804688 52.25 228.049804688 52.25 c 0,25,26
 274.849609375 52.25 274.849609375 52.25 303.650390625 85.5 c 128,-1,27
 332.450195312 118.75 332.450195312 118.75 332.450195312 177.650390625 c 0,15,16
EndSplineSet
EndChar

StartChar: dotlessi
Encoding: 305 305 194
Width: 154
VWidth: 958
Flags: W
LayerCount: 2
Fore
SplineSet
109.849609375 8.5 m 1,0,-1
 53.150390625 8.5 l 1,1,-1
 53.150390625 331.5 l 1,2,-1
 109.849609375 331.5 l 1,3,-1
 109.849609375 8.5 l 1,0,-1
EndSplineSet
EndChar

StartChar: Lslash
Encoding: 321 321 195
Width: 341
VWidth: 961
Flags: W
LayerCount: 2
Fore
SplineSet
329.75 11.900390625 m 1,0,-1
 63.349609375 11.900390625 l 1,1,-1
 63.349609375 153.450195312 l 1,2,-1
 37.25 146.799804688 l 1,3,-1
 37.25 205.700195312 l 1,4,-1
 63.349609375 212.349609375 l 1,5,-1
 63.349609375 464.099609375 l 1,6,-1
 120.049804688 464.099609375 l 1,7,-1
 120.049804688 226.599609375 l 1,8,-1
 322.549804688 276.950195312 l 1,9,-1
 322.549804688 218.049804688 l 1,10,-1
 120.049804688 167.700195312 l 1,11,-1
 120.049804688 63.2001953125 l 1,12,-1
 329.75 63.2001953125 l 1,13,-1
 329.75 11.900390625 l 1,0,-1
EndSplineSet
EndChar

StartChar: lslash
Encoding: 322 322 196
Width: 206
VWidth: 962
Flags: W
LayerCount: 2
Fore
SplineSet
197.049804688 58.9501953125 m 1,0,-1
 190.75 4.7998046875 l 1,1,2
 56.650390625 12.400390625 56.650390625 12.400390625 56.650390625 178.650390625 c 2,3,-1
 56.650390625 236.599609375 l 1,4,-1
 17.9501953125 225.200195312 l 1,5,-1
 17.9501953125 276.5 l 1,6,-1
 56.650390625 287.900390625 l 1,7,-1
 56.650390625 491.200195312 l 1,8,-1
 113.349609375 491.200195312 l 1,9,-1
 113.349609375 305.950195312 l 1,10,-1
 197.049804688 332.549804688 l 1,11,-1
 197.049804688 281.25 l 1,12,-1
 113.349609375 254.650390625 l 1,13,-1
 113.349609375 191.950195312 l 2,14,15
 113.349609375 118.799804688 113.349609375 118.799804688 134.950195312 88.400390625 c 0,16,17
 153.849609375 62.75 153.849609375 62.75 197.049804688 58.9501953125 c 1,0,-1
EndSplineSet
EndChar

StartChar: OE
Encoding: 338 338 197
Width: 686
VWidth: 961
Flags: W
LayerCount: 2
Fore
SplineSet
664.400390625 11.900390625 m 1,0,-1
 409.700195312 11.900390625 l 1,1,-1
 409.700195312 37.5498046875 l 1,2,3
 355.700195312 2.400390625 355.700195312 2.400390625 287.299804688 2.400390625 c 0,4,5
 187.400390625 2.400390625 187.400390625 2.400390625 123.5 69.849609375 c 128,-1,6
 59.599609375 137.299804688 59.599609375 137.299804688 59.599609375 238 c 0,7,8
 59.599609375 337.75 59.599609375 337.75 123.5 405.674804688 c 128,-1,9
 187.400390625 473.599609375 187.400390625 473.599609375 287.299804688 473.599609375 c 0,10,11
 355.700195312 473.599609375 355.700195312 473.599609375 409.700195312 437.5 c 1,12,-1
 409.700195312 464.099609375 l 1,13,-1
 664.400390625 464.099609375 l 1,14,-1
 664.400390625 412.799804688 l 1,15,-1
 466.400390625 412.799804688 l 1,16,-1
 466.400390625 276 l 1,17,-1
 642.799804688 276 l 1,18,-1
 642.799804688 224.700195312 l 1,19,-1
 466.400390625 224.700195312 l 1,20,-1
 466.400390625 63.2001953125 l 1,21,-1
 664.400390625 63.2001953125 l 1,22,-1
 664.400390625 11.900390625 l 1,0,-1
409.700195312 110.700195312 m 1,23,-1
 409.700195312 362.450195312 l 1,24,25
 363.799804688 421.349609375 363.799804688 421.349609375 287.299804688 421.349609375 c 0,26,27
 218.900390625 421.349609375 218.900390625 421.349609375 167.599609375 365.775390625 c 128,-1,28
 116.299804688 310.200195312 116.299804688 310.200195312 116.299804688 238 c 0,29,30
 116.299804688 163.900390625 116.299804688 163.900390625 167.150390625 108.799804688 c 128,-1,31
 218 53.7001953125 218 53.7001953125 287.299804688 53.7001953125 c 0,32,33
 363.799804688 53.7001953125 363.799804688 53.7001953125 409.700195312 110.700195312 c 1,23,-1
EndSplineSet
EndChar

StartChar: oe
Encoding: 339 339 198
Width: 654
VWidth: 958
Flags: W
LayerCount: 2
Fore
SplineSet
612.25 77.9501953125 m 1,0,-1
 618.549804688 25.7001953125 l 1,1,2
 552.849609375 0.0498046875 552.849609375 0.0498046875 493.450195312 0.0498046875 c 0,3,4
 402.549804688 0.0498046875 402.549804688 0.0498046875 352.150390625 70.349609375 c 1,5,6
 304.450195312 1 304.450195312 1 219.849609375 1 c 0,7,8
 149.650390625 1 149.650390625 1 103.75 50.400390625 c 128,-1,9
 57.849609375 99.7998046875 57.849609375 99.7998046875 57.849609375 172 c 256,10,11
 57.849609375 244.200195312 57.849609375 244.200195312 103.75 294.075195312 c 128,-1,12
 149.650390625 343.950195312 149.650390625 343.950195312 219.849609375 343.950195312 c 0,13,14
 307.150390625 343.950195312 307.150390625 343.950195312 353.049804688 270.799804688 c 1,15,16
 407.049804688 343.950195312 407.049804688 343.950195312 489.849609375 343.950195312 c 0,17,18
 628.450195312 343.950195312 628.450195312 343.950195312 631.150390625 160.599609375 c 1,19,-1
 381.849609375 160.599609375 l 1,20,21
 385.450195312 110.25 385.450195312 110.25 416.5 81.75 c 128,-1,22
 447.549804688 53.25 447.549804688 53.25 497.049804688 53.25 c 256,23,24
 546.549804688 53.25 546.549804688 53.25 612.25 77.9501953125 c 1,0,-1
326.049804688 172 m 256,25,26
 326.049804688 223.299804688 326.049804688 223.299804688 296.349609375 257.974609375 c 128,-1,27
 266.650390625 292.650390625 266.650390625 292.650390625 219.849609375 292.650390625 c 256,28,29
 173.049804688 292.650390625 173.049804688 292.650390625 143.349609375 257.974609375 c 128,-1,30
 113.650390625 223.299804688 113.650390625 223.299804688 113.650390625 172 c 256,31,32
 113.650390625 120.700195312 113.650390625 120.700195312 143.349609375 86.025390625 c 128,-1,33
 173.049804688 51.349609375 173.049804688 51.349609375 219.849609375 51.349609375 c 256,34,35
 266.650390625 51.349609375 266.650390625 51.349609375 296.349609375 86.025390625 c 128,-1,36
 326.049804688 120.700195312 326.049804688 120.700195312 326.049804688 172 c 256,25,26
385.450195312 210.950195312 m 1,37,-1
 575.349609375 210.950195312 l 1,38,39
 570.849609375 248.950195312 570.849609375 248.950195312 546.099609375 271.75 c 128,-1,40
 521.349609375 294.549804688 521.349609375 294.549804688 484.450195312 294.549804688 c 0,41,42
 448.450195312 294.549804688 448.450195312 294.549804688 420.099609375 271.275390625 c 128,-1,43
 391.75 248 391.75 248 385.450195312 210.950195312 c 1,37,-1
EndSplineSet
EndChar

StartChar: florin
Encoding: 402 402 204
Width: 382
VWidth: 960
Flags: W
LayerCount: 2
Fore
SplineSet
313.549804688 251.674804688 m 1,0,-1
 228.950195312 251.674804688 l 1,1,-1
 197.450195312 98.724609375 l 2,2,3
 165.950195312 -55.1748046875 165.950195312 -55.1748046875 53.4501953125 -55.1748046875 c 0,4,5
 18.349609375 -55.1748046875 18.349609375 -55.1748046875 -5.0498046875 -31.4248046875 c 1,6,-1
 18.349609375 10.375 l 1,7,8
 39.9501953125 -2.9248046875 39.9501953125 -2.9248046875 62.4501953125 -2.9248046875 c 0,9,10
 120.950195312 -2.9248046875 120.950195312 -2.9248046875 143.450195312 103.474609375 c 2,11,-1
 174.049804688 251.674804688 l 1,12,-1
 125.450195312 251.674804688 l 1,13,-1
 134.450195312 301.075195312 l 1,14,-1
 184.849609375 301.075195312 l 1,15,-1
 187.549804688 316.275390625 l 1,16,17
 205.549804688 390.375 205.549804688 390.375 241.549804688 430.275390625 c 128,-1,18
 277.549804688 470.174804688 277.549804688 470.174804688 331.549804688 470.174804688 c 0,19,20
 366.650390625 470.174804688 366.650390625 470.174804688 390.049804688 446.424804688 c 1,21,-1
 366.650390625 404.625 l 1,22,23
 345.049804688 417.924804688 345.049804688 417.924804688 322.549804688 417.924804688 c 0,24,25
 263.150390625 417.924804688 263.150390625 417.924804688 241.549804688 311.525390625 c 1,26,-1
 238.849609375 301.075195312 l 1,27,-1
 322.549804688 301.075195312 l 1,28,-1
 313.549804688 251.674804688 l 1,0,-1
EndSplineSet
EndChar

StartChar: circumflex
Encoding: 710 710 205
Width: 207
VWidth: 972
Flags: W
LayerCount: 2
Fore
SplineSet
194.5 387.875 m 1,0,-1
 145.900390625 387.875 l 1,1,-1
 109 455.325195312 l 1,2,-1
 73 387.875 l 1,3,-1
 23.5 387.875 l 1,4,-1
 93.7001953125 497.125 l 1,5,-1
 125.200195312 497.125 l 1,6,-1
 194.5 387.875 l 1,0,-1
EndSplineSet
EndChar

StartChar: caron
Encoding: 711 711 206
Width: 292
VWidth: 972
Flags: W
LayerCount: 2
Fore
SplineSet
169.299804688 387.875 m 1,0,-1
 137.799804688 387.875 l 1,1,-1
 68.5 497.125 l 1,2,-1
 117.099609375 497.125 l 1,3,-1
 154 429.674804688 l 1,4,-1
 190 497.125 l 1,5,-1
 239.5 497.125 l 1,6,-1
 169.299804688 387.875 l 1,0,-1
EndSplineSet
EndChar

StartChar: breve
Encoding: 728 728 207
Width: 324
VWidth: 971
Flags: W
LayerCount: 2
Fore
SplineSet
277.200195312 488.200195312 m 1,0,1
 268.200195312 434.049804688 268.200195312 434.049804688 241.200195312 407.924804688 c 128,-1,2
 214.200195312 381.799804688 214.200195312 381.799804688 171 381.799804688 c 256,3,4
 127.799804688 381.799804688 127.799804688 381.799804688 100.799804688 407.924804688 c 128,-1,5
 73.7998046875 434.049804688 73.7998046875 434.049804688 64.7998046875 488.200195312 c 1,6,-1
 113.400390625 488.200195312 l 1,7,8
 117.900390625 464.450195312 117.900390625 464.450195312 131.849609375 445.924804688 c 128,-1,9
 145.799804688 427.400390625 145.799804688 427.400390625 171 427.400390625 c 256,10,11
 196.200195312 427.400390625 196.200195312 427.400390625 210.599609375 445.924804688 c 128,-1,12
 225 464.450195312 225 464.450195312 229.5 488.200195312 c 1,13,-1
 277.200195312 488.200195312 l 1,0,1
EndSplineSet
EndChar

StartChar: dotaccent
Encoding: 729 729 208
Width: 183
VWidth: 977
Flags: W
LayerCount: 2
Fore
SplineSet
135.650390625 545 m 0,0,1
 135.650390625 526.950195312 135.650390625 526.950195312 123.950195312 515.075195312 c 128,-1,2
 112.25 503.200195312 112.25 503.200195312 96.9501953125 503.200195312 c 256,3,4
 81.650390625 503.200195312 81.650390625 503.200195312 69.5 515.075195312 c 128,-1,5
 57.349609375 526.950195312 57.349609375 526.950195312 57.349609375 545 c 0,6,7
 57.349609375 562.099609375 57.349609375 562.099609375 69.5 574.450195312 c 128,-1,8
 81.650390625 586.799804688 81.650390625 586.799804688 96.9501953125 586.799804688 c 256,9,10
 112.25 586.799804688 112.25 586.799804688 123.950195312 574.450195312 c 128,-1,11
 135.650390625 562.099609375 135.650390625 562.099609375 135.650390625 545 c 0,0,1
EndSplineSet
EndChar

StartChar: ring
Encoding: 730 730 209
Width: 252
VWidth: 973
Flags: W
LayerCount: 2
Fore
SplineSet
205 464 m 256,0,1
 205 432.650390625 205 432.650390625 183.849609375 410.325195312 c 128,-1,2
 162.700195312 388 162.700195312 388 133 388 c 256,3,4
 103.299804688 388 103.299804688 388 82.150390625 410.325195312 c 128,-1,5
 61 432.650390625 61 432.650390625 61 464 c 256,6,7
 61 495.349609375 61 495.349609375 82.150390625 517.674804688 c 128,-1,8
 103.299804688 540 103.299804688 540 133 540 c 256,9,10
 162.700195312 540 162.700195312 540 183.849609375 517.674804688 c 128,-1,11
 205 495.349609375 205 495.349609375 205 464 c 256,0,1
167.200195312 464 m 256,12,13
 167.200195312 479.200195312 167.200195312 479.200195312 157.299804688 489.650390625 c 128,-1,14
 147.400390625 500.099609375 147.400390625 500.099609375 133 500.099609375 c 256,15,16
 118.599609375 500.099609375 118.599609375 500.099609375 108.25 489.650390625 c 128,-1,17
 97.900390625 479.200195312 97.900390625 479.200195312 97.900390625 464 c 256,18,19
 97.900390625 448.799804688 97.900390625 448.799804688 108.25 437.875 c 128,-1,20
 118.599609375 426.950195312 118.599609375 426.950195312 133 426.950195312 c 256,21,22
 147.400390625 426.950195312 147.400390625 426.950195312 157.299804688 437.875 c 128,-1,23
 167.200195312 448.799804688 167.200195312 448.799804688 167.200195312 464 c 256,12,13
EndSplineSet
EndChar

StartChar: ogonek
Encoding: 731 731 210
Width: 242
VWidth: 946
Flags: W
LayerCount: 2
Fore
SplineSet
194.549804688 -132.549804688 m 1,0,1
 157.650390625 -148.700195312 157.650390625 -148.700195312 128.849609375 -148.700195312 c 0,2,3
 93.75 -148.700195312 93.75 -148.700195312 77.099609375 -126.849609375 c 128,-1,4
 60.4501953125 -105 60.4501953125 -105 60.4501953125 -75.5498046875 c 0,5,6
 60.4501953125 -57.5 60.4501953125 -57.5 65.400390625 -34.7001953125 c 128,-1,7
 70.349609375 -11.900390625 70.349609375 -11.900390625 77.5498046875 14.7001953125 c 1,8,-1
 130.650390625 14.7001953125 l 1,9,10
 111.75 -35.650390625 111.75 -35.650390625 111.75 -62.25 c 0,11,12
 111.75 -92.650390625 111.75 -92.650390625 136.950195312 -95.5 c 0,13,14
 146.849609375 -95.5 146.849609375 -95.5 162.599609375 -90.275390625 c 128,-1,15
 178.349609375 -85.0498046875 178.349609375 -85.0498046875 194.549804688 -77.4501953125 c 1,16,-1
 194.549804688 -132.549804688 l 1,0,1
EndSplineSet
EndChar

StartChar: tilde
Encoding: 732 732 211
Width: 245
VWidth: 970
Flags: W
LayerCount: 2
Fore
SplineSet
218 441.099609375 m 1,0,1
 217.099609375 407.849609375 217.099609375 407.849609375 204.049804688 388.375 c 128,-1,2
 191 368.900390625 191 368.900390625 164.900390625 368.900390625 c 0,3,4
 157.700195312 368.900390625 157.700195312 368.900390625 147.349609375 373.174804688 c 128,-1,5
 137 377.450195312 137 377.450195312 125.75 382.674804688 c 128,-1,6
 114.5 387.900390625 114.5 387.900390625 104.599609375 392.174804688 c 128,-1,7
 94.7001953125 396.450195312 94.7001953125 396.450195312 88.400390625 396.450195312 c 0,8,9
 81.2001953125 396.450195312 81.2001953125 396.450195312 79.400390625 389.325195312 c 128,-1,10
 77.599609375 382.200195312 77.599609375 382.200195312 77.599609375 373.650390625 c 1,11,-1
 38 373.650390625 l 1,12,13
 38 402.150390625 38 402.150390625 51.0498046875 421.625 c 128,-1,14
 64.099609375 441.099609375 64.099609375 441.099609375 88.400390625 441.099609375 c 0,15,16
 96.5 441.099609375 96.5 441.099609375 106.849609375 437.299804688 c 128,-1,17
 117.200195312 433.5 117.200195312 433.5 127.099609375 428.275390625 c 128,-1,18
 137 423.049804688 137 423.049804688 146.450195312 419.25 c 128,-1,19
 155.900390625 415.450195312 155.900390625 415.450195312 162.200195312 415.450195312 c 0,20,21
 179.299804688 415.450195312 179.299804688 415.450195312 179.299804688 441.099609375 c 1,22,-1
 218 441.099609375 l 1,0,1
EndSplineSet
EndChar

StartChar: hungarumlaut
Encoding: 733 733 212
Width: 341
VWidth: 970
Flags: W
LayerCount: 2
Fore
SplineSet
216.849609375 324.275390625 m 1,0,-1
 179.049804688 324.275390625 l 1,1,-1
 235.75 486.724609375 l 1,2,-1
 293.349609375 486.724609375 l 1,3,-1
 216.849609375 324.275390625 l 1,0,-1
103.450195312 324.275390625 m 1,4,-1
 65.650390625 324.275390625 l 1,5,-1
 122.349609375 486.724609375 l 1,6,-1
 179.049804688 486.724609375 l 1,7,-1
 103.450195312 324.275390625 l 1,4,-1
EndSplineSet
EndChar

StartChar: uni0E01
Encoding: 3585 3585 214
Width: 370
VWidth: 960
Flags: W
LayerCount: 2
Fore
SplineSet
324.5 10.1748046875 m 1,0,-1
 268.700195312 10.1748046875 l 1,1,-1
 268.700195312 261.924804688 l 2,2,3
 268.700195312 300.875 268.700195312 300.875 246.200195312 323.674804688 c 128,-1,4
 223.700195312 346.474609375 223.700195312 346.474609375 186.799804688 346.474609375 c 0,5,6
 132.799804688 346.474609375 132.799804688 346.474609375 104.900390625 298.025390625 c 1,7,8
 147.200195312 289.474609375 147.200195312 289.474609375 165.200195312 255.275390625 c 1,9,10
 119.299804688 226.775390625 119.299804688 226.775390625 119.299804688 186.875 c 2,11,-1
 119.299804688 10.1748046875 l 1,12,-1
 63.5 10.1748046875 l 1,13,-1
 63.5 190.674804688 l 2,14,15
 63.5 230.575195312 63.5 230.575195312 100.400390625 253.375 c 1,16,17
 77.900390625 269.525390625 77.900390625 269.525390625 45.5 264.775390625 c 1,18,19
 47.2998046875 323.674804688 47.2998046875 323.674804688 88.7001953125 361.674804688 c 0,20,21
 126.5 396.825195312 126.5 396.825195312 185 396.825195312 c 0,22,23
 249.799804688 396.825195312 249.799804688 396.825195312 287.150390625 360.25 c 128,-1,24
 324.5 323.674804688 324.5 323.674804688 324.5 260.974609375 c 2,25,-1
 324.5 10.1748046875 l 1,0,-1
EndSplineSet
EndChar

StartChar: uni0E02
Encoding: 3586 3586 215
Width: 392
VWidth: 959
Flags: W
LayerCount: 2
Fore
SplineSet
346.799804688 99.275390625 m 2,0,1
 346.799804688 52.724609375 346.799804688 52.724609375 319.349609375 27.5498046875 c 128,-1,2
 291.900390625 2.375 291.900390625 2.375 246.900390625 2.375 c 256,3,4
 201.900390625 2.375 201.900390625 2.375 174.450195312 27.5498046875 c 128,-1,5
 147 52.724609375 147 52.724609375 147 99.275390625 c 2,6,-1
 147 161.025390625 l 2,7,8
 147 188.575195312 147 188.575195312 170.849609375 234.650390625 c 128,-1,9
 194.700195312 280.724609375 194.700195312 280.724609375 194.700195312 307.325195312 c 0,10,11
 194.700195312 329.174804688 194.700195312 329.174804688 180.299804688 343.424804688 c 128,-1,12
 165.900390625 357.674804688 165.900390625 357.674804688 147 357.674804688 c 0,13,14
 118.200195312 357.674804688 118.200195312 357.674804688 108.299804688 345.325195312 c 1,15,16
 135.299804688 344.375 135.299804688 344.375 151.950195312 327.275390625 c 128,-1,17
 168.599609375 310.174804688 168.599609375 310.174804688 168.599609375 283.575195312 c 0,18,19
 168.599609375 255.075195312 168.599609375 255.075195312 149.700195312 235.599609375 c 128,-1,20
 130.799804688 216.125 130.799804688 216.125 104.700195312 216.125 c 0,21,22
 74.099609375 216.125 74.099609375 216.125 55.650390625 239.400390625 c 128,-1,23
 37.2001953125 262.674804688 37.2001953125 262.674804688 37.2001953125 295.924804688 c 0,24,25
 37.2001953125 339.625 37.2001953125 339.625 70.0498046875 368.125 c 128,-1,26
 102.900390625 396.625 102.900390625 396.625 146.099609375 396.625 c 0,27,28
 191.099609375 396.625 191.099609375 396.625 219.450195312 373.825195312 c 128,-1,29
 247.799804688 351.025390625 247.799804688 351.025390625 247.799804688 307.325195312 c 0,30,31
 247.799804688 278.825195312 247.799804688 278.825195312 225.299804688 227.525390625 c 128,-1,32
 202.799804688 176.224609375 202.799804688 176.224609375 202.799804688 155.325195312 c 2,33,-1
 202.799804688 85.974609375 l 2,34,35
 202.799804688 69.8251953125 202.799804688 69.8251953125 216.75 61.275390625 c 128,-1,36
 230.700195312 52.724609375 230.700195312 52.724609375 246.900390625 52.724609375 c 0,37,38
 264 52.724609375 264 52.724609375 277.5 61.75 c 128,-1,39
 291 70.775390625 291 70.775390625 291 85.974609375 c 2,40,-1
 291 389.025390625 l 1,41,-1
 346.799804688 389.025390625 l 1,42,-1
 346.799804688 99.275390625 l 2,0,1
132.599609375 281.674804688 m 256,43,44
 132.599609375 294.025390625 132.599609375 294.025390625 124.5 302.575195312 c 128,-1,45
 116.400390625 311.125 116.400390625 311.125 104.700195312 311.125 c 256,46,47
 93 311.125 93 311.125 84.900390625 302.575195312 c 128,-1,48
 76.7998046875 294.025390625 76.7998046875 294.025390625 76.7998046875 281.674804688 c 256,49,50
 76.7998046875 269.325195312 76.7998046875 269.325195312 84.900390625 260.775390625 c 128,-1,51
 93 252.224609375 93 252.224609375 104.700195312 252.224609375 c 256,52,53
 116.400390625 252.224609375 116.400390625 252.224609375 124.5 260.775390625 c 128,-1,54
 132.599609375 269.325195312 132.599609375 269.325195312 132.599609375 281.674804688 c 256,43,44
EndSplineSet
EndChar

StartChar: uni0E03
Encoding: 3587 3587 216
Width: 407
VWidth: 959
Flags: W
LayerCount: 2
Fore
SplineSet
362 99.2998046875 m 2,0,1
 362 52.75 362 52.75 334.549804688 27.5751953125 c 128,-1,2
 307.099609375 2.400390625 307.099609375 2.400390625 262.099609375 2.400390625 c 256,3,4
 217.099609375 2.400390625 217.099609375 2.400390625 189.650390625 27.5751953125 c 128,-1,5
 162.200195312 52.75 162.200195312 52.75 162.200195312 99.2998046875 c 2,6,-1
 162.200195312 142.049804688 l 2,7,8
 162.200195312 172.450195312 162.200195312 172.450195312 192.349609375 222.325195312 c 128,-1,9
 222.5 272.200195312 222.5 272.200195312 222.5 300.700195312 c 0,10,11
 218 336.799804688 218 336.799804688 193.700195312 351.049804688 c 1,12,-1
 160.400390625 314.950195312 l 1,13,-1
 120.799804688 352.950195312 l 1,14,15
 111.799804688 347.25 111.799804688 347.25 101.450195312 332.525390625 c 128,-1,16
 91.099609375 317.799804688 91.099609375 317.799804688 90.2001953125 306.400390625 c 1,17,18
 103.700195312 309.25 103.700195312 309.25 109.099609375 309.25 c 0,19,20
 136.099609375 309.25 136.099609375 309.25 155 289.299804688 c 128,-1,21
 173.900390625 269.349609375 173.900390625 269.349609375 173.900390625 240.849609375 c 256,22,23
 173.900390625 212.349609375 173.900390625 212.349609375 155.450195312 192.400390625 c 128,-1,24
 137 172.450195312 137 172.450195312 109.099609375 172.450195312 c 0,25,26
 77.599609375 172.450195312 77.599609375 172.450195312 57.7998046875 200 c 128,-1,27
 38 227.549804688 38 227.549804688 38 259.849609375 c 0,28,29
 38 310.200195312 38 310.200195312 63.650390625 351.525390625 c 128,-1,30
 89.2998046875 392.849609375 89.2998046875 392.849609375 129.799804688 396.650390625 c 1,31,-1
 159.5 364.349609375 l 1,32,-1
 187.400390625 397.599609375 l 1,33,34
 268.400390625 378.599609375 268.400390625 378.599609375 268.400390625 296.900390625 c 0,35,36
 268.400390625 267.450195312 268.400390625 267.450195312 243.200195312 221.849609375 c 128,-1,37
 218 176.25 218 176.25 218 149.650390625 c 2,38,-1
 218 86 l 2,39,40
 218 69.849609375 218 69.849609375 231.950195312 61.2998046875 c 128,-1,41
 245.900390625 52.75 245.900390625 52.75 262.099609375 52.75 c 0,42,43
 279.200195312 52.75 279.200195312 52.75 292.700195312 61.775390625 c 128,-1,44
 306.200195312 70.7998046875 306.200195312 70.7998046875 306.200195312 86 c 2,45,-1
 306.200195312 389.049804688 l 1,46,-1
 362 389.049804688 l 1,47,-1
 362 99.2998046875 l 2,0,1
137 240.849609375 m 256,48,49
 137 253.200195312 137 253.200195312 128.900390625 261.75 c 128,-1,50
 120.799804688 270.299804688 120.799804688 270.299804688 109.099609375 270.299804688 c 256,51,52
 97.400390625 270.299804688 97.400390625 270.299804688 89.2998046875 261.75 c 128,-1,53
 81.2001953125 253.200195312 81.2001953125 253.200195312 81.2001953125 240.849609375 c 256,54,55
 81.2001953125 228.5 81.2001953125 228.5 89.2998046875 219.950195312 c 128,-1,56
 97.400390625 211.400390625 97.400390625 211.400390625 109.099609375 211.400390625 c 256,57,58
 120.799804688 211.400390625 120.799804688 211.400390625 128.900390625 219.950195312 c 128,-1,59
 137 228.5 137 228.5 137 240.849609375 c 256,48,49
EndSplineSet
EndChar

StartChar: uni0E04
Encoding: 3588 3588 217
Width: 381
VWidth: 960
Flags: W
LayerCount: 2
Fore
SplineSet
335.950195312 10.1748046875 m 1,0,-1
 280.150390625 10.1748046875 l 1,1,-1
 280.150390625 269.525390625 l 2,2,3
 280.150390625 303.724609375 280.150390625 303.724609375 252.25 326.525390625 c 0,4,5
 226.150390625 346.474609375 226.150390625 346.474609375 191.950195312 346.474609375 c 0,6,7
 151.450195312 346.474609375 151.450195312 346.474609375 127.150390625 317.5 c 128,-1,8
 102.849609375 288.525390625 102.849609375 288.525390625 102.849609375 250.525390625 c 0,9,10
 102.849609375 240.075195312 102.849609375 240.075195312 106.900390625 215.849609375 c 128,-1,11
 110.950195312 191.625 110.950195312 191.625 110.950195312 173.575195312 c 2,12,-1
 110.950195312 146.974609375 l 2,13,14
 110.950195312 147.924804688 110.950195312 147.924804688 114.099609375 167.400390625 c 128,-1,15
 117.25 186.875 117.25 186.875 118.150390625 197.325195312 c 0,16,17
 127.150390625 237.224609375 127.150390625 237.224609375 146.049804688 263.825195312 c 0,18,19
 169.450195312 298.025390625 169.450195312 298.025390625 200.049804688 298.025390625 c 0,20,21
 224.349609375 298.025390625 224.349609375 298.025390625 242.349609375 279.974609375 c 128,-1,22
 260.349609375 261.924804688 260.349609375 261.924804688 260.349609375 236.275390625 c 0,23,24
 260.349609375 211.575195312 260.349609375 211.575195312 242.349609375 193.049804688 c 128,-1,25
 224.349609375 174.525390625 224.349609375 174.525390625 200.049804688 174.525390625 c 0,26,27
 177.549804688 174.525390625 177.549804688 174.525390625 159.549804688 191.625 c 1,28,29
 132.549804688 105.174804688 132.549804688 105.174804688 132.549804688 10.1748046875 c 1,30,-1
 76.75 10.1748046875 l 1,31,-1
 76.75 70.974609375 l 2,32,33
 76.75 115.625 76.75 115.625 61.900390625 168.349609375 c 128,-1,34
 47.0498046875 221.075195312 47.0498046875 221.075195312 47.0498046875 251.474609375 c 0,35,36
 47.0498046875 317.025390625 47.0498046875 317.025390625 92.0498046875 357.875 c 0,37,38
 134.349609375 396.825195312 134.349609375 396.825195312 196.450195312 396.825195312 c 0,39,40
 253.150390625 396.825195312 253.150390625 396.825195312 291.849609375 365.474609375 c 0,41,42
 335.950195312 329.375 335.950195312 329.375 335.950195312 267.625 c 2,43,-1
 335.950195312 10.1748046875 l 1,0,-1
227.049804688 236.275390625 m 256,44,45
 227.049804688 248.625 227.049804688 248.625 218.950195312 257.174804688 c 128,-1,46
 210.849609375 265.724609375 210.849609375 265.724609375 199.150390625 265.724609375 c 256,47,48
 187.450195312 265.724609375 187.450195312 265.724609375 179.799804688 257.174804688 c 128,-1,49
 172.150390625 248.625 172.150390625 248.625 172.150390625 236.275390625 c 256,50,51
 172.150390625 223.924804688 172.150390625 223.924804688 179.799804688 215.849609375 c 128,-1,52
 187.450195312 207.775390625 187.450195312 207.775390625 199.150390625 207.775390625 c 256,53,54
 210.849609375 207.775390625 210.849609375 207.775390625 218.950195312 215.849609375 c 128,-1,55
 227.049804688 223.924804688 227.049804688 223.924804688 227.049804688 236.275390625 c 256,44,45
EndSplineSet
EndChar

StartChar: uni0E05
Encoding: 3589 3589 218
Width: 381
VWidth: 960
Flags: W
LayerCount: 2
Fore
SplineSet
335.950195312 10.25 m 1,0,-1
 280.150390625 10.25 l 1,1,-1
 280.150390625 269.599609375 l 2,2,3
 280.150390625 327.549804688 280.150390625 327.549804688 255.849609375 345.599609375 c 1,4,-1
 200.049804688 308.549804688 l 1,5,-1
 137.950195312 345.599609375 l 1,6,7
 102.849609375 319.950195312 102.849609375 319.950195312 102.849609375 259.150390625 c 0,8,9
 102.849609375 241.099609375 102.849609375 241.099609375 107.799804688 208.325195312 c 128,-1,10
 112.75 175.549804688 112.75 175.549804688 113.650390625 144.200195312 c 2,11,-1
 113.650390625 135.650390625 l 2,12,13
 113.650390625 137.549804688 113.650390625 137.549804688 115.900390625 150.375 c 128,-1,14
 118.150390625 163.200195312 118.150390625 163.200195312 119.950195312 177.450195312 c 0,15,16
 126.25 217.349609375 126.25 217.349609375 144.25 243.950195312 c 0,17,18
 166.75 278.150390625 166.75 278.150390625 200.049804688 278.150390625 c 0,19,20
 224.349609375 278.150390625 224.349609375 278.150390625 241.900390625 260.099609375 c 128,-1,21
 259.450195312 242.049804688 259.450195312 242.049804688 259.450195312 216.400390625 c 256,22,23
 259.450195312 190.75 259.450195312 190.75 241.900390625 172.700195312 c 128,-1,24
 224.349609375 154.650390625 224.349609375 154.650390625 200.049804688 154.650390625 c 0,25,26
 177.549804688 154.650390625 177.549804688 154.650390625 159.549804688 170.799804688 c 1,27,28
 132.549804688 86.25 132.549804688 86.25 132.549804688 10.25 c 1,29,-1
 76.75 10.25 l 1,30,-1
 76.75 71.0498046875 l 2,31,32
 76.75 117.599609375 76.75 117.599609375 61.900390625 173.174804688 c 128,-1,33
 47.0498046875 228.75 47.0498046875 228.75 47.0498046875 256.299804688 c 0,34,35
 47.0498046875 306.650390625 47.0498046875 306.650390625 70.900390625 345.125 c 128,-1,36
 94.75 383.599609375 94.75 383.599609375 139.75 399.75 c 1,37,-1
 200.049804688 362.700195312 l 1,38,-1
 263.950195312 399.75 l 1,39,40
 335.950195312 368.400390625 335.950195312 368.400390625 335.950195312 284.799804688 c 2,41,-1
 335.950195312 10.25 l 1,0,-1
227.049804688 215.450195312 m 256,42,43
 227.049804688 227.799804688 227.049804688 227.799804688 218.950195312 236.349609375 c 128,-1,44
 210.849609375 244.900390625 210.849609375 244.900390625 199.150390625 244.900390625 c 256,45,46
 187.450195312 244.900390625 187.450195312 244.900390625 179.799804688 236.349609375 c 128,-1,47
 172.150390625 227.799804688 172.150390625 227.799804688 172.150390625 215.450195312 c 256,48,49
 172.150390625 203.099609375 172.150390625 203.099609375 179.799804688 195.025390625 c 128,-1,50
 187.450195312 186.950195312 187.450195312 186.950195312 199.150390625 186.950195312 c 256,51,52
 210.849609375 186.950195312 210.849609375 186.950195312 218.950195312 195.025390625 c 128,-1,53
 227.049804688 203.099609375 227.049804688 203.099609375 227.049804688 215.450195312 c 256,42,43
EndSplineSet
EndChar

StartChar: uni0E06
Encoding: 3590 3590 219
Width: 429
VWidth: 959
Flags: W
LayerCount: 2
Fore
SplineSet
383.099609375 10 m 1,0,-1
 331.799804688 10 l 1,1,2
 278.700195312 67.9501953125 278.700195312 67.9501953125 232.799804688 84.099609375 c 1,3,-1
 232.799804688 74.599609375 l 2,4,5
 232.799804688 44.2001953125 232.799804688 44.2001953125 211.200195312 23.2998046875 c 128,-1,6
 189.599609375 2.400390625 189.599609375 2.400390625 159.900390625 2.400390625 c 256,7,8
 130.200195312 2.400390625 130.200195312 2.400390625 109.049804688 24.724609375 c 128,-1,9
 87.900390625 47.0498046875 87.900390625 47.0498046875 87.900390625 79.349609375 c 0,10,11
 87.900390625 110.700195312 87.900390625 110.700195312 109.049804688 133.025390625 c 128,-1,12
 130.200195312 155.349609375 130.200195312 155.349609375 159.900390625 155.349609375 c 0,13,14
 166.200195312 155.349609375 166.200195312 155.349609375 170.700195312 154.400390625 c 1,15,16
 170.700195312 181 170.700195312 181 198.599609375 226.599609375 c 0,17,18
 224.700195312 269.349609375 224.700195312 269.349609375 224.700195312 297.849609375 c 0,19,20
 224.700195312 334.900390625 224.700195312 334.900390625 195.900390625 352 c 1,21,-1
 164.400390625 315.900390625 l 1,22,-1
 125.700195312 352.950195312 l 1,23,24
 115.799804688 348.200195312 115.799804688 348.200195312 105.900390625 333 c 128,-1,25
 96 317.799804688 96 317.799804688 94.2001953125 305.450195312 c 1,26,27
 101.400390625 308.299804688 101.400390625 308.299804688 113.099609375 308.299804688 c 0,28,29
 140.099609375 308.299804688 140.099609375 308.299804688 159.450195312 288.349609375 c 128,-1,30
 178.799804688 268.400390625 178.799804688 268.400390625 178.799804688 240.849609375 c 0,31,32
 178.799804688 212.349609375 178.799804688 212.349609375 159.450195312 192.400390625 c 128,-1,33
 140.099609375 172.450195312 140.099609375 172.450195312 113.099609375 172.450195312 c 0,34,35
 81.599609375 172.450195312 81.599609375 172.450195312 62.25 197.150390625 c 128,-1,36
 42.900390625 221.849609375 42.900390625 221.849609375 42.900390625 262.700195312 c 0,37,38
 42.900390625 312.099609375 42.900390625 312.099609375 69 353.424804688 c 128,-1,39
 95.099609375 394.75 95.099609375 394.75 132.900390625 396.650390625 c 1,40,-1
 162.599609375 364.349609375 l 1,41,-1
 191.400390625 397.599609375 l 1,42,43
 272.400390625 376.700195312 272.400390625 376.700195312 272.400390625 302.599609375 c 0,44,45
 272.400390625 269.349609375 272.400390625 269.349609375 247.200195312 222.325195312 c 128,-1,46
 222 175.299804688 222 175.299804688 222 149.650390625 c 2,47,-1
 222 135.400390625 l 1,48,49
 275.099609375 115.450195312 275.099609375 115.450195312 327.299804688 72.7001953125 c 1,50,-1
 327.299804688 389.049804688 l 1,51,-1
 383.099609375 389.049804688 l 1,52,-1
 383.099609375 10 l 1,0,-1
189.599609375 78.400390625 m 0,53,54
 189.599609375 91.7001953125 189.599609375 91.7001953125 181.049804688 100.724609375 c 128,-1,55
 172.5 109.75 172.5 109.75 159.900390625 109.75 c 0,56,57
 148.200195312 109.75 148.200195312 109.75 139.200195312 100.724609375 c 128,-1,58
 130.200195312 91.7001953125 130.200195312 91.7001953125 130.200195312 78.400390625 c 0,59,60
 130.200195312 66.0498046875 130.200195312 66.0498046875 139.200195312 56.5498046875 c 128,-1,61
 148.200195312 47.0498046875 148.200195312 47.0498046875 159.900390625 47.0498046875 c 0,62,63
 172.5 47.0498046875 172.5 47.0498046875 181.049804688 56.5498046875 c 128,-1,64
 189.599609375 66.0498046875 189.599609375 66.0498046875 189.599609375 78.400390625 c 0,53,54
141.900390625 240.849609375 m 256,65,66
 141.900390625 253.200195312 141.900390625 253.200195312 133.799804688 261.75 c 128,-1,67
 125.700195312 270.299804688 125.700195312 270.299804688 114 270.299804688 c 256,68,69
 102.299804688 270.299804688 102.299804688 270.299804688 94.2001953125 261.75 c 128,-1,70
 86.099609375 253.200195312 86.099609375 253.200195312 86.099609375 240.849609375 c 256,71,72
 86.099609375 228.5 86.099609375 228.5 94.2001953125 219.950195312 c 128,-1,73
 102.299804688 211.400390625 102.299804688 211.400390625 114 211.400390625 c 256,74,75
 125.700195312 211.400390625 125.700195312 211.400390625 133.799804688 219.950195312 c 128,-1,76
 141.900390625 228.5 141.900390625 228.5 141.900390625 240.849609375 c 256,65,66
EndSplineSet
EndChar

StartChar: uni0E07
Encoding: 3591 3591 220
Width: 300
VWidth: 960
Flags: W
LayerCount: 2
Fore
SplineSet
254.599609375 10.1748046875 m 1,0,-1
 199.700195312 10.1748046875 l 1,1,-1
 31.400390625 210.625 l 1,2,-1
 64.7001953125 251.474609375 l 1,3,-1
 198.799804688 91.875 l 1,4,-1
 198.799804688 255.275390625 l 2,5,6
 196.099609375 254.325195312 196.099609375 254.325195312 181.700195312 254.325195312 c 0,7,8
 153.799804688 254.325195312 153.799804688 254.325195312 134.450195312 273.799804688 c 128,-1,9
 115.099609375 293.275390625 115.099609375 293.275390625 115.099609375 323.674804688 c 256,10,11
 115.099609375 354.075195312 115.099609375 354.075195312 134.900390625 375.450195312 c 128,-1,12
 154.700195312 396.825195312 154.700195312 396.825195312 181.700195312 396.825195312 c 0,13,14
 213.200195312 396.825195312 213.200195312 396.825195312 233.900390625 375.450195312 c 128,-1,15
 254.599609375 354.075195312 254.599609375 354.075195312 254.599609375 319.875 c 2,16,-1
 254.599609375 10.1748046875 l 1,0,-1
212.299804688 325.575195312 m 256,17,18
 212.299804688 338.875 212.299804688 338.875 203.299804688 348.375 c 128,-1,19
 194.299804688 357.875 194.299804688 357.875 181.700195312 357.875 c 256,20,21
 169.099609375 357.875 169.099609375 357.875 160.099609375 348.375 c 128,-1,22
 151.099609375 338.875 151.099609375 338.875 151.099609375 325.575195312 c 256,23,24
 151.099609375 312.275390625 151.099609375 312.275390625 160.099609375 302.775390625 c 128,-1,25
 169.099609375 293.275390625 169.099609375 293.275390625 181.700195312 293.275390625 c 256,26,27
 194.299804688 293.275390625 194.299804688 293.275390625 203.299804688 302.775390625 c 128,-1,28
 212.299804688 312.275390625 212.299804688 312.275390625 212.299804688 325.575195312 c 256,17,18
EndSplineSet
EndChar

